<svg width="384" height="346" viewBox="0 0 384 346" fill="none" xmlns="http://www.w3.org/2000/svg">
<path d="M22 173C22 77.4547 99.4547 0 195 0C290.545 0 368 77.4547 368 173C368 268.545 290.545 346 195 346C99.4547 346 22 268.545 22 173Z" fill="#D0DD58"/>
<path d="M221.017 80.031C224.061 79.4485 235.184 75.5407 236.604 70.3927C237.874 65.7894 230.967 56.5571 221.017 54.1535C211.066 51.7498 195.526 52.4717 195.526 62.4684C195.526 65.2936 197.241 66.729 198.714 67.9617C199.658 68.7512 200.502 69.4576 200.732 70.3927C201.448 73.299 201.095 75.351 200.857 76.7376C200.738 77.4294 200.648 77.9556 200.732 78.3396C201.805 83.1893 218.41 80.5298 221.017 80.031Z" fill="#61AEAC"/>
<path d="M70.219 236.415C79.2485 246.228 79.1842 257.997 79.1208 269.597C79.0491 282.735 78.9785 295.658 92.1206 305.278C116.867 323.392 158.716 318.455 165.778 295.229C177.964 255.151 216.123 234.944 254.778 214.474C284.696 198.63 314.912 182.629 333.615 157.135C368.026 110.228 324.603 65.0763 282.037 64.8697C263.388 64.7791 254.972 69.2404 246.016 73.9879C239.684 77.3445 233.082 80.8442 222.402 82.9793C208.173 85.8243 188.74 82.8177 167.375 79.5121C140.993 75.4304 111.666 70.8929 85.5522 76.3543C47.3465 84.3445 -9.54612 116.014 1.36605 166.981C8.00615 197.994 20.1891 204.074 35.9339 211.93C46.0637 216.985 57.6679 222.775 70.219 236.415Z" fill="#61AEAC"/>
<path d="M223.365 299.824C222.079 300.957 220.677 301.955 219.276 302.951C217.322 304.341 215.371 305.729 213.745 307.482C211.884 309.487 210.475 311.936 209.076 314.364C206.883 318.173 204.718 321.934 200.885 323.862C198.192 325.217 195.081 325.408 192.068 325.528C189.517 325.63 186.824 325.668 184.584 324.441C181.653 322.834 180.183 319.406 179.681 316.101C179.436 314.489 179.371 312.857 179.305 311.225C179.236 309.512 179.167 307.799 178.891 306.109C178.59 304.271 178.047 302.437 177.505 300.608C176.383 296.822 175.27 293.062 176.338 289.354C177.572 285.074 181.405 282.145 185.01 279.528C192.272 274.257 199.584 268.956 207.667 265.058C210.995 263.454 214.503 262.079 218.184 261.763C221.865 261.448 225.767 262.298 228.564 264.711C232.86 268.417 233.623 274.822 232.9 280.449C231.963 287.746 228.881 294.957 223.365 299.824Z" fill="#61AEAC"/>
<path d="M328 165.032C326.302 166.517 323.481 166 321.178 165.412C310.68 162.733 299.954 160.74 289.119 159.454C288.789 158.992 289.192 158.346 289.764 158.132C290.335 157.917 290.988 158.007 291.6 158.102C303.83 159.994 315.976 162.307 328 165.032Z" fill="#D0DD58"/>
<path d="M314.448 145.67C319.801 146.948 325.385 147.362 330.884 146.887C332.027 146.788 333.447 146.779 334 147.728C330.088 149.526 325.473 149.096 321.187 148.39C307.331 146.108 294.078 141.391 280.921 136.7C260.789 129.521 236.835 132.844 219.747 145.186C219.233 145.23 218.889 144.613 219.033 144.146C219.177 143.679 219.618 143.356 220.036 143.071C232.203 134.796 247.347 130.491 262.336 131.048C265.189 131.154 268.042 131.431 270.83 132.014C273.603 132.593 276.295 133.47 278.98 134.345C288.168 137.339 297.357 140.334 306.546 143.329C309.156 144.179 311.77 145.031 314.448 145.67Z" fill="#D0DD58"/>
<path d="M117.97 78.0159C119.206 79.2879 121.501 78.409 122.316 76.8144C123.132 75.2197 122.919 73.2951 122.685 71.507C123.537 72.8282 124.413 74.1757 125.64 75.1306C126.867 76.0855 128.532 76.5903 129.965 76.0211C132.038 75.1977 132.835 72.388 132.167 70.1962C131.499 68.0043 129.765 66.3514 127.978 64.9864C127.521 64.637 127.65 63.8344 128.087 63.459C128.525 63.0837 129.134 63.0247 129.702 63.0077C136.511 62.8047 143.301 66.6183 146.848 72.6388C147.362 73.511 146.487 74.6631 145.517 74.8498C144.547 75.0364 143.575 74.6335 142.609 74.4236C141.643 74.2138 140.469 74.2775 139.893 75.1067C139.192 76.1139 139.806 77.4832 140.039 78.7006C140.273 79.918 139.4 81.6465 138.322 81.1035C136.346 80.1084 133.694 80.9426 132.586 82.9073C131.479 84.8719 132.082 87.6731 133.891 88.9644C134.602 89.4721 134.217 90.7773 133.405 91.0814C132.592 91.3855 131.686 90.9691 131.018 90.4011C130.351 89.8331 129.808 89.107 129.08 88.6262C127.684 87.7053 125.688 87.9161 124.501 89.1098C123.313 90.3034 123.052 92.3628 123.9 93.8338C124.526 94.9189 122.84 96.0189 121.676 95.6374C120.512 95.2559 119.602 94.2063 118.399 93.9897C116.671 93.6786 115.067 95.3021 114.676 97.0717C114.285 98.8413 114.775 100.678 115.262 102.422C115.505 103.292 114.513 104.102 113.645 103.989C112.777 103.877 112.096 103.185 111.525 102.499C107.877 98.1102 105.87 92.2955 106.007 86.5075C106.023 85.7888 106.093 85.0146 106.547 84.4704C107.001 83.9262 107.973 83.8125 108.335 84.426C109.684 86.7121 112.121 88.4628 114.705 88.303C117.288 88.1432 119.697 85.6164 119.28 82.9722C118.942 80.8251 117.063 79.3301 116.135 77.3782C116.352 76.5843 117.405 77.4343 117.97 78.0159V78.0159Z" fill="#D0DD58"/>
<path d="M152.737 105.276C151.253 103.812 148.806 103.85 146.977 104.817C145.149 105.784 143.807 107.487 142.568 109.176C141.066 102.736 142.591 95.6207 146.586 90.4312C147.105 89.7568 148.377 89.2653 148.54 90.1093C149.04 92.6905 150.507 95.2977 152.929 96.1378C155.35 96.978 158.547 95.1188 158.362 92.4936C158.256 90.9905 157.395 88.9586 158.73 88.3425C159.327 89.4093 159.964 90.5195 160.981 91.1667C161.998 91.8139 163.513 91.8091 164.227 90.822C164.73 90.1274 164.716 89.1553 165.166 88.4236C165.617 87.6918 167.032 87.6055 167.049 88.4717C167.098 91.0543 167.614 94.2957 170.032 94.9797C171.711 95.4545 173.475 94.2846 174.411 92.7723C175.346 91.2599 175.687 89.4522 176.228 87.7479C176.301 87.5191 176.387 87.2781 176.572 87.1319C177.066 86.7428 177.731 87.2906 178.117 87.792C181.407 92.0597 184.797 96.5399 185.872 101.876C186.022 102.62 186.112 103.449 185.723 104.095C185.334 104.741 184.277 104.964 183.88 104.323C182.894 102.733 180.96 101.829 179.149 102.112C177.339 102.396 175.752 103.851 175.269 105.67C175.086 106.362 174.096 106.439 173.521 106.036C172.945 105.632 172.613 104.956 172.116 104.454C170.574 102.896 167.481 103.828 166.998 105.997C166.816 106.817 166.956 107.684 166.781 108.505C166.606 109.327 165.903 110.158 165.106 109.974C163.927 109.703 164.112 107.962 164.025 106.72C163.889 104.799 162.202 103.127 160.333 103.062C158.464 102.997 156.671 104.548 156.41 106.456C156.297 107.285 155.135 107.493 154.436 107.064C153.738 106.635 153.325 105.855 152.737 105.276L152.737 105.276Z" fill="#D0DD58"/>
<path fill-rule="evenodd" clip-rule="evenodd" d="M35.3854 172.281C35.17 170.391 35.2761 168.316 36.4723 166.831C37.6684 165.345 40.268 164.911 41.4539 166.404C43.9957 169.607 48.9357 170.637 52.5611 168.721C52.7638 164.22 52.9666 159.719 53.1694 155.218C53.1999 154.541 53.219 153.817 52.8611 153.239C52.5526 152.741 52.0149 152.437 51.4997 152.154C47.6396 150.031 43.7794 147.909 39.9193 145.786C38.6592 145.093 37.0154 144.421 35.8859 145.308C34.3401 146.523 31.851 145.237 31.2359 143.378C30.6208 141.519 31.3097 139.496 32.1413 137.722C33.3039 135.241 35.0512 132.679 37.7442 132.096C40.4371 131.513 43.6297 134.408 42.2886 136.798C41.1432 138.839 43.4124 141.062 45.3974 142.318C47.7219 143.788 50.0463 145.259 52.3707 146.73C53.7255 147.587 55.8276 148.303 56.6657 146.942C61.0402 139.841 68.5318 134.707 76.7728 133.165C77.3716 133.053 78.0437 132.915 78.3759 132.408C78.6466 131.995 78.6039 131.461 78.5512 130.971C77.9888 125.741 77.4264 120.512 76.864 115.283C76.7229 113.971 76.2987 112.341 74.9884 112.121C71.7672 111.578 70.8904 106.853 72.928 104.318C74.9656 101.784 78.5398 101.088 81.806 101.008C84.797 100.934 88.0934 101.369 90.1142 103.559C92.1349 105.749 91.6635 110.112 88.7622 110.837C85.5924 111.629 85.2072 115.892 85.5062 119.122C85.8446 122.778 86.1829 126.434 86.5213 130.09C86.6927 131.941 87.3667 134.308 89.2375 134.408C95.9657 134.77 102.531 137.601 107.389 142.235C108.081 142.895 108.849 143.639 109.808 143.64C110.383 143.64 110.917 143.367 111.425 143.1C114.236 141.624 117.047 140.148 119.858 138.671C121.725 137.69 123.916 135.784 122.915 133.937C121.614 131.536 124.846 128.701 127.519 129.331C130.191 129.961 131.883 132.548 132.991 135.042C133.683 136.599 134.269 138.303 133.958 139.976C133.648 141.649 132.142 143.212 130.438 143.026C125.012 142.432 119.803 145.017 114.965 147.528C113.605 148.233 112.011 149.665 112.811 150.965C116.9 157.611 117.66 166.169 114.807 173.422C114.157 175.075 115.829 176.656 117.301 177.661C120.667 179.958 124.032 182.254 127.398 184.551C129.352 185.884 132.321 187.099 133.777 185.241C135.22 183.399 138.533 184.367 139.525 186.483C140.517 188.599 139.812 191.119 138.729 193.191C137.316 195.893 135.275 198.27 132.81 200.082C130.961 201.441 127.969 202.303 126.659 200.426C124.998 198.047 128.096 193.876 125.706 192.217C121.348 189.191 116.991 186.165 112.633 183.139C111.561 182.394 109.932 181.708 109.113 182.722C105.369 187.36 100.243 190.885 94.5523 192.736C93.7793 192.987 93.6596 194.006 93.6808 194.813C93.7895 198.962 94.5128 204.031 98.4104 205.534C100.55 206.359 100.724 209.59 99.2199 211.312C97.7162 213.034 95.2767 213.574 92.9979 213.851C91.1467 214.076 89.153 214.165 87.5385 213.238C85.9239 212.311 84.9989 210.003 86.1375 208.537C88.6775 205.266 87.5766 200.592 86.36 196.643C86.2077 196.149 86.0417 195.632 85.6664 195.273C85.0664 194.699 84.1352 194.7 83.3021 194.698C77.8921 194.683 72.4995 192.966 68.0908 189.854C66.3111 188.597 64.0372 190.515 62.7253 192.248C61.0361 194.48 59.347 196.711 57.6579 198.942C56.9123 199.927 56.1468 200.954 55.8917 202.16C55.6366 203.365 56.0468 204.803 57.1558 205.357C59.5711 206.561 58.5357 210.65 56.024 211.641C53.5122 212.633 50.688 211.556 48.2725 210.352C46.3292 209.383 44.3884 208.288 42.9782 206.645C41.568 205.002 40.7666 202.698 41.4191 200.639C42.0715 198.58 44.4723 197.069 46.5117 197.819C47.5181 198.189 48.5075 197.288 49.2001 196.474C52.4622 192.642 55.7242 188.809 58.9863 184.977C59.3042 184.603 59.6396 184.184 59.6347 183.695C59.6258 182.808 58.5939 182.359 57.9557 181.738C57.0927 180.898 56.909 179.603 56.3458 178.542C54.4955 175.054 49.5269 175.111 45.5941 175.658C44.78 175.771 43.8152 176 43.5427 176.77C42.8254 178.796 39.8283 179.196 38.0766 177.935C36.325 176.675 35.6286 174.414 35.3854 172.281Z" fill="#D0DD58"/>
<path fill-rule="evenodd" clip-rule="evenodd" d="M243.93 226.82C242.628 227.544 242.655 229.399 242.856 230.878C243.579 236.184 244.302 241.49 245.025 246.796C245.23 248.301 245.453 249.856 246.255 251.145C247.057 252.434 248.606 253.387 250.074 253.008C252.334 252.424 254.671 254.557 254.835 256.891C254.999 259.225 253.458 261.421 251.478 262.66C249.498 263.899 247.138 264.351 244.829 264.689C241.692 265.147 238.2 265.352 235.654 263.459C233.109 261.567 232.795 256.792 235.751 255.647C237.201 255.086 237.244 253.075 237.033 251.532C236.128 244.941 235.224 238.349 234.32 231.758C234.132 230.392 233.46 228.624 232.096 228.798C226.134 229.561 219.969 228.654 214.478 226.207C213.104 225.595 211.599 226.644 210.46 227.629C208.36 229.446 206.226 231.303 204.772 233.671C203.318 236.039 202.626 239.045 203.629 241.638C204.314 243.409 202.534 245.365 200.648 245.549C198.761 245.733 196.979 244.714 195.426 243.624C193.748 242.445 192.085 241.036 191.406 239.097C190.727 237.159 191.437 234.602 193.364 233.903C199.37 231.725 204.459 227.118 207.23 221.35C201.345 216.225 196.628 209.759 193.54 202.583C187.493 203.016 181.446 203.449 175.398 203.881C172.964 204.056 169.896 204.773 169.5 207.187C168.951 210.536 163.977 211.402 161.366 209.241C158.755 207.079 158.095 203.36 158.009 199.967C157.932 196.942 158.308 193.601 160.505 191.525C162.702 189.449 167.185 189.93 167.851 192.882C168.136 194.148 169.801 194.399 171.095 194.378C177.512 194.273 183.929 194.168 190.346 194.063C191.13 194.05 191.98 194.014 192.587 193.515C193.139 193.061 193.36 192.325 193.552 191.635C194.595 187.886 195.639 184.136 196.682 180.386C196.905 179.586 197.129 178.744 196.938 177.935C196.696 176.916 195.852 176.169 195.052 175.494C192.629 173.446 189.632 171.26 186.582 172.125C182.755 173.212 178.565 168.987 179.671 165.158C180.776 161.328 186.571 160.001 189.227 162.968C192.127 166.208 195.326 169.179 198.77 171.83C199.032 172.032 199.317 172.24 199.646 172.261C200.119 172.291 200.519 171.935 200.857 171.603C205.092 167.447 209.328 163.291 213.563 159.135C214.024 158.683 214.502 158.203 214.69 157.584C214.883 156.946 214.737 156.262 214.591 155.612C214.072 153.303 213.553 150.995 213.034 148.686C212.55 146.535 211.592 143.934 209.404 143.701C206.508 143.392 205.826 138.906 207.902 136.859C209.978 134.811 213.285 134.757 216.151 135.275C217.466 135.512 218.835 135.88 219.777 136.829C220.719 137.778 221.028 139.474 220.101 140.439C218.646 141.952 218.977 144.385 219.406 146.442C220.139 149.961 220.873 153.479 221.606 156.998C221.751 157.693 222.115 158.565 222.822 158.508C233.076 157.681 243.562 160.002 252.515 165.08C253.803 165.81 255.312 164.646 256.332 163.57C259.749 159.966 263.166 156.362 266.583 152.757C268.226 151.024 269.99 148.607 268.914 146.474C267.707 144.081 270.084 141.107 272.739 140.787C275.394 140.466 277.924 141.943 280.045 143.576C282.973 145.83 285.765 148.898 285.819 152.599C285.872 156.3 281.598 159.882 278.469 157.916C276.394 156.611 273.817 158.442 272.065 160.157C268.721 163.429 265.378 166.701 262.035 169.974C261.079 170.908 260.052 172.299 260.746 173.442C264.802 180.123 267.106 187.863 267.363 195.68C267.392 196.574 268.483 196.964 269.361 197.123C274.447 198.045 279.533 198.966 284.619 199.887C285.636 200.071 286.986 200.083 287.36 199.117C288.475 196.24 293.311 197.226 294.504 200.072C295.697 202.917 294.511 206.148 293.331 208.999C292.439 211.154 291.375 213.495 289.265 214.481C287.155 215.466 283.942 213.857 284.444 211.578C284.857 209.705 282.468 208.575 280.594 208.182C275.515 207.118 270.436 206.053 265.357 204.988C260.499 214.122 252.961 221.802 243.93 226.82Z" fill="#D0DD58"/>
<path fill-rule="evenodd" clip-rule="evenodd" d="M355.609 218.608C349.967 221.548 343.848 218.692 337.987 217.048C329.668 214.714 320.883 214.944 312.989 219.609C299.896 227.347 284.806 226.728 272 217.927C273.325 216.853 274.93 217.72 276.339 218.505C288.051 225.033 301.304 224.78 312.908 217.808C323.117 211.673 334.587 214.004 345.315 217.462C349.913 218.944 354.839 217.89 359 214.535C358.435 216.638 357.011 217.877 355.609 218.608Z" fill="#00160A"/>
<path fill-rule="evenodd" clip-rule="evenodd" d="M314.448 144.67C319.801 145.948 325.385 146.362 330.884 145.887C332.027 145.788 333.447 145.779 334 146.728C330.088 148.526 325.473 148.096 321.187 147.39C307.331 145.108 294.078 140.391 280.921 135.7C260.789 128.521 236.835 131.844 219.747 144.186C219.233 144.23 218.889 143.613 219.033 143.146C219.177 142.679 219.618 142.356 220.036 142.071C232.203 133.796 247.347 129.491 262.336 130.048C265.189 130.154 268.042 130.431 270.83 131.014C273.603 131.593 276.295 132.47 278.98 133.345C288.168 136.339 297.357 139.334 306.546 142.329C309.156 143.179 311.77 144.031 314.448 144.67Z" fill="#00160A"/>
<path fill-rule="evenodd" clip-rule="evenodd" d="M150.981 104.07C149.463 102.542 146.96 102.582 145.09 103.591C143.22 104.6 141.848 106.378 140.581 108.14C139.044 101.42 140.604 93.9955 144.69 88.5803C145.221 87.8767 146.522 87.3638 146.689 88.2445C147.2 90.9379 148.7 93.6584 151.177 94.5351C153.654 95.4118 156.924 93.4718 156.734 90.7325C156.626 89.164 155.745 87.0438 157.11 86.4009C157.721 87.5141 158.372 88.6726 159.412 89.3479C160.452 90.0232 162.002 90.0182 162.733 88.9881C163.247 88.2634 163.232 87.249 163.693 86.4855C164.153 85.7219 165.601 85.6318 165.618 86.5357C165.668 89.2306 166.196 92.6129 168.669 93.3266C170.386 93.8221 172.19 92.6013 173.147 91.0232C174.104 89.4451 174.452 87.5588 175.006 85.7804C175.081 85.5417 175.168 85.2902 175.358 85.1376C175.863 84.7316 176.543 85.3032 176.938 85.8264C180.303 90.2797 183.769 94.9547 184.869 100.523C185.022 101.299 185.114 102.164 184.716 102.838C184.318 103.512 183.238 103.745 182.832 103.076C181.824 101.417 179.845 100.474 177.994 100.77C176.142 101.065 174.519 102.583 174.025 104.482C173.838 105.204 172.826 105.284 172.237 104.863C171.648 104.442 171.309 103.736 170.801 103.212C169.223 101.587 166.06 102.56 165.566 104.823C165.38 105.678 165.524 106.583 165.344 107.44C165.165 108.297 164.446 109.165 163.631 108.973C162.425 108.69 162.615 106.873 162.525 105.578C162.387 103.573 160.661 101.828 158.75 101.76C156.838 101.692 155.004 103.311 154.738 105.302C154.622 106.167 153.433 106.384 152.719 105.937C152.005 105.489 151.582 104.675 150.981 104.07H150.981Z" fill="#00160A"/>
<path fill-rule="evenodd" clip-rule="evenodd" d="M116.262 77.6496C117.528 78.8907 119.879 78.0332 120.714 76.4774C121.55 74.9216 121.332 73.044 121.091 71.2995C121.965 72.5885 122.863 73.9031 124.119 74.8347C125.376 75.7664 127.081 76.2589 128.549 75.7035C130.673 74.9002 131.49 72.159 130.805 70.0206C130.121 67.8823 128.344 66.2697 126.514 64.938C126.046 64.5971 126.178 63.814 126.626 63.4478C127.074 63.0816 127.698 63.0241 128.28 63.0075C135.255 62.8095 142.21 66.5301 145.844 72.4037C146.371 73.2547 145.475 74.3787 144.481 74.5607C143.487 74.7428 142.491 74.3497 141.502 74.145C140.512 73.9403 139.31 74.0025 138.719 74.8114C138.002 75.7941 138.631 77.13 138.87 78.3176C139.109 79.5053 138.215 81.1917 137.111 80.662C135.086 79.6912 132.369 80.5049 131.235 82.4217C130.1 84.3385 130.718 87.0713 132.571 88.3311C133.3 88.8264 132.906 90.0998 132.073 90.3965C131.241 90.6932 130.312 90.2869 129.628 89.7328C128.945 89.1786 128.389 88.4702 127.643 88.0012C126.213 87.1028 124.168 87.3084 122.952 88.473C121.736 89.6375 121.468 91.6466 122.337 93.0817C122.978 94.1404 121.251 95.2135 120.059 94.8414C118.866 94.4692 117.933 93.4452 116.701 93.2338C114.931 92.9303 113.288 94.5143 112.888 96.2407C112.487 97.9671 112.989 99.7586 113.488 101.46C113.737 102.309 112.721 103.1 111.832 102.99C110.942 102.88 110.245 102.205 109.66 101.535C105.923 97.2539 103.867 91.581 104.007 85.9342C104.024 85.233 104.095 84.4777 104.56 83.9467C105.025 83.4158 106.021 83.3049 106.392 83.9034C107.774 86.1338 110.271 87.8418 112.917 87.6859C115.564 87.53 118.031 85.0648 117.604 82.4851C117.257 80.3903 115.333 78.9318 114.383 77.0275C114.604 76.253 115.683 77.0822 116.262 77.6496V77.6496Z" fill="#00160A"/>
<path fill-rule="evenodd" clip-rule="evenodd" d="M359.311 197.987C360.853 197.124 362.384 195.787 364 196.029C360.419 200.941 355.453 201.698 350.886 200.906C346.319 200.113 341.827 197.988 337.237 197.932C327.08 197.808 317.499 207.781 307.353 206.951C305.309 206.784 303.286 206.176 301.279 205.496C298.163 204.441 295.068 203.207 292 201.798C292.308 200.433 293.441 200.519 294.274 200.853C296.195 201.624 298.115 202.395 300.035 203.166C301.93 203.926 303.83 204.689 305.765 205.037C316.71 207.009 327.197 195.688 338.199 196.201C345.303 196.532 352.556 201.769 359.311 197.987V197.987Z" fill="#00160A"/>
<path fill-rule="evenodd" clip-rule="evenodd" d="M383.82 325C384.22 325.263 383.895 325.884 383.406 325.978C382.916 326.073 382.43 325.84 382 325.616C382.369 325.142 383.126 324.93 383.743 325.127L383.82 325Z" fill="#00160A"/>
<path fill-rule="evenodd" clip-rule="evenodd" d="M347.53 137.384C346.767 138.039 346.047 139.118 345.322 140.125C343.277 142.963 341.16 145.264 339 147C339.036 145.268 339.715 144.659 340.246 144.35C342.054 143.295 343.717 140.565 345.418 138.328C347.119 136.091 348.962 134.302 350.775 135.268C353.491 136.716 356.248 137.344 359 137.143C358.556 138.278 357.969 138.639 357.404 138.789C354.101 139.668 350.732 134.636 347.53 137.384Z" fill="#00160A"/>
<path fill-rule="evenodd" clip-rule="evenodd" d="M328 164.032C326.302 165.517 323.481 165 321.178 164.412C310.68 161.733 299.954 159.74 289.119 158.454C288.789 157.992 289.192 157.346 289.764 157.132C290.335 156.917 290.988 157.007 291.6 157.102C303.83 158.994 315.976 161.307 328 164.032Z" fill="#00160A"/>
<path fill-rule="evenodd" clip-rule="evenodd" d="M362.515 160.52C363.01 160.582 363.505 160.594 364 160.605C363.62 162.192 362.748 162.266 362.029 162.073C357.411 160.832 352.935 156.169 348.295 156.591C343.415 157.034 338.872 163.054 334.047 165C333.853 164.201 334.3 163.405 334.653 163.157C336.962 161.53 339.271 159.904 341.581 158.278C343.649 156.821 345.736 155.356 347.877 155.059C352.813 154.373 357.578 159.907 362.515 160.52Z" fill="#00160A"/>
<path fill-rule="evenodd" clip-rule="evenodd" d="M281.295 178.816L281.871 179.065C288.204 181.816 294.931 186.428 298.745 186.763C306.404 187.437 313.455 183.245 321.046 181.176C329.405 178.897 337.955 180.981 346.438 181.42L346.892 181.442C350.526 181.605 354.338 181.373 357.519 178.634L357.709 178.467C358.137 178.082 358.825 177.777 359 178.502C356.436 181.367 353.254 182.586 350.115 182.892C346.976 183.199 343.833 182.655 340.696 182.306C338.866 182.102 337.034 181.965 335.201 181.852L334.285 181.797C330.435 181.573 326.561 181.424 322.747 182.279C318.162 183.307 313.761 185.762 309.249 187.408C304.777 189.04 300.018 189.854 295.643 187.683C290.26 185.35 285.33 181.528 279.75 180.075C273.867 178.543 267.486 178.559 262.15 182.045C261.601 180.997 262.668 179.792 263.592 179.329C269.167 176.536 275.021 176.121 281.295 178.816Z" fill="#00160A"/>
<path fill-rule="evenodd" clip-rule="evenodd" d="M42.6128 163.859C41.476 162.416 38.9842 162.835 37.8376 164.27C36.691 165.705 36.5893 167.709 36.7957 169.534C37.0288 171.595 37.6964 173.778 39.3754 174.995C41.0545 176.212 43.9274 175.826 44.6151 173.87C44.8763 173.126 45.8011 172.905 46.5815 172.796C50.3513 172.268 55.114 172.213 56.8878 175.581C57.0792 175.944 57.2249 176.336 57.3701 176.727C57.6344 177.438 57.8971 178.144 58.4309 178.668C58.6018 178.835 58.8021 178.99 59.0023 179.144C59.5188 179.543 60.0342 179.941 60.0403 180.558C60.045 181.03 59.7235 181.435 59.4188 181.796L50.0381 192.9C49.3742 193.686 48.4258 194.556 47.461 194.199C45.5061 193.475 43.2048 194.934 42.5794 196.922C41.954 198.911 42.7222 201.136 44.0739 202.723C45.4257 204.31 47.2861 205.367 49.1489 206.303C51.4643 207.466 54.1715 208.506 56.5792 207.548C58.9869 206.591 59.9794 202.642 57.6641 201.479C56.6011 200.944 56.2079 199.555 56.4524 198.391C56.697 197.227 57.4307 196.235 58.1454 195.283L63.0029 188.819C64.2604 187.145 66.4401 185.293 68.1461 186.506C72.3721 189.512 77.5413 191.17 82.7271 191.185L82.743 191.185C83.5375 191.187 84.4221 191.189 84.9935 191.74C85.3532 192.086 85.5124 192.586 85.6584 193.063C86.8245 196.877 87.8799 201.391 85.4451 204.55C84.3537 205.966 85.2404 208.195 86.788 209.091C88.3356 209.986 90.2467 209.899 92.0213 209.682C94.2057 209.415 96.544 208.893 97.9855 207.23C99.427 205.567 99.2609 202.447 97.2095 201.65C93.4734 200.199 92.78 195.302 92.6758 191.296C92.6555 190.516 92.7702 189.532 93.5112 189.289C98.9659 187.502 103.879 184.098 107.469 179.618C108.253 178.639 109.815 179.302 110.843 180.021L123.374 188.789C124.592 189.641 124.323 191.178 124.043 192.777C123.797 194.186 123.542 195.641 124.287 196.717C125.543 198.53 128.412 197.697 130.184 196.385C132.546 194.634 134.503 192.339 135.857 189.729C136.896 187.728 137.571 185.294 136.621 183.251C135.67 181.207 132.494 180.272 131.111 182.051C129.715 183.846 126.869 182.673 124.996 181.385L115.318 174.731C113.906 173.76 112.303 172.233 112.926 170.637C115.662 163.631 114.933 155.366 111.013 148.948C110.247 147.692 111.775 146.309 113.079 145.628C117.716 143.203 122.709 140.707 127.91 141.28C129.544 141.46 130.987 139.951 131.285 138.334C131.582 136.718 131.02 135.073 130.357 133.57C129.295 131.161 127.674 128.662 125.112 128.054C122.55 127.446 119.452 130.184 120.699 132.502C121.658 134.286 119.558 136.127 117.768 137.074L109.684 141.352C109.198 141.609 108.686 141.874 108.135 141.873C107.226 141.872 106.495 141.169 105.838 140.537L105.816 140.516C101.159 136.041 94.8661 133.306 88.4167 132.957C86.6234 132.86 85.9772 130.575 85.813 128.786L84.84 118.194C84.5533 115.074 84.9226 110.957 87.961 110.192C90.7422 109.492 91.194 105.278 89.257 103.163C87.3199 101.048 84.1601 100.628 81.293 100.699C78.1622 100.776 74.736 101.449 72.7828 103.897C70.8297 106.345 71.6702 110.908 74.7579 111.432C76.0139 111.645 76.4206 113.219 76.5558 114.486L78.1731 129.637C78.2236 130.111 78.2646 130.627 78.0051 131.026C77.6866 131.515 77.0424 131.648 76.4684 131.756C68.5688 133.246 61.3876 138.204 57.1944 145.062C56.391 146.376 54.376 145.685 53.0773 144.857L46.393 140.596C44.4902 139.383 42.3149 137.237 43.4129 135.265C44.6985 132.957 41.6381 130.161 39.0568 130.724C36.4754 131.287 34.8004 133.762 33.6861 136.157C32.8889 137.871 32.2286 139.825 32.8182 141.62C33.4078 143.416 35.7937 144.657 37.2755 143.484C38.3582 142.627 39.9339 143.277 41.1418 143.946L52.2424 150.096C52.7362 150.369 53.2517 150.663 53.5473 151.144C53.8905 151.702 53.8722 152.401 53.8429 153.056L53.2598 166.096C49.7847 167.946 45.0493 166.951 42.6128 163.859ZM76.5405 108.149C76.5603 108.155 76.5801 108.162 76.5997 108.168C80.1022 109.311 84.2158 108.294 86.7815 105.65L87.5022 106.096C87.024 107.203 85.8978 107.827 84.8256 108.421C84.7041 108.489 84.5833 108.556 84.4643 108.623C83.2943 109.283 82.0725 110.291 82.0948 111.634C82.2007 118.009 82.6135 124.378 83.3311 130.713C83.4467 131.734 81.8775 132.416 81.2096 131.636C80.9307 131.31 80.8455 130.866 80.7727 130.443C79.7868 124.714 79.243 118.909 79.148 113.097C79.132 112.12 79.0968 111.054 78.4611 110.312C77.93 109.692 77.12 109.457 76.3102 109.222C75.4978 108.986 74.6855 108.75 74.1554 108.126C74.7831 107.574 75.7382 107.886 76.5405 108.149ZM48.4951 204.049C47.1142 203.297 45.7474 202.35 45.0437 200.944C44.34 199.538 44.535 197.578 45.841 196.702C46.712 196.118 47.8803 196.133 48.8631 196.498C49.8458 196.864 50.6799 197.537 51.4727 198.224C52.6819 199.27 53.8412 200.375 54.9454 201.532C55.6054 202.223 56.29 203.057 56.1966 204.009C56.0996 204.998 55.1378 205.73 54.1545 205.875C53.1712 206.02 52.1812 205.706 51.2567 205.341C50.3109 204.968 49.388 204.536 48.4951 204.049ZM126.616 195.951C125.67 192.334 127.091 188.212 130.067 185.947C130.951 185.274 132.178 184.755 133.14 185.31C133.873 185.733 134.181 186.674 134.076 187.513C133.972 188.352 133.53 189.109 133.056 189.809C131.379 192.284 129.167 194.394 126.616 195.951ZM52.2352 194.567C55.1356 190.599 58.085 186.58 61.9374 183.528C62.2845 183.253 62.7609 182.977 63.1387 183.208C63.6673 183.531 63.3393 184.343 62.9646 184.837L54.8228 195.559C54.5162 195.962 54.1819 196.387 53.703 196.553C52.67 196.911 51.59 195.45 52.2352 194.567ZM110.59 176.739C110.29 176.185 110.56 175.3 111.189 175.281C111.475 175.272 111.732 175.44 111.968 175.6L126.439 185.456C126.569 185.545 126.716 185.668 126.694 185.824C126.675 185.961 126.536 186.056 126.406 186.145C126.256 186.248 126.118 186.342 126.192 186.485C126.35 186.789 126.036 187.165 125.696 187.202C125.356 187.24 125.034 187.057 124.742 186.88C121.592 184.968 118.568 182.849 115.696 180.541C115.558 180.43 115.42 180.318 115.282 180.206C114.248 179.371 113.212 178.532 112.051 177.889C111.998 177.86 111.945 177.831 111.892 177.802C111.387 177.526 110.861 177.239 110.59 176.739ZM36.0805 135.164C36.69 134.209 37.6508 133.381 38.782 133.319C39.9132 133.258 41.1019 134.249 40.9262 135.368C40.7172 136.699 40.4952 138.068 39.8049 139.225C39.1146 140.382 37.8352 141.294 36.4962 141.142C35.1573 140.989 34.0417 139.446 34.6312 138.234C34.8105 137.866 34.9699 137.487 35.1293 137.108C35.4105 136.441 35.6914 135.773 36.0805 135.164ZM92.0163 207.48C91.425 207.63 90.8338 207.779 90.2268 207.807C89.04 207.862 87.6456 207.181 87.58 205.995C87.5215 204.938 88.5188 204.147 89.4605 203.664C90.4525 203.155 91.5476 202.759 92.6588 202.848C93.77 202.936 94.8906 203.611 95.2279 204.673C95.5652 205.735 94.8376 207.086 93.7252 207.157C93.146 207.194 92.5811 207.337 92.0163 207.48ZM75.3869 104.888C77.8686 102.59 81.7747 101.982 84.8377 103.418C85.1137 103.547 85.4047 103.715 85.511 104.001C85.7235 104.572 85.082 105.082 84.5193 105.317C81.6132 106.53 78.1668 106.368 75.3869 104.888ZM39.4137 165.722C40.2725 165.459 41.1173 166.182 41.6027 166.937C42.3517 168.103 42.7369 169.499 42.6916 170.884C42.661 171.821 42.2871 172.915 41.3788 173.149C40.3754 173.408 39.4809 172.443 39.0396 171.505C38.5204 170.403 38.2498 169.183 38.2538 167.964C38.2567 167.061 38.5498 165.985 39.4137 165.722ZM88.9271 197.918L87.768 192.297C87.6392 191.673 87.5327 190.95 87.9403 190.46C88.4774 189.814 89.6024 190.053 90.1272 190.71C90.6519 191.366 90.7428 192.257 90.8129 193.095L91.2821 198.699C91.3025 198.944 91.3211 199.2 91.2209 199.424C90.9707 199.984 90.1051 199.986 89.6515 199.573C89.1979 199.161 89.0509 198.518 88.9271 197.918ZM53.5231 147.27C53.818 147.507 54.1249 147.765 54.2463 148.123C54.3677 148.482 54.2118 148.961 53.8431 149.046C53.6391 149.093 53.4608 148.994 53.2701 148.889C53.2046 148.853 53.1378 148.816 53.0679 148.784C49.9341 147.345 45.3099 144.184 42.1193 142.003C41.9526 141.889 41.7897 141.778 41.6313 141.669C41.179 141.361 40.6672 140.829 40.9405 140.354C41.227 139.857 41.9842 140.081 42.4797 140.371C43.0544 140.707 43.6842 141.069 44.3478 141.451C47.3914 143.2 51.1432 145.357 53.5231 147.27ZM121.91 139.244L109.836 144.884C109.453 145.063 108.761 145.008 108.878 144.601C112.546 141.83 116.602 139.575 120.891 137.921C121.247 137.784 121.624 137.648 122.001 137.707C122.377 137.767 122.74 138.093 122.698 138.472C122.656 138.855 122.259 139.081 121.91 139.244ZM122.975 129.725C123.393 129.717 123.467 130.313 123.428 130.729C123.119 134 125.209 137.351 128.282 138.512C128.357 138.959 127.885 139.347 127.431 139.352C126.978 139.356 126.568 139.095 126.206 138.824C123.604 136.879 121.814 133.57 122.456 130.386C122.516 130.088 122.671 129.731 122.975 129.725ZM128.3 136.275C126.505 135.893 125.665 133.87 125.111 132.121C124.926 131.536 124.939 130.634 125.552 130.599C125.784 130.586 125.994 130.732 126.173 130.881C127.724 132.17 128.554 134.275 128.3 136.275ZM46.6475 169.043L52.6358 169.033C53.3336 169.032 54.2851 169.288 54.2194 169.982C51.8471 170.545 49.3609 170.621 46.9585 170.206C46.409 170.111 45.7171 169.528 46.1408 169.165C46.2757 169.05 46.4699 169.044 46.6475 169.043ZM83.6588 189.489C99.3964 189.489 112.154 176.975 112.154 161.538C112.154 146.102 99.3964 133.587 83.6588 133.587C67.9212 133.587 55.1634 146.102 55.1634 161.538C55.1634 176.975 67.9212 189.489 83.6588 189.489Z" fill="#00160A"/>
<path fill-rule="evenodd" clip-rule="evenodd" d="M238.722 230.434C239.444 235.715 240.165 240.997 240.887 246.278C241.091 247.776 241.313 249.325 242.113 250.608C242.913 251.891 244.46 252.839 245.924 252.462C248.179 251.881 250.51 254.004 250.674 256.327C250.838 258.65 249.3 260.836 247.324 262.07C245.349 263.303 242.995 263.753 240.69 264.089C237.561 264.545 234.077 264.749 231.537 262.865C228.997 260.981 228.684 256.229 231.634 255.089C233.08 254.53 233.123 252.529 232.912 250.993C232.01 244.432 231.107 237.87 230.205 231.309C230.018 229.95 229.347 228.19 227.986 228.364C222.038 229.122 215.887 228.22 210.408 225.784C209.037 225.175 207.536 226.22 206.4 227.2C204.304 229.009 202.175 230.857 200.724 233.214C199.274 235.571 198.583 238.563 199.584 241.144C200.267 242.907 198.492 244.854 196.609 245.037C194.727 245.221 192.949 244.206 191.4 243.121C189.725 241.947 188.066 240.545 187.388 238.615C186.711 236.685 187.419 234.14 189.342 233.444C195.335 231.277 200.412 226.691 203.177 220.949C197.305 215.848 192.599 209.412 189.518 202.269C183.484 202.7 177.451 203.13 171.417 203.561C168.988 203.735 165.927 204.448 165.532 206.852C164.984 210.186 160.022 211.047 157.417 208.896C154.812 206.745 154.153 203.043 154.067 199.665C153.991 196.654 154.365 193.328 156.557 191.262C158.749 189.196 163.222 189.674 163.887 192.613C164.171 193.872 165.832 194.123 167.124 194.102C173.526 193.997 179.928 193.892 186.331 193.788C187.113 193.775 187.962 193.739 188.567 193.243C189.118 192.79 189.338 192.058 189.529 191.371C190.571 187.639 191.612 183.907 192.653 180.174C192.875 179.378 193.099 178.539 192.908 177.734C192.667 176.719 191.631 175.756 190.756 175.176C189.036 174.037 187.604 171.402 185.214 171.037C184.482 170.926 183.288 170.926 182.888 171.431C181.588 173.071 178.312 172.948 176.792 171.658C174.992 170.13 175.082 167.082 175.68 165.015C176.783 161.204 182.703 159.515 185.353 162.468C185.787 162.952 185.616 164.544 186.063 165.015C188.598 167.688 191.815 169.414 194.736 171.658C194.997 171.859 195.281 172.066 195.61 172.087C196.082 172.117 196.481 171.762 196.818 171.431C201.044 167.294 205.27 163.158 209.495 159.021C209.955 158.57 210.433 158.093 210.62 157.476C210.812 156.842 210.667 156.16 210.521 155.514C210.003 153.216 209.485 150.918 208.968 148.62C208.485 146.479 207.529 143.889 205.346 143.657C202.456 143.35 201.776 138.885 203.848 136.847C205.919 134.809 209.218 134.755 212.078 135.27C213.39 135.506 214.755 135.872 215.695 136.817C216.636 137.761 216.944 139.45 216.019 140.41C214.567 141.917 214.897 144.339 215.325 146.386C216.057 149.889 216.789 153.391 217.521 156.893C217.665 157.586 218.028 158.453 218.733 158.397C228.964 157.573 239.426 159.883 248.359 164.938C249.645 165.665 251.15 164.506 252.167 163.436C255.577 159.848 258.986 156.26 262.396 152.672C264.035 150.947 265.795 148.542 264.721 146.418C263.517 144.036 265.888 141.076 268.538 140.757C271.187 140.438 273.71 141.908 275.827 143.533C278.749 145.777 281.535 148.831 281.588 152.515C281.641 156.198 277.376 159.764 274.255 157.807C272.185 156.508 269.613 158.331 267.865 160.038C264.529 163.295 261.193 166.552 257.857 169.809C256.904 170.74 255.879 172.124 256.572 173.262C260.619 179.912 262.917 187.617 263.174 195.398C263.203 196.287 264.291 196.676 265.167 196.834C270.242 197.751 275.316 198.668 280.391 199.585C281.406 199.768 282.752 199.78 283.126 198.819C284.238 195.955 289.063 196.937 290.254 199.769C291.444 202.601 290.26 205.817 289.083 208.655C288.193 210.8 287.132 213.131 285.026 214.112C282.921 215.093 279.716 213.491 280.216 211.223C280.628 209.358 278.244 208.233 276.375 207.842C271.307 206.783 266.24 205.723 261.172 204.663C256.325 213.754 248.805 221.399 239.794 226.395C238.494 227.115 238.521 228.961 238.722 230.434ZM166.84 200.735C167.38 201.094 168.07 201.11 168.718 201.111C175.119 201.118 181.52 200.807 187.891 200.182C188.569 200.115 189.088 199.497 189.26 198.839C189.432 198.18 189.331 197.485 189.229 196.811C189.175 196.459 189.09 196.058 188.78 195.883C188.589 195.775 188.356 195.781 188.137 195.791C180.994 196.104 173.851 196.417 166.709 196.73C166.489 196.74 166.254 196.754 166.077 196.884C165.778 197.102 165.767 197.536 165.784 197.905C165.833 198.951 165.968 200.156 166.84 200.735ZM253.299 169.278C253.869 169.704 254.753 169.799 255.254 169.294C259.598 164.904 263.941 160.515 268.285 156.126C268.484 155.925 268.696 155.696 268.71 155.413C268.722 155.15 268.559 154.915 268.403 154.702C267.781 153.854 267.158 153.006 266.536 152.158C266.191 151.687 265.458 152.094 265.05 152.511C260.661 156.994 256.386 161.589 252.23 166.29C252.094 166.444 251.952 166.608 251.911 166.81C251.86 167.062 251.975 167.315 252.088 167.547C252.398 168.187 252.729 168.852 253.299 169.278ZM239.252 249.826C237.832 243.018 236.91 236.106 236.495 229.163C236.457 228.518 235.772 228.068 235.126 228.053C234.48 228.038 233.874 228.341 233.299 228.635C233.096 228.739 232.883 228.853 232.768 229.049C232.637 229.272 232.663 229.55 232.693 229.806C233.417 236.036 234.141 242.266 234.865 248.496C235.026 249.872 235.37 251.502 236.659 252.011C237.944 252.518 239.534 251.179 239.252 249.826ZM264.49 203.303C269.385 204.379 274.28 205.455 279.175 206.53C279.516 206.605 279.892 206.676 280.201 206.513C280.382 206.417 280.516 206.251 280.633 206.082C281.158 205.33 281.471 204.391 281.314 203.487C281.158 202.583 280.462 201.749 279.557 201.596C275.092 200.84 270.628 200.084 266.163 199.328C265.216 199.168 264.225 199.01 263.312 199.307C262.399 199.604 261.608 200.515 261.79 201.457C262.01 202.595 263.358 203.054 264.49 203.303ZM156.718 195.352C156.303 195.918 156.13 196.623 156.022 197.316C155.585 200.147 156.131 203.121 157.546 205.612C157.98 206.377 158.62 207.171 159.498 207.211C160.255 207.245 160.936 206.67 161.248 205.98C161.56 205.29 161.575 204.506 161.551 203.749C161.478 201.376 161.076 199.013 160.362 196.749C160.056 195.778 159.53 194.682 158.527 194.508C157.836 194.388 157.132 194.787 156.718 195.352ZM272.803 144.123C271.849 143.529 270.537 144.483 270.362 145.594C270.188 146.705 270.761 147.784 271.345 148.745C272.08 149.953 272.928 151.187 274.207 151.792C275.486 152.396 277.297 152.09 277.89 150.806C278.539 149.401 277.459 147.819 276.321 146.769C275.241 145.772 274.05 144.901 272.803 144.123ZM214.954 156.22C214.512 152.73 213.919 149.26 213.177 145.822C213.029 145.14 212.783 144.35 212.121 144.129C211.458 143.908 210.735 144.444 210.498 145.102C210.262 145.759 210.38 146.485 210.507 147.172C211.1 150.367 211.838 153.535 212.72 156.663C212.933 157.42 213.435 158.357 214.204 158.193C214.964 158.03 215.051 156.991 214.954 156.22ZM232.034 258.381C231.711 259.304 231.894 260.458 232.675 261.045C233.879 258.315 236.423 256.215 239.332 255.551C242.241 254.886 245.444 255.673 247.714 257.609C248.205 258.028 249.004 257.357 248.92 256.717C248.837 256.077 248.258 255.629 247.703 255.301C243.479 252.802 237.749 253.15 233.858 256.141C233.084 256.736 232.357 257.459 232.034 258.381ZM205.097 222.691C204.28 222.91 203.692 223.604 203.159 224.261C201.063 226.846 198.967 229.431 196.871 232.016C196.585 232.368 196.287 232.75 196.251 233.202C196.214 233.654 196.577 234.163 197.025 234.096C197.263 234.06 197.45 233.88 197.62 233.709C200.476 230.839 203.333 227.969 206.189 225.099C206.535 224.751 206.903 224.357 206.93 223.866C206.975 223.021 205.915 222.473 205.097 222.691ZM240.657 257.818C239.096 258.025 237.531 258.46 236.241 259.363C235.805 259.668 235.374 260.081 235.335 260.613C235.292 261.18 235.735 261.696 236.262 261.911C236.789 262.126 237.38 262.101 237.946 262.044C240.86 261.753 243.693 260.683 246.072 258.975C244.655 257.699 242.546 257.568 240.657 257.818ZM277.632 154.108C275.131 154.681 272.365 153.924 270.506 152.157C268.647 150.39 267.75 147.666 268.195 145.14C268.313 144.468 268.521 143.802 268.485 143.122C267.221 144.061 266.723 145.785 266.916 147.349C267.108 148.912 267.89 150.342 268.78 151.642C269.419 152.576 270.129 153.475 271.007 154.19C272.619 155.502 274.776 156.124 276.839 155.871C278.079 155.718 279.444 155.085 279.728 153.868C279.039 153.694 278.325 153.949 277.632 154.108ZM207.305 140.315C208.321 140.416 209.357 140.308 210.33 140C211.097 139.757 211.864 139.354 212.272 138.66C212.679 137.966 212.578 136.934 211.889 136.518C211.485 136.274 210.981 136.283 210.51 136.324C209.363 136.422 208.228 136.661 207.139 137.032C206.221 137.345 205.172 138.027 205.321 138.985C205.453 139.834 206.45 140.23 207.305 140.315ZM284.513 200.169C283.935 200.781 283.598 201.578 283.317 202.371C282.419 204.911 281.985 207.614 282.043 210.308C282.062 211.197 282.421 212.362 283.309 212.326C283.924 212.301 284.336 211.629 284.346 211.014C284.356 210.399 284.088 209.82 283.908 209.232C283.129 206.684 284.019 203.887 285.474 201.655C285.961 200.908 286.519 200.185 286.777 199.331C285.954 199.157 285.09 199.557 284.513 200.169ZM187.388 168.013C186.795 167.534 185.883 167.071 185.353 167.619C184.772 168.221 185.43 169.183 186.063 169.731C188.352 171.71 191.621 173.86 194.083 175.619C194.492 175.131 194.474 174.392 194.205 173.815C193.936 173.239 193.461 172.789 192.993 172.358C191.465 170.952 189.003 169.318 187.388 168.013ZM191.612 236.742C191.35 236.576 191.065 236.415 190.756 236.415C190.19 236.416 189.752 236.986 189.715 237.551C189.678 238.115 189.943 238.654 190.248 239.131C191.078 240.429 192.268 241.494 193.649 242.177C194.2 242.449 194.918 242.642 195.383 242.241C195.994 241.715 195.618 240.714 195.144 240.062C194.189 238.747 192.984 237.614 191.612 236.742ZM286.399 209.175C286.969 209.363 287.439 208.71 287.662 208.154C288.312 206.53 288.73 204.813 288.898 203.072C288.918 202.868 288.934 202.656 288.865 202.462C288.708 202.014 288.137 201.821 287.68 201.948C287.222 202.075 286.869 202.437 286.586 202.817C285.412 204.398 285.103 206.584 285.793 208.428C285.909 208.739 286.084 209.071 286.399 209.175ZM163.841 203.71C164.246 199.951 163.446 196.071 161.587 192.78C160.932 193.031 161.07 193.986 161.307 194.646C162.465 197.868 163.088 201.28 163.146 204.703C163.593 204.72 163.793 204.155 163.841 203.71ZM213.195 139.623C211.315 141.521 208.286 142.177 205.79 141.225C205.52 141.437 205.601 141.899 205.862 142.122C206.123 142.345 206.486 142.394 206.828 142.427C208.388 142.582 209.995 142.623 211.492 142.157C212.989 141.69 214.374 140.641 214.904 139.165C214.537 138.587 213.677 139.137 213.195 139.623ZM193.988 234.592C193.836 234.472 193.67 234.351 193.476 234.332C193.147 234.3 192.838 234.643 192.906 234.967C194.664 236.53 196.172 238.376 197.352 240.411C197.505 240.675 197.961 240.533 198.061 240.245C198.162 239.958 198.031 239.645 197.894 239.373C196.961 237.52 195.618 235.876 193.988 234.592ZM178.571 167.623C179.541 166.441 181.999 162.836 180.95 162.836C179.327 162.836 177.453 165.73 177.236 167.425C177.21 167.627 177.203 167.852 177.328 168.013C177.637 168.409 178.252 168.012 178.571 167.623ZM182.339 163.999C182.103 164.297 182.093 164.707 182.05 165.085C181.957 165.888 181.663 166.667 181.201 167.331C180.848 167.84 179.704 168.591 179.47 169.294C179.296 169.816 179.915 170.451 180.203 170.198C181.891 168.714 183.011 166.597 183.288 164.366C183.302 164.25 183.314 164.129 183.275 164.019C183.147 163.661 182.575 163.701 182.339 163.999Z" fill="#00160A"/>
<path fill-rule="evenodd" clip-rule="evenodd" d="M192.012 195.412C192.277 189.907 193.802 184.524 195.903 179.437C198.015 174.323 200.813 169.338 205.058 165.831C213.026 159.251 224.439 159.123 234.55 161.158L234.894 161.228C240.655 162.418 246.487 164.294 250.893 168.229C256.203 172.971 258.753 180.035 261.104 186.791C261.254 187.225 261.146 187.869 260.903 188.147C261.03 188.294 261.121 188.427 261.173 188.54C261.951 190.244 262.146 196.518 261.9 198.378C261.135 204.158 257.797 209.257 254.071 213.708C250.163 218.377 245.628 222.664 240.142 225.243C233.322 228.449 225.326 228.779 218.108 226.648C211.03 224.557 204.704 220.192 199.806 214.618L198.506 213.128C194.951 209.665 191.781 200.215 192.012 195.412Z" fill="#D0DD58"/>
<path fill-rule="evenodd" clip-rule="evenodd" d="M102.119 141.041C102.459 140.914 102.835 141.092 102.96 141.44C103.084 141.787 102.91 142.172 102.571 142.3L102.292 142.402C101.347 142.735 100.212 143.026 97.6889 143.613L95.3984 144.149C94.8777 144.274 94.4682 144.376 94.0454 144.487C91.9918 145.027 91.2447 145.815 91.2787 146.984L91.2868 147.154C91.3408 147.941 91.6233 148.696 92.4923 150.452L93.2337 151.927C93.6082 152.675 93.8556 153.202 94.0862 153.758C94.987 155.929 95.1911 157.669 94.4773 159.255C93.2201 162.048 91.496 162.679 87.4023 162.78L86.8765 162.791C84.1079 162.849 82.8193 163.136 81.7075 164.213C81.1907 164.714 80.8711 165.196 80.6995 165.694C80.4633 166.38 80.4714 166.9 80.709 168.338L80.7762 168.735C81.2237 171.327 81.1695 172.914 80.1752 175.116C79.7048 176.158 78.9273 176.625 77.1596 177.266L76.4738 177.516C74.8037 178.141 73.9943 178.743 73.5955 179.896C73.0409 181.499 73.4344 184.11 75.0535 188.07C75.1931 188.412 75.036 188.805 74.7025 188.948C74.3689 189.091 73.9854 188.93 73.8457 188.588L73.6339 188.062C70.7959 180.879 71.7558 177.974 75.7315 176.37L76.3977 176.119L76.7227 176.002C78.1585 175.481 78.7201 175.144 78.9868 174.553C79.8146 172.72 79.8875 171.415 79.5299 169.225L79.4131 168.533C79.1403 166.876 79.1318 166.215 79.4646 165.248C79.7086 164.539 80.1459 163.88 80.8079 163.239C82.1924 161.898 83.6797 161.535 86.5821 161.457L87.6012 161.433C91.052 161.329 92.3314 160.819 93.2882 158.693C93.8141 157.525 93.6516 156.14 92.8811 154.283L92.7604 153.998C92.5331 153.475 92.2663 152.926 91.8543 152.114L91.2995 151.009C90.2778 148.944 90.0022 148.139 89.9698 147.024C89.9154 145.147 91.1268 143.869 93.7201 143.188L94.3713 143.021C94.5502 142.976 94.7368 142.931 94.939 142.882L98.5141 142.043C100.425 141.589 101.325 141.34 102.119 141.041Z" fill="#313131"/>
<path fill-rule="evenodd" clip-rule="evenodd" d="M245.798 166.027C246.322 165.901 246.848 166.227 246.973 166.756C247.098 167.284 246.774 167.814 246.25 167.94C242.333 168.879 241.407 168.806 242.001 170.811L242.036 170.923C242.188 171.4 242.404 171.886 242.75 172.555L243.497 173.971C244.264 175.447 244.355 175.803 244.294 176.587C244.176 178.093 242.873 178.748 240.509 178.783L240.221 178.784L239.619 178.767C238.021 178.724 236.582 178.753 235.155 178.919C232.729 179.201 231.145 179.839 230.782 180.69C230.28 181.866 230.467 182.882 231.353 184.539L231.785 185.314L231.901 185.517C233.766 188.786 234.175 190.656 232.721 193.345C231.306 195.962 229.615 196.622 225.874 196.799L224.879 196.837C222.253 196.943 220.96 197.326 219.843 198.605C218.355 200.309 218.326 201.359 219.169 203.538L219.374 204.078C219.762 205.118 219.865 205.571 219.848 206.278C219.835 206.769 219.725 207.24 219.506 207.694C218.904 208.944 217.867 209.74 215.91 210.734L215.333 211.02C215.092 211.137 214.598 211.377 214.447 211.451L214.093 211.629C212.857 212.261 212.284 212.701 212.133 213.119C211.466 214.962 212.521 218.626 214.819 223.602C215.047 224.094 214.835 224.679 214.346 224.908C213.857 225.137 213.277 224.924 213.05 224.431C210.552 219.027 209.411 214.899 210.299 212.446C210.678 211.397 211.502 210.746 213.186 209.887L214.006 209.482C214.249 209.364 214.512 209.237 214.589 209.199C216.459 208.284 217.361 207.642 217.749 206.836C217.845 206.638 217.891 206.443 217.896 206.229C217.906 205.843 217.829 205.525 217.523 204.705L217.349 204.251C216.27 201.458 216.319 199.663 218.377 197.306C219.897 195.566 221.588 195.029 224.537 194.885L225.327 194.853C228.77 194.732 229.969 194.324 231.006 192.405C231.986 190.593 231.792 189.366 230.45 186.927L229.751 185.686C228.511 183.433 228.172 181.827 228.988 179.914C229.729 178.177 231.844 177.324 234.931 176.966C236.298 176.807 237.651 176.765 239.116 176.789L240.304 176.818C241.236 176.818 241.861 176.722 242.194 176.564C242.317 176.507 242.339 176.493 242.345 176.455L242.347 176.434C242.37 176.147 242.259 175.834 241.708 174.773L241.232 173.869C240.713 172.896 240.404 172.232 240.178 171.525C239.135 168.267 240.781 167.23 245.798 166.027Z" fill="#313131"/>
<path fill-rule="evenodd" clip-rule="evenodd" d="M212.468 167C215.427 167 216.641 169.169 215.178 171.844C213.716 174.519 210.878 176.688 208.839 176.688C206.801 176.688 205.588 174.519 206.129 171.844C206.67 169.169 209.508 167 212.468 167ZM212.468 168.384C210.148 168.384 207.892 170.108 207.485 172.118C207.099 174.03 207.812 175.304 208.839 175.304C210.299 175.304 212.722 173.452 213.964 171.18C214.931 169.411 214.357 168.384 212.468 168.384Z" fill="#313131"/>
<path fill-rule="evenodd" clip-rule="evenodd" d="M231.004 208C233.964 208 236.814 209.859 237.047 212.152C236.926 214.445 234.187 216.304 231.251 216.304C228.316 216.304 226.022 214.445 226.007 212.152C225.861 209.859 228.045 208 231.004 208ZM231.004 209.384C228.842 209.384 227.359 210.588 227.385 211.977L227.391 212.143C227.4 213.615 229.037 214.92 231.251 214.92C233.483 214.92 235.434 213.606 235.648 212.242L235.655 212.185L235.645 212.128C235.365 210.758 233.363 209.437 231.138 209.386L231.004 209.384Z" fill="#313131"/>
<path fill-rule="evenodd" clip-rule="evenodd" d="M69.0889 145.022C68.5338 141.92 70.6362 139.687 73.7847 140.036C76.9333 140.384 79.0357 142.617 78.4805 145.022C77.9254 147.427 75.823 149.659 73.7847 150.008C71.7464 150.356 69.644 148.124 69.0889 145.022ZM73.6832 140.953C71.1458 140.672 69.5509 142.366 69.9972 144.859C70.4737 147.523 72.1897 149.345 73.6293 149.098C75.278 148.817 77.1057 146.876 77.5815 144.814C77.9973 143.013 76.3332 141.246 73.6832 140.953Z" fill="#313131"/>
<path fill-rule="evenodd" clip-rule="evenodd" d="M59.3827 157.078C61.421 156.56 63.2176 158.675 63.3956 161.804C63.5735 164.933 62.0654 167.312 60.0271 167.118C57.9888 166.925 56.1922 164.809 56.0143 162.393C55.8363 159.976 57.3444 157.597 59.3827 157.078ZM62.4744 161.856C62.3251 159.231 60.9639 157.628 59.6102 157.972C58.0294 158.375 56.7878 160.334 56.9344 162.325C57.0812 164.318 58.5538 166.052 60.1143 166.2C61.4631 166.328 62.6245 164.495 62.4744 161.856Z" fill="#313131"/>
<path fill-rule="evenodd" clip-rule="evenodd" d="M84.4078 173.009C87.2285 172.854 88.7515 174.716 87.8095 177.168C86.8675 179.621 84.4514 181.734 82.4131 181.89C80.3748 182.045 78.8519 180.182 79.0115 177.73C79.1711 175.278 81.5871 173.164 84.4078 173.009ZM86.9482 176.838C87.64 175.037 86.6372 173.811 84.4585 173.93C82.0816 174.061 80.0598 175.83 79.9322 177.79C79.8064 179.723 80.9147 181.078 82.3431 180.969C83.9945 180.844 86.1253 178.98 86.9482 176.838Z" fill="#313131"/>
<path fill-rule="evenodd" clip-rule="evenodd" d="M102.058 155.078C104.486 154.605 106.296 156.339 106.101 158.951C105.907 161.563 104.096 164.063 102.058 164.536C100.02 165.008 98.2092 163.274 98.0144 160.662C97.8195 158.05 99.6298 155.55 102.058 155.078ZM105.181 158.882C105.332 156.861 104.048 155.63 102.234 155.983C100.275 156.364 98.7737 158.438 98.9345 160.594C99.0909 162.69 100.424 163.967 101.85 163.637C103.461 163.263 105.015 161.118 105.181 158.882Z" fill="#313131"/>
<path fill-rule="evenodd" clip-rule="evenodd" d="M246.004 184C248.964 184 251.814 185.859 252.047 188.152C251.926 190.445 249.187 192.304 246.251 192.304C243.316 192.304 241.022 190.445 241.007 188.152C240.861 185.859 243.045 184 246.004 184ZM246.004 185.384C243.842 185.384 242.359 186.588 242.385 187.977L242.391 188.143C242.4 189.615 244.037 190.92 246.251 190.92C248.483 190.92 250.434 189.606 250.648 188.242L250.655 188.185L250.645 188.128C250.365 186.758 248.363 185.437 246.138 185.386L246.004 185.384Z" fill="#313131"/>
<path fill-rule="evenodd" clip-rule="evenodd" d="M199.971 191.603C202.319 190.152 204.58 191.39 204.765 194.567C204.669 197.867 202.496 200.886 200.167 201.287C197.838 201.688 196.017 200.221 196.005 198.028C195.89 195.893 197.623 193.054 199.971 191.603ZM203.38 194.586L203.376 194.53C203.219 192.507 202.133 191.894 200.698 192.78C198.808 193.948 197.367 196.247 197.384 197.843L197.389 198.021C197.397 199.353 198.443 200.179 199.932 199.923C201.555 199.643 203.242 197.254 203.376 194.671L203.38 194.586Z" fill="#313131"/>
</svg>
