<svg width="478" height="502" viewBox="0 0 478 502" fill="none" xmlns="http://www.w3.org/2000/svg">
<path d="M0 239C0 107.004 107.004 0 239 0C370.996 0 478 107.004 478 239C478 370.996 370.996 478 239 478C107.004 478 0 370.996 0 239Z" fill="#66C4CD"/>
<path fill-rule="evenodd" clip-rule="evenodd" d="M227.278 357.101C168.318 344.197 89.7612 318.59 102.67 230.726C115.579 142.862 170.917 108.984 239.379 108.984C307.838 108.984 385.619 160.634 370.35 267.632C355.081 374.63 286.237 370.005 227.278 357.101ZM421.073 251.187C423.508 226.738 420.921 202.548 413.972 179.871L433.798 169.251C437.14 167.462 438.397 163.303 436.61 159.963L409.543 109.429C407.751 106.088 403.592 104.831 400.25 106.62L380.424 117.24C365.394 98.8944 346.69 83.3376 324.993 71.8169L331.497 50.2976C332.596 46.6701 330.544 42.8407 326.915 41.744L272.042 25.1514C268.413 24.0547 264.586 26.1061 263.487 29.7336L256.984 51.2529C232.532 48.8189 214.717 57.7789 192.04 64.7236L181.419 44.8972C179.631 41.5565 175.472 40.2992 172.131 42.0885L121.598 69.1576C118.257 70.9469 117 75.1053 118.789 78.4455L129.409 98.2724C111.063 113.302 89.1332 125.633 77.6125 147.333L56.0928 140.827C52.4657 139.73 48.6359 141.781 47.5392 145.408L30.9471 200.282C29.8504 203.909 31.9018 207.739 35.5288 208.836L57.0485 215.343C54.6146 239.791 57.2013 263.982 64.1459 286.658L44.3196 297.279C40.9789 299.068 39.7216 303.226 41.5109 306.567L68.5799 357.101C70.3692 360.441 74.5276 361.699 77.8678 359.909L97.6947 349.289C112.724 367.635 131.428 383.192 153.129 394.713L146.622 416.232C145.525 419.859 147.577 423.689 151.204 424.786L206.078 441.375C209.702 442.474 213.534 440.423 214.633 436.794L221.137 415.277C245.583 417.711 269.777 415.124 292.454 408.179L303.071 428.006C304.863 431.346 309.022 432.601 312.364 430.814L362.898 403.745C366.234 401.956 367.496 397.797 365.704 394.457L355.081 374.63C373.431 359.601 388.985 340.896 400.509 319.196L422.026 325.703C425.655 326.799 429.487 324.748 430.58 321.121L447.171 266.247C448.27 262.62 446.219 258.79 442.59 257.694L421.073 251.187Z" fill="#E47C61"/>
<path fill-rule="evenodd" clip-rule="evenodd" d="M339.119 150.065L337.209 150L337.155 151.698C337.064 154.753 337.106 158.021 337.151 161.584C337.183 164.067 337.217 166.693 337.209 169.49L336.891 175.015C336.9 180.161 336.936 187.324 337 196.505L337.208 222.638C335.803 223.104 334.747 224.316 334.536 225.791C333.377 225.968 332.488 226.952 332.488 228.136C332.488 228.973 332.934 229.711 333.605 230.133L332.788 232.109C332.425 232.987 331.826 233.737 331.055 234.279C327.678 236.655 325.69 240.502 325.737 244.572C325.738 244.68 325.741 244.788 325.745 244.895C325.76 245.285 326.094 245.586 326.493 245.575C326.891 245.561 327.202 245.233 327.187 244.843C327.184 244.747 327.181 244.652 327.18 244.556C327.138 240.947 329.539 237.535 332.534 235.428C333.527 234.729 334.297 233.765 334.763 232.64L335.007 230.508H336.033C336.033 230.508 336.39 232.427 336.39 233.927C336.39 235.426 336.033 238.397 336.033 238.397H334.851C333.496 238.397 332.394 239.477 332.394 240.804C332.394 242.13 333.496 243.21 334.851 243.21H335.02C336.375 243.21 336.839 242.517 336.839 240.804C336.839 239.907 336.938 239.265 338.402 239.265C339.866 239.265 339.489 240.804 339.489 240.804C339.489 242.13 340.591 243.21 341.945 243.21H342.115C343.469 243.21 344.571 242.13 344.571 240.804C344.571 239.477 342.286 238.354 340.932 238.354C340.932 238.354 340.571 235.655 340.571 234.279C340.571 233.12 340.932 230.749 340.932 230.749H339.489C339.489 230.749 339.79 232.962 339.79 234.312C339.79 235.663 339.489 238.354 339.489 238.354C339.489 238.354 338.693 238.498 338.314 238.506C337.934 238.514 337.477 238.397 337.477 238.397C337.477 238.397 337.16 235.637 337.16 234.312C337.16 232.987 337.477 230.508 337.477 230.508H339.489H340.932H341.958L342.84 232.639C343.282 233.71 344.609 234.65 345.619 235.366L345.747 235.457C348.675 237.536 349.786 240.89 349.786 244.427C349.786 247.415 348.589 250.216 346.416 252.314C344.244 254.411 341.368 256.179 338.314 256.135C335.892 256.101 333.416 254.767 331.481 253.321C329.607 251.92 327.18 248.09 326.776 247.206C326.372 246.322 326.182 247.717 326.299 248.09C327.077 250.555 328.668 252.782 330.779 254.359C332.962 255.99 335.56 256.873 338.292 256.912C341.736 256.96 344.98 255.686 347.429 253.321C349.88 250.955 351.229 247.797 351.229 244.427C351.229 240.438 349.258 236.657 345.957 234.312C345.153 233.741 344.537 232.979 344.177 232.108L343.36 230.133C344.031 229.711 344.478 228.974 344.478 228.136C344.478 226.952 343.588 225.968 342.429 225.791C342.191 224.128 340.879 222.799 339.204 222.497L339.112 222.497L338.005 198.195C337.939 188.945 338.804 170.456 338.804 170.456C338.819 163.346 338.907 157.113 339.066 151.756L339.119 150.065ZM341.945 241.796C341.386 241.796 340.932 241.351 340.932 240.804V239.265C340.932 239.265 343.128 239.705 343.128 240.804C343.128 241.812 342.745 241.805 342.251 241.798L342.249 241.798C342.205 241.797 342.16 241.796 342.115 241.796H341.945ZM333.285 240.804C333.379 242.186 336.246 242.788 336.033 240.804V239.265C336.033 239.265 333.192 239.421 333.285 240.804ZM336.008 225.763C336.273 224.665 337.282 223.845 338.483 223.845C339.683 223.845 340.692 224.665 340.958 225.763H336.008ZM342.056 227.177H341.747H335.218H334.91C334.37 227.177 333.931 227.607 333.931 228.136C333.931 228.664 334.37 229.094 334.91 229.094H342.056C342.595 229.094 343.035 228.664 343.035 228.136C343.035 227.607 342.595 227.177 342.056 227.177ZM354.423 233.332H355.684C356.04 233.332 356.328 233.046 356.328 232.694C356.328 232.342 356.04 232.057 355.684 232.057H354.423C354.067 232.057 353.779 232.342 353.779 232.694C353.779 233.046 354.067 233.332 354.423 233.332ZM353.42 237.844L354.634 238.354C354.976 238.498 355.142 238.906 355.005 239.265C354.868 239.624 354.479 239.798 354.137 239.655L352.923 239.144C352.581 239 352.415 238.592 352.552 238.233C352.657 237.959 352.907 237.793 353.172 237.793C353.255 237.793 353.339 237.809 353.42 237.844ZM352.337 227.45L353.474 226.538C353.795 226.281 353.875 225.771 353.653 225.399C353.516 225.17 353.296 225.046 353.072 225.046C352.933 225.046 352.793 225.094 352.671 225.192L351.534 226.104C351.213 226.362 351.133 226.871 351.355 227.243C351.577 227.615 352.017 227.707 352.337 227.45ZM321.905 233.332H320.644C320.288 233.332 320 233.046 320 232.694C320 232.342 320.288 232.057 320.644 232.057H321.905C322.261 232.057 322.549 232.342 322.549 232.694C322.549 233.046 322.261 233.332 321.905 233.332ZM322.908 237.844L321.694 238.354C321.352 238.498 321.186 238.906 321.323 239.265C321.46 239.624 321.849 239.798 322.191 239.655L323.405 239.144C323.747 239 323.913 238.592 323.776 238.233C323.671 237.959 323.421 237.793 323.156 237.793C323.073 237.793 322.989 237.809 322.908 237.844ZM323.991 227.45L322.854 226.538C322.533 226.281 322.453 225.771 322.675 225.399C322.812 225.17 323.032 225.046 323.256 225.046C323.395 225.046 323.535 225.094 323.657 225.192L324.794 226.104C325.115 226.361 325.195 226.871 324.973 227.243C324.751 227.615 324.312 227.707 323.991 227.45Z" fill="white"/>
<path fill-rule="evenodd" clip-rule="evenodd" d="M338.119 149.065L336.209 149L336.155 150.698C336.064 153.753 336.106 157.021 336.151 160.584C336.183 163.067 336.217 165.693 336.209 168.49L335.891 174.015C335.9 179.161 335.936 186.324 336 195.505L336.208 221.638C334.803 222.104 333.747 223.316 333.536 224.791C332.377 224.968 331.488 225.952 331.488 227.136C331.488 227.973 331.934 228.711 332.605 229.133L331.788 231.109C331.425 231.987 330.826 232.737 330.055 233.279C326.678 235.655 324.69 239.502 324.737 243.572C324.738 243.68 324.741 243.788 324.745 243.895C324.76 244.285 325.094 244.586 325.493 244.575C325.891 244.561 326.202 244.233 326.187 243.843C326.184 243.747 326.181 243.652 326.18 243.556C326.138 239.947 328.539 236.535 331.534 234.428C332.527 233.729 333.297 232.765 333.763 231.64L334.007 229.508H335.033C335.033 229.508 335.39 231.427 335.39 232.927C335.39 234.426 335.033 237.397 335.033 237.397H333.851C332.496 237.397 331.394 238.477 331.394 239.804C331.394 241.13 332.496 242.21 333.851 242.21H334.02C335.375 242.21 335.839 241.517 335.839 239.804C335.839 238.907 335.938 238.265 337.402 238.265C338.866 238.265 338.489 239.804 338.489 239.804C338.489 241.13 339.591 242.21 340.945 242.21H341.115C342.469 242.21 343.571 241.13 343.571 239.804C343.571 238.477 341.286 237.354 339.932 237.354C339.932 237.354 339.571 234.655 339.571 233.279C339.571 232.12 339.932 229.749 339.932 229.749H338.489C338.489 229.749 338.79 231.962 338.79 233.312C338.79 234.663 338.489 237.354 338.489 237.354C338.489 237.354 337.693 237.498 337.314 237.506C336.934 237.514 336.477 237.397 336.477 237.397C336.477 237.397 336.16 234.637 336.16 233.312C336.16 231.987 336.477 229.508 336.477 229.508H338.489H339.932H340.958L341.84 231.639C342.282 232.71 343.609 233.65 344.619 234.366L344.747 234.457C347.675 236.536 348.786 239.89 348.786 243.427C348.786 246.415 347.589 249.216 345.416 251.314C343.244 253.411 340.368 255.179 337.314 255.135C334.892 255.101 332.416 253.767 330.481 252.321C328.607 250.92 326.18 247.09 325.776 246.206C325.372 245.322 325.182 246.717 325.299 247.09C326.077 249.555 327.668 251.782 329.779 253.359C331.962 254.99 334.56 255.873 337.292 255.912C340.736 255.96 343.98 254.686 346.429 252.321C348.88 249.955 350.229 246.797 350.229 243.427C350.229 239.438 348.258 235.657 344.957 233.312C344.153 232.741 343.537 231.979 343.177 231.108L342.36 229.133C343.031 228.711 343.478 227.974 343.478 227.136C343.478 225.952 342.588 224.968 341.429 224.791C341.191 223.128 339.879 221.799 338.204 221.497L338.112 221.497L337.005 197.195C336.939 187.945 337.804 169.456 337.804 169.456C337.819 162.346 337.907 156.113 338.066 150.756L338.119 149.065ZM340.945 240.796C340.386 240.796 339.932 240.351 339.932 239.804V238.265C339.932 238.265 342.128 238.705 342.128 239.804C342.128 240.812 341.745 240.805 341.251 240.798L341.249 240.798C341.205 240.797 341.16 240.796 341.115 240.796H340.945ZM332.285 239.804C332.379 241.186 335.246 241.788 335.033 239.804V238.265C335.033 238.265 332.192 238.421 332.285 239.804ZM335.008 224.763C335.273 223.665 336.282 222.845 337.483 222.845C338.683 222.845 339.692 223.665 339.958 224.763H335.008ZM341.056 226.177H340.747H334.218H333.91C333.37 226.177 332.931 226.607 332.931 227.136C332.931 227.664 333.37 228.094 333.91 228.094H341.056C341.595 228.094 342.035 227.664 342.035 227.136C342.035 226.607 341.595 226.177 341.056 226.177ZM353.423 232.332H354.684C355.04 232.332 355.328 232.046 355.328 231.694C355.328 231.342 355.04 231.057 354.684 231.057H353.423C353.067 231.057 352.779 231.342 352.779 231.694C352.779 232.046 353.067 232.332 353.423 232.332ZM352.42 236.844L353.634 237.354C353.976 237.498 354.142 237.906 354.005 238.265C353.868 238.624 353.479 238.798 353.137 238.655L351.923 238.144C351.581 238 351.415 237.592 351.552 237.233C351.657 236.959 351.907 236.793 352.172 236.793C352.255 236.793 352.339 236.809 352.42 236.844ZM351.337 226.45L352.474 225.538C352.795 225.281 352.875 224.771 352.653 224.399C352.516 224.17 352.296 224.046 352.072 224.046C351.933 224.046 351.793 224.094 351.671 224.192L350.534 225.104C350.213 225.362 350.133 225.871 350.355 226.243C350.577 226.615 351.017 226.707 351.337 226.45ZM320.905 232.332H319.644C319.288 232.332 319 232.046 319 231.694C319 231.342 319.288 231.057 319.644 231.057H320.905C321.261 231.057 321.549 231.342 321.549 231.694C321.549 232.046 321.261 232.332 320.905 232.332ZM321.908 236.844L320.694 237.354C320.352 237.498 320.186 237.906 320.323 238.265C320.46 238.624 320.849 238.798 321.191 238.655L322.405 238.144C322.747 238 322.913 237.592 322.776 237.233C322.671 236.959 322.421 236.793 322.156 236.793C322.073 236.793 321.989 236.809 321.908 236.844ZM322.991 226.45L321.854 225.538C321.533 225.281 321.453 224.771 321.675 224.399C321.812 224.17 322.032 224.046 322.256 224.046C322.395 224.046 322.535 224.094 322.657 224.192L323.794 225.104C324.115 225.361 324.195 225.871 323.973 226.243C323.751 226.615 323.312 226.707 322.991 226.45Z" fill="#F7EC51"/>
<path d="M238.199 331.33C246.645 333.553 250.979 338.844 254.64 343.771C258.308 348.698 250.244 346.354 245.795 344.576C241.346 342.797 230.633 336.22 230.633 336.22L195.116 325.478V309.051L205.738 308.43C205.738 308.43 229.745 329.106 238.199 331.33Z" fill="white"/>
<path d="M201.397 211.018C208.993 239.768 212.914 267.277 213.534 293.666C213.534 293.666 220.648 294.556 219.76 300.78C218.872 307.005 200.195 323.901 200.195 323.901L193.724 302.452L191.304 223.415L201.397 211.018Z" fill="white"/>
<path fill-rule="evenodd" clip-rule="evenodd" d="M202.873 225.233L199.242 222.825C199.01 222.672 198.704 222.791 198.621 223.068L197.355 227.273C197.25 227.623 197.565 227.951 197.891 227.831L202.787 226.035C203.121 225.912 203.172 225.432 202.873 225.233ZM202.433 225.928L197.972 227.219L199.3 223.395L202.433 225.928Z" fill="#F7EC51"/>
<path fill-rule="evenodd" clip-rule="evenodd" d="M200.958 261.608L197.328 259.2C197.096 259.046 196.79 259.165 196.707 259.442L195.441 263.647C195.335 263.997 195.65 264.325 195.977 264.205L200.873 262.409C201.207 262.286 201.258 261.806 200.958 261.608ZM200.519 262.303L196.057 263.593L197.385 259.769L200.519 262.303Z" fill="#F7EC51"/>
<path fill-rule="evenodd" clip-rule="evenodd" d="M198.797 281.579L199.067 277.231C199.084 276.954 198.828 276.749 198.546 276.815L194.272 277.821C193.916 277.904 193.789 278.341 194.056 278.564L198.06 281.906C198.333 282.134 198.774 281.938 198.797 281.579ZM197.975 281.546L194.627 278.328L198.602 277.566L197.975 281.546Z" fill="#F7EC51"/>
<path fill-rule="evenodd" clip-rule="evenodd" d="M207.085 278.633L202.737 278.363C202.46 278.346 202.255 278.602 202.321 278.884L203.327 283.158C203.41 283.514 203.847 283.641 204.07 283.374L207.412 279.37C207.64 279.097 207.444 278.655 207.085 278.633ZM207.052 279.455L203.834 282.803L203.072 278.827L207.052 279.455Z" fill="#F7EC51"/>
<path fill-rule="evenodd" clip-rule="evenodd" d="M203.184 305.31L199.283 307.25C199.034 307.374 198.985 307.699 199.183 307.909L202.191 311.108C202.442 311.375 202.883 311.266 202.943 310.923L203.835 305.785C203.896 305.434 203.506 305.15 203.184 305.31ZM203.566 306.038L202.453 310.547L199.805 307.485L203.566 306.038Z" fill="#F7EC51"/>
<path fill-rule="evenodd" clip-rule="evenodd" d="M205.481 290.76L201.581 292.7C201.332 292.824 201.282 293.149 201.48 293.36L204.489 296.558C204.739 296.825 205.181 296.716 205.24 296.373L206.133 291.235C206.194 290.884 205.803 290.6 205.481 290.76ZM205.864 291.489L204.75 295.997L202.103 292.935L205.864 291.489Z" fill="#F7EC51"/>
<path d="M175.929 228.307L170.776 243.864C158.996 279.495 153.195 297.58 153.021 299.276C152.913 300.329 153.552 301.116 154.536 301.384C155.128 301.545 155.852 301.536 156.751 301.403C158.15 301.195 160.02 300.671 162.279 299.891C164.024 299.288 165.91 298.564 167.821 297.782L168.625 297.45C168.886 297.341 169.14 297.235 169.386 297.13L170.663 296.58L171.027 296.419L171.239 296.082C171.616 295.483 172.152 294.423 172.681 292.97C173.146 291.693 173.516 290.326 173.76 288.881L173.845 288.336C173.921 287.805 174.649 286.578 176.151 284.481L177.198 283.049C178.056 281.892 179.708 279.681 179.874 279.457L180.845 278.142C181.773 276.877 182.583 275.747 183.375 274.607C187.346 268.89 190.152 263.887 191.807 259.071C193.211 254.987 193.703 251.202 193.147 247.723C192.296 242.412 192.622 237.337 193.865 232.574C194.898 228.617 191.631 224.966 186.923 223.624C182.057 222.237 177.422 223.808 175.929 228.307Z" fill="white"/>
<path d="M184.554 205.3C187.424 208.346 189.832 210.669 191.779 212.269C195.057 214.964 199.757 217.852 205.878 220.934C187.155 225.269 175.722 226.126 171.58 223.505C171.58 223.505 173.305 215.386 175.784 211.908C177.63 209.318 184.554 205.3 184.554 205.3Z" fill="white"/>
<path d="M214.337 166.161C210.447 180.936 199.818 196.36 188.5 193.382C177.182 190.402 170.918 170.208 174.808 155.433C178.698 140.658 191.027 131.096 202.345 134.075C213.663 137.054 218.227 151.387 214.337 166.161Z" fill="white"/>
<path d="M221.044 168.341C216.641 185.25 204.612 202.902 191.804 199.493C178.995 196.083 171.906 172.973 176.309 156.065C180.711 139.156 194.664 128.213 207.472 131.622C220.281 135.031 225.446 151.434 221.044 168.341Z" fill="white"/>
<path fill-rule="evenodd" clip-rule="evenodd" d="M196.485 136.098C205.213 136.594 211.583 139.461 215.154 144.514L215.557 145.098C217.323 147.647 218.808 149.251 219.457 154.075L219.52 154.588C219.891 157.761 219.999 161.109 219.809 162.22C219.706 162.689 219.504 162.853 219.25 162.803C218.673 162.691 217.18 160.036 214.769 154.839L212.746 157.208C211.645 158.479 209.31 159.678 207.926 160.579C206.542 161.481 196.485 136.098 196.485 136.098Z" fill="#E7EAEE"/>
<path d="M261.802 462.538L261.539 478.758H252.313L249.55 460.147L261.802 462.538Z" fill="white"/>
<path d="M160.761 376.285C160.761 376.285 220.624 374.963 239.442 372.249C260.332 369.236 271.756 362.115 276.299 362.957C278.428 363.351 290.993 365.578 317.213 368.367C328.302 369.546 357.086 369.727 357.086 369.727L368.258 345.949C368.258 345.949 289.641 330.165 264.785 336.996C256.967 339.145 240.036 342.246 219.906 341.114C202.5 340.134 155.158 330.939 155.158 330.939C155.158 330.939 136.043 337.801 139.503 354.674C142.963 371.548 160.761 376.285 160.761 376.285Z" fill="white"/>
<path fill-rule="evenodd" clip-rule="evenodd" d="M361.853 356.122L365.533 345.467C365.533 345.467 287.048 330.827 262.192 337.658C254.374 339.807 247.309 343.35 227.179 342.218C219.473 341.785 206.297 339.981 187.652 336.807C178.22 335.202 176.705 335.796 184.118 340.644C201.308 351.885 239.546 349.236 274.239 344.17C338.719 334.756 361.853 356.122 361.853 356.122Z" fill="#E7EAEE"/>
<path d="M251.388 466.22C247.483 470.536 242.306 477.642 244.971 484.756L291.216 498.984C291.216 498.984 292.992 493.647 290.327 489.205C287.655 484.756 262.424 467.203 262.424 467.203L251.388 466.22Z" fill="white"/>
<path fill-rule="evenodd" clip-rule="evenodd" d="M272.734 475.858C273.04 475.775 273.355 475.956 273.438 476.262C273.521 476.568 273.34 476.884 273.034 476.966C271.528 477.375 270.535 478.326 270.186 479.531C269.735 481.089 269.686 482.683 270.198 485.233C270.26 485.544 270.059 485.847 269.748 485.909C269.437 485.972 269.134 485.77 269.072 485.459C268.524 482.732 268.579 480.952 269.083 479.212C269.545 477.616 270.845 476.369 272.734 475.858Z" fill="#E7EAEE"/>
<path fill-rule="evenodd" clip-rule="evenodd" d="M247.268 485.522L292.763 498.909C292.763 498.909 298.542 497.694 292.567 496.845C286.429 495.973 250.489 479.515 246.536 482.513C245.974 482.939 246.92 484.593 247.268 485.522Z" fill="#E7EAEE"/>
<path d="M133.906 372.892C133.906 372.892 154.435 379.371 170.967 381.8C187.498 384.229 220.473 385.612 220.473 385.612C220.473 385.612 230.768 391.208 231.432 393.8C231.691 394.809 233.251 408.148 237.564 425.188C239.593 433.204 250.435 469.452 250.435 469.452L264.785 463.1C264.785 463.1 264.209 396.476 255.048 374.379C245.888 352.281 151.727 330.819 151.727 330.819C151.727 330.819 131.743 327.204 126.302 343.547C120.862 359.89 133.906 372.892 133.906 372.892Z" fill="white"/>
<path fill-rule="evenodd" clip-rule="evenodd" d="M252.732 467.155L267.082 460.803C266.698 416.387 263.453 386.813 257.346 372.082C257.346 372.082 263.587 450.505 252.732 467.155Z" fill="#E7EAEE"/>
<path d="M377.868 356.997C381.44 361.592 387.539 367.924 395.008 366.535L417.05 323.464C417.05 323.464 411.378 320.955 406.542 322.808C401.696 324.667 380.389 346.902 380.389 346.902L377.868 356.997Z" fill="white"/>
<path fill-rule="evenodd" clip-rule="evenodd" d="M282.128 483.506C282.357 483.287 282.721 483.294 282.94 483.523C283.16 483.752 283.152 484.116 282.923 484.335C281.588 485.614 281.341 487.757 282.106 489.05C282.268 489.323 282.178 489.675 281.905 489.837C281.632 489.998 281.279 489.908 281.118 489.635C280.085 487.891 280.401 485.161 282.128 483.506Z" fill="#E7EAEE"/>
<path fill-rule="evenodd" clip-rule="evenodd" d="M277.437 479.719C277.668 479.502 278.031 479.513 278.248 479.744C278.466 479.975 278.454 480.339 278.223 480.556L277.912 480.855C275.497 483.231 274.805 485.309 276.931 487.539C277.15 487.768 277.142 488.132 276.912 488.351C276.683 488.57 276.319 488.561 276.1 488.331C274.529 486.684 274.206 484.905 274.902 483.124C275.382 481.895 276.218 480.864 277.437 479.719Z" fill="#E7EAEE"/>
<path fill-rule="evenodd" clip-rule="evenodd" d="M255.331 478.967C256.65 481.486 263.649 480.452 262.431 473.482C261.855 470.184 251.68 471.987 255.331 478.967Z" fill="#E7EAEE"/>
<path fill-rule="evenodd" clip-rule="evenodd" d="M390.638 367.336C399.888 356.766 405.204 332.995 412.821 324.815C415.509 321.928 418.997 321.28 415.243 328.115C408.375 340.622 395.175 367.336 395.175 367.336C394.476 367.686 393.612 367.336 392.831 367.336H390.638Z" fill="#E7EAEE"/>
<path d="M238.199 331.33C246.645 333.553 250.979 338.844 254.64 343.772C258.308 348.698 250.244 346.354 245.795 344.576C241.346 342.797 232.835 336.048 232.835 336.048L238.199 331.33Z" fill="white"/>
<path d="M161.262 311.322C161.262 311.322 208.808 331.748 215.509 331.774C222.202 331.802 238.628 339.778 239.516 346.003C240.596 353.575 211.948 342.445 211.948 342.445C211.948 342.445 147.922 342.445 137.255 331.774C126.581 321.103 133.694 298.872 133.694 298.872L161.262 311.322Z" fill="white"/>
<path d="M149.699 216.173C149.699 216.173 161.262 223.286 163.038 246.407C164.815 269.527 157.701 297.094 157.701 297.094C157.701 297.094 162.15 300.651 163.038 304.208C163.927 307.765 161.223 312.46 161.223 312.46C161.223 312.46 134.584 325.55 132.805 326.439C131.027 327.328 123.913 324.66 123.913 317.546C123.913 310.433 126.581 304.208 126.581 304.208C127.857 257.278 120.356 211.726 149.699 216.173Z" fill="white"/>
<path fill-rule="evenodd" clip-rule="evenodd" d="M196.801 166.975C199.536 163.312 205.317 162.12 206.86 167.902C206.86 167.902 208.045 171.391 205.656 173.546C198.337 180.15 194.066 170.637 196.801 166.975Z" fill="white"/>
<path fill-rule="evenodd" clip-rule="evenodd" d="M215.791 166.925C218.39 163.446 223.882 162.313 225.347 167.806C225.347 167.806 226.473 171.12 224.204 173.168C217.251 179.442 213.193 170.404 215.791 166.925Z" fill="white"/>
<path d="M190.797 215.486C190.797 215.486 190.797 258.231 191.425 282.118C192.053 306.004 186.578 329.54 176.118 347.945C165.657 366.351 167.081 392.681 159.37 394.638C98.3806 410.118 114.801 220.676 137.367 208.571C159.934 196.465 167.388 193.901 167.388 193.901" fill="white"/>
<path d="M166.5 199L172.5 193.5L176.5 182.5L179 175.5L187 183.5L193 196.5L194 201L193 209L195.5 211L200.5 219L207 228.5L212 239V242L202 234.5L187 227.5L171 212.5L166.5 199Z" fill="white"/>
<path fill-rule="evenodd" clip-rule="evenodd" d="M158.604 227.393L154.23 233.925C153.867 234.466 154.141 235.204 154.769 235.378L160.607 236.992C161.285 237.18 161.927 236.594 161.802 235.902L160.34 227.756C160.188 226.91 159.083 226.679 158.604 227.393ZM159.555 228.398L160.861 236.071L155.785 233.925L159.555 228.398Z" fill="#F7EC51"/>
<path fill-rule="evenodd" clip-rule="evenodd" d="M141.539 219.723L136.384 227.998C136.055 228.526 136.311 229.224 136.904 229.414L145.905 232.299C146.654 232.54 147.357 231.822 147.1 231.078L143.255 219.917C142.992 219.156 141.965 219.04 141.539 219.723ZM142.762 220.732L145.395 231.078L137.591 227.998L142.762 220.732Z" fill="#F7EC51"/>
<path fill-rule="evenodd" clip-rule="evenodd" d="M138.785 294.793L142.291 307.971C142.507 308.781 143.586 308.941 144.027 308.229L149.241 299.823C149.53 299.357 149.369 298.744 148.888 298.48L140.167 293.709C139.43 293.305 138.568 293.981 138.785 294.793ZM139.708 295.185L147.791 299.319L143.215 307.725L139.708 295.185Z" fill="#F7EC51"/>
<path fill-rule="evenodd" clip-rule="evenodd" d="M130.35 352.944L132.262 361.978C132.437 362.806 133.524 363.014 133.993 362.309L139.159 354.537C139.54 353.964 139.208 353.187 138.53 353.067L131.453 351.805C130.785 351.686 130.209 352.281 130.35 352.944ZM132.018 352.802L138.152 354.976L132.859 361.019L132.018 352.802Z" fill="#F7EC51"/>
<path fill-rule="evenodd" clip-rule="evenodd" d="M150.26 350.647L152.172 359.68C152.347 360.509 153.434 360.717 153.903 360.011L159.069 352.239C159.45 351.666 159.118 350.89 158.44 350.769L151.363 349.507C150.695 349.388 150.12 349.983 150.26 350.647ZM151.145 351.432L158.286 351.235L152.409 358.785L151.145 351.432Z" fill="#F7EC51"/>
<path fill-rule="evenodd" clip-rule="evenodd" d="M139.539 328.439L141.451 337.473C141.627 338.301 142.714 338.509 143.183 337.804L148.348 330.032C148.729 329.459 148.398 328.683 147.72 328.562L140.642 327.3C139.975 327.181 139.399 327.776 139.539 328.439ZM140.474 328.241L146.915 330.14L141.749 336.637L140.474 328.241Z" fill="#F7EC51"/>
<path fill-rule="evenodd" clip-rule="evenodd" d="M393.824 363.794C393.246 364.921 392.299 365.392 391.037 365.462C386.541 365.712 382.976 363.728 379.795 360.838C378.59 359.742 377.521 358.496 376.312 357.404C375.462 356.635 374.551 356.135 373.225 356.61C372.209 356.975 371.018 356.837 369.907 356.95C367.402 357.206 364.904 357.54 362.395 357.722C360.795 357.838 360.756 359.203 360.38 360.144C359.531 362.274 358.896 364.492 358.221 366.688C357.958 367.541 357.542 367.878 356.584 367.866C351.8 367.808 347.016 367.813 342.232 367.852C340.053 367.869 337.873 368.13 335.698 368.081C331.606 367.988 327.509 367.857 323.429 367.543C319.482 367.24 315.556 366.672 311.618 366.251C308.852 365.956 306.069 365.8 303.314 365.426C300.111 364.991 296.934 364.357 293.738 363.866C292.138 363.621 290.513 363.548 288.912 363.312C286.166 362.908 283.421 362.488 280.693 361.98C278.162 361.508 275.78 361.998 273.398 362.784C268.759 364.316 264.108 365.812 259.455 367.3C258.628 367.564 258.383 367.782 258.757 368.787C260.127 372.475 261.411 376.203 262.527 379.975C263.314 382.637 263.859 385.379 264.364 388.113C264.983 391.463 265.501 394.834 265.963 398.21C266.315 400.789 266.539 403.387 266.77 405.981C267.064 409.277 267.343 412.576 267.565 415.878C267.786 419.167 267.972 422.459 268.097 425.752C268.309 431.345 268.467 436.94 268.635 442.534C268.737 445.921 268.801 449.31 268.912 452.697C268.944 453.68 269.26 454.689 269.11 455.632C268.997 456.344 268.491 457.34 267.911 457.564C266.416 458.14 265.984 459.253 265.997 460.784C266.014 462.74 266.259 464.698 266.208 466.65C266.176 467.894 266.652 468.762 267.556 469.422C271.666 472.42 275.817 475.362 279.924 478.363C281.874 479.787 283.797 481.253 285.666 482.781C287.667 484.418 289.628 486.108 291.536 487.853C293.438 489.591 294.449 491.717 294.769 494.368C295.018 496.424 294.755 498.334 294.412 500.29C294.233 501.308 293.652 501.725 292.593 501.379C288.143 499.927 283.703 498.448 279.232 497.064C271.847 494.779 264.443 492.559 257.046 490.314C254.409 489.514 251.772 488.714 249.133 487.924C247.516 487.44 247.174 485.99 246.874 484.677C246.021 480.944 247.123 477.547 249.092 474.417C250.297 472.501 251.701 470.71 253.018 468.866C254.094 467.359 253.816 465.816 253.284 464.186C251.549 458.878 249.845 453.561 248.205 448.224C246.587 442.955 244.984 437.68 243.518 432.367C241.968 426.753 240.562 421.098 239.145 415.448C238.379 412.391 237.656 409.319 237.035 406.23C236.571 403.919 236.308 401.569 235.943 399.238C235.508 396.454 235.246 393.623 234.529 390.912C234.22 389.745 233.088 388.678 232.101 387.833C229.951 385.992 227.482 384.62 224.8 383.683C224.137 383.451 223.418 383.291 222.719 383.265C219.391 383.139 216.059 383.107 212.731 382.973C209.48 382.842 206.231 382.661 202.985 382.442C199.637 382.217 196.292 381.947 192.95 381.647C189.373 381.326 185.783 381.07 182.232 380.558C178.467 380.014 174.737 379.224 171.001 378.493C169.786 378.255 168.899 378.993 168.71 380.705C168.298 384.451 167.026 387.932 165.514 391.34C164.424 393.797 162.367 395.026 159.83 395.445C158.019 395.745 156.163 396.03 154.341 395.961C149.156 395.765 144.532 394.055 140.418 390.766C135.201 386.595 132.149 381.021 129.55 375.079C128.385 372.417 126.886 369.876 125.972 367.135C124.979 364.158 124.476 361.017 123.785 357.941C123.247 355.548 122.698 353.155 122.246 350.745C121.888 348.839 121.662 346.907 121.39 344.986C121.029 342.433 120.673 339.879 120.329 337.323C120.216 336.478 120.104 335.628 120.068 334.777C119.957 332.114 119.902 329.448 119.789 326.785C119.631 323.05 119.335 319.318 119.286 315.582C119.201 309.192 119.21 302.8 119.286 296.41C119.32 293.604 119.557 290.795 119.81 287.997C120.096 284.817 120.531 281.651 120.848 278.473C121.074 276.205 121.144 273.92 121.404 271.656C121.786 268.335 122.205 265.015 122.736 261.714C123.368 257.789 124.09 253.877 124.854 249.975C126.299 242.591 127.98 235.252 130.733 228.236C132.487 223.767 134.317 219.207 137.897 215.833C139.447 214.372 141.6 213.531 143.525 212.494C148.81 209.649 154.122 206.855 159.409 204.013C159.656 203.881 159.868 203.494 159.909 203.2C160.049 202.181 159.987 201.121 160.237 200.136C160.4 199.495 160.85 198.791 161.382 198.403C163.165 197.102 165.034 195.916 166.894 194.723C167.226 194.51 167.698 194.323 168.063 194.382C170.024 194.699 171.008 193.492 171.68 192.007C172.59 189.997 173.421 187.941 174.127 185.85C175.296 182.388 176.475 178.918 177.36 175.378C177.666 174.157 177.196 172.701 176.92 171.386C176.359 168.709 175.894 165.983 174.99 163.417C174.413 161.777 173.244 160.289 172.127 158.905C169.24 155.326 167.723 151.318 168.209 146.725C168.42 144.731 169.275 142.873 170.767 141.424C172.522 139.719 174.322 138.06 176.082 136.36C177.366 135.121 177.274 134.174 175.603 132.963C173.263 131.268 171.02 129.436 168.782 127.607C166.871 126.044 166.049 123.811 165.542 121.522C164.854 118.408 164.771 115.266 166.041 112.227C168.072 107.366 171 103.354 176.358 101.842C181.08 100.509 185.792 100.599 190.03 103.276C193.881 105.709 196.327 109.332 197.403 113.804C198.665 119.052 197.228 123.774 194.576 128.266C194.354 128.642 194.331 129.136 194.216 129.575C194.61 129.65 195.002 129.773 195.399 129.791C200.5 130.024 205.57 130.59 210.139 133.021C216.135 136.213 219.907 141.271 221.57 147.854C221.819 148.839 221.817 149.898 221.85 150.926C221.961 154.431 221.97 157.94 222.177 161.439C222.22 162.169 222.779 163.065 223.377 163.533C226.244 165.779 227.219 171.277 224.553 174.532C224.286 174.858 224.059 175.216 223.797 175.546C222.773 176.835 221.287 177.461 219.808 177.198C218.548 176.973 218.441 177.397 218.025 178.327C217.138 180.312 216.074 182.231 214.927 184.082C213.39 186.562 211.82 189.039 210.043 191.347C208.97 192.74 207.519 193.862 206.16 195.013C204.511 196.409 202.768 197.693 201.089 199.055C200.251 199.734 199.333 200.085 198.263 199.93C197.153 199.77 196.529 200.394 196.204 201.293C195.577 203.028 195.01 204.789 194.514 206.567C194.41 206.941 194.631 207.487 194.858 207.86C196.837 211.119 198.804 214.387 200.872 217.589C202.551 220.188 204.46 222.641 206.084 225.271C207.089 226.898 207.754 228.734 208.568 230.479C209.988 233.521 211.437 236.551 212.794 239.621C213.073 240.253 213.149 241.063 213.051 241.752C212.91 242.756 211.919 243.077 210.846 242.429C209.599 241.676 208.425 240.796 207.257 239.92C206.534 239.377 205.884 238.738 205.197 238.147C205.117 238.079 205.011 238.042 204.917 237.99C204.902 238.11 204.86 238.234 204.876 238.349C205.068 239.7 205.223 241.058 205.481 242.397C205.748 243.779 206.154 245.134 206.435 246.513C206.992 249.255 207.531 252 208.03 254.752C208.591 257.847 209.131 260.947 209.619 264.055C209.87 265.652 209.955 267.275 210.171 268.879C210.497 271.304 210.907 273.718 211.213 276.145C211.379 277.471 211.416 278.815 211.489 280.151C211.59 281.974 211.656 283.798 211.761 285.62C212.018 290.115 212.279 294.61 212.563 299.103C212.633 300.217 213.288 301.074 214.291 301.393C217.145 302.299 219.139 305.63 218.659 308.411C218.547 309.058 218.404 309.727 218.119 310.309C217.437 311.708 218.327 312.502 219.212 313.23C220.65 314.411 222.148 315.52 223.649 316.621C227.213 319.233 230.802 321.812 234.366 324.424C237.595 326.79 241.158 328.435 244.981 329.602C248.05 330.538 250.661 332.313 253.115 334.358C254.32 335.363 255.363 336.85 257.272 336.483C259.974 335.964 262.668 335.401 265.363 334.845C266.175 334.678 266.973 334.433 267.789 334.292C270.632 333.803 272.311 331.791 273.984 329.71C275.229 328.161 276.618 326.729 277.914 325.22C280.462 322.251 282.984 319.259 285.531 316.29C286.797 314.813 288.101 313.369 289.38 311.904C292.984 307.774 296.567 303.626 300.194 299.516C302.095 297.362 304.075 295.277 306.009 293.153C306.53 292.581 307.087 292.022 307.499 291.376C308.125 290.393 308.764 290.091 309.987 290.488C312.663 291.353 312.615 291.189 310.744 293.24C307.395 296.915 304.156 300.691 300.858 304.412C299.246 306.232 297.579 308.004 295.98 309.835C293.173 313.047 290.409 316.297 287.609 319.515C285.621 321.799 283.608 324.061 281.596 326.324C280.039 328.074 278.461 329.806 276.909 331.561C276.773 331.714 276.666 332.139 276.715 332.169C277.094 332.407 277.521 332.758 277.921 332.743C281.171 332.616 284.417 332.367 287.669 332.256C290.102 332.173 292.543 332.172 294.976 332.256C298.094 332.364 301.218 332.499 304.322 332.796C307.781 333.128 311.221 333.661 314.671 334.098C318.207 334.546 321.756 334.916 325.28 335.447C328.801 335.978 332.295 336.695 335.809 337.279C338.719 337.763 341.651 338.122 344.557 338.628C348.264 339.274 351.952 340.024 355.653 340.704C358.251 341.181 360.86 341.597 363.459 342.075C365.964 342.535 368.456 343.069 370.964 343.514C372.545 343.795 374.139 344.078 375.737 344.144C376.406 344.172 377.259 343.808 377.756 343.335C381.556 339.721 385.238 335.983 389.054 332.387C393.325 328.362 397.792 324.563 402.607 321.186C404.811 319.64 407.278 319.91 409.679 320.118C411.078 320.239 412.431 320.913 413.802 321.349C414.926 321.706 415.026 322.401 414.526 323.382C412.254 327.842 410.023 332.321 407.75 336.78C405.785 340.634 403.784 344.469 401.733 348.379C399.053 353.562 396.442 358.68 393.824 363.794ZM183.555 330.909C184.749 327.455 185.797 323.943 186.739 320.412C187.351 318.117 187.698 315.748 188.092 313.4C188.496 310.988 188.833 308.563 189.16 306.139C189.539 303.323 190.129 300.506 190.175 297.682C190.267 292.011 190.033 286.335 189.97 280.661C189.932 277.194 189.912 273.725 189.979 270.258C190.033 267.531 188.446 265.499 187.29 263.263C186.52 261.774 185.708 260.271 185.216 258.682C184.314 255.766 183.58 252.794 182.882 249.821C182.404 247.788 182.051 245.721 181.737 243.655C181.373 241.264 180.587 239.019 179.567 236.849C179.481 236.667 178.764 236.534 178.687 236.637C178.276 237.188 177.97 237.818 177.637 238.426C177.046 239.509 176.148 240.54 175.943 241.693C175.532 243.997 174.471 245.973 173.385 247.95C172.71 249.181 171.572 249.213 170.782 248.083C169.933 246.87 169.015 245.645 168.473 244.287C167.199 241.094 166.058 237.843 164.997 234.572C163.602 230.274 162.287 225.948 161.035 221.605C160.382 219.339 159.73 217.036 159.456 214.705C159.187 212.419 159.4 210.078 159.392 207.761C159.392 207.553 159.328 207.346 159.294 207.139C159.2 207.213 159.115 207.302 159.011 207.358C156.583 208.694 154.17 210.059 151.718 211.351C149.286 212.632 146.843 213.897 144.355 215.064C141.629 216.342 138.893 217.66 137.314 220.338C135.605 223.235 133.609 225.996 132.58 229.261C131.519 232.628 130.318 235.955 129.395 239.359C128.45 242.84 127.807 246.401 126.956 249.909C126.412 252.15 125.516 254.323 125.159 256.587C124.615 260.04 124.279 263.538 124.084 267.03C123.916 270.028 123.929 273.032 123.525 276.018C123.211 278.336 122.997 280.668 122.714 282.99C122.284 286.527 121.51 290.055 121.454 293.596C121.332 301.436 121.655 309.281 121.618 317.123C121.599 321.233 122.212 325.251 122.696 329.302C123.233 333.799 123.552 338.322 124.065 342.823C124.413 345.882 124.762 348.958 125.414 351.961C126.476 356.849 127.617 361.733 129.036 366.528C130.805 372.509 133.403 378.144 137.061 383.255C139.347 386.449 142.138 389.065 145.583 390.945C150.253 393.494 155.262 393.274 160.28 392.495C161.103 392.368 162.168 391.735 162.52 391.034C163.508 389.069 164.371 386.997 164.933 384.874C165.732 381.858 166.085 378.725 166.869 375.705C168.162 370.724 169.788 365.827 171.006 360.83C172.01 356.714 173.921 352.999 175.583 349.172C176.805 346.356 178.251 343.637 179.73 340.741C181.015 337.467 182.406 334.23 183.555 330.909ZM227.638 381.754C230.055 383.231 232.424 384.798 234.723 386.451C236.159 387.484 237.191 388.985 237.505 390.719C238.234 394.737 238.717 398.798 239.422 402.821C239.917 405.644 240.627 408.428 241.215 411.236C241.693 413.521 242.135 415.814 242.589 418.104C243.035 420.355 243.47 422.608 243.921 424.857C244.265 426.572 244.621 428.284 244.984 429.995C245.57 432.761 246.037 435.561 246.795 438.28C247.541 440.958 248.664 443.53 249.483 446.191C250.847 450.618 252.539 454.905 254.499 459.101C254.963 460.096 255.745 459.896 256.208 459.715C259.14 458.567 262.033 457.314 264.907 456.023C265.814 455.616 266.296 454.827 266.254 453.75C266.141 450.821 266.062 447.892 265.981 444.962C265.886 441.458 265.803 437.953 265.714 434.448C265.626 431.017 265.607 427.582 265.428 424.155C265.254 420.808 264.925 417.468 264.649 414.126C264.304 409.963 263.982 405.798 263.574 401.641C263.292 398.77 263.033 395.883 262.49 393.056C261.55 388.16 260.396 383.306 259.336 378.433C258.1 372.755 255.714 367.808 250.995 364.091C247.401 361.261 243.63 358.734 239.554 356.715C235.045 354.481 230.485 352.306 225.804 350.47C220.453 348.371 215.256 345.72 209.364 345.236C206.534 345.004 203.726 344.508 200.9 344.208C198.633 343.967 196.347 343.899 194.081 343.65C190.495 343.257 186.922 342.736 183.332 342.384C182.829 342.334 182.071 342.807 181.762 343.262C181.052 344.309 180.518 345.48 179.964 346.625C178.234 350.202 176.208 353.677 174.892 357.402C173.153 362.323 171.973 367.442 170.562 372.479C169.763 375.333 169.746 375.46 172.234 375.982C175.113 376.586 178.038 376.986 180.954 377.387C182.862 377.65 184.795 377.723 186.71 377.942C190.338 378.359 193.957 378.858 197.588 379.25C199.898 379.499 202.221 379.649 204.541 379.787C208.009 379.993 211.478 380.186 214.95 380.312C217.029 380.388 219.112 380.326 221.46 380.326C223.639 380.286 225.769 380.611 227.638 381.754ZM331.806 365.18C334.043 365.284 336.279 365.394 338.517 365.441C343.706 365.552 348.895 365.639 354.084 365.702C355.12 365.715 356.052 365.286 356.332 364.22C357.835 358.48 360.792 353.158 361.171 347.086C361.268 345.546 360.6 344.458 359.028 344.183C357.388 343.896 355.769 343.493 354.133 343.182C352.076 342.79 350.01 342.446 347.95 342.067C346.101 341.727 344.254 341.374 342.407 341.017C341.056 340.756 339.71 340.468 338.358 340.212C335.769 339.723 333.178 339.244 330.586 338.769C328.814 338.445 327.044 338.112 325.266 337.826C323.886 337.605 322.494 337.466 321.112 337.264C318.191 336.838 315.273 336.396 312.354 335.959C310.686 335.709 309.022 335.435 307.352 335.209C305.124 334.909 302.889 334.4 300.659 334.413C295.064 334.445 289.468 334.69 283.875 334.909C281.2 335.013 278.52 335.162 275.862 335.462C274.374 335.63 272.943 336.101 271.864 337.355C270.106 339.397 268.218 341.327 266.441 343.355C265.32 344.635 264.27 345.981 263.245 347.341C261.889 349.139 260.235 350.231 257.87 350.049C253.998 349.749 250.119 349.529 246.246 349.232C244.808 349.121 243.378 348.907 241.949 348.707C239.525 348.368 237.108 347.974 234.682 347.657C232.361 347.353 230.034 347.101 227.705 346.862C227.048 346.794 226.377 346.831 225.715 346.868C225.583 346.876 225.463 347.101 225.338 347.226C225.473 347.288 225.611 347.346 225.743 347.415C226.908 348.023 228.042 348.7 229.242 349.23C232.76 350.783 236.388 352.112 239.817 353.836C244.797 356.341 249.443 359.399 253.669 363.075C254.979 364.215 256.236 365.062 258.384 364.776C261.79 364.323 264.972 363.483 268.028 361.996C272.141 359.995 276.326 358.353 281.055 359.334C283.792 359.901 286.543 360.398 289.276 360.984C291.007 361.355 292.695 361.967 294.439 362.226C296.603 362.547 298.805 362.604 300.989 362.794C304.962 363.14 308.932 363.507 312.905 363.852C315.602 364.086 318.301 364.297 321.132 364.651C324.69 364.828 328.248 365.014 331.806 365.18ZM193.406 288.428C193.446 289.489 193.403 290.553 193.421 291.615C193.504 296.581 193.582 301.547 193.693 306.512C193.725 307.953 193.662 309.439 193.992 310.821C194.66 313.619 195.537 316.369 196.391 319.119C196.756 320.296 197.265 321.418 198.596 321.884C199.755 322.29 200.876 322.8 202.037 323.198C203.759 323.789 204.287 323.566 205.41 321.99C205.781 321.469 206.21 320.988 206.627 320.501C209.317 317.364 212.089 314.292 214.68 311.075C216.592 308.7 216.261 304.879 213.059 303.653C212.714 303.521 212.373 303.363 212.015 303.289C210.123 302.897 210.21 302.902 210.147 301.114C209.923 294.725 210.672 288.319 209.669 281.937C209.268 279.389 209.433 276.755 209.064 274.199C208.491 270.223 207.698 266.278 206.97 262.325C206.281 258.586 205.591 254.847 204.836 251.121C204.273 248.341 203.597 245.584 202.99 242.812C202.528 240.698 202.165 238.559 201.606 236.471C201.456 235.907 200.755 235.489 200.307 235.004C199.783 235.511 198.864 235.972 198.801 236.531C198.479 239.363 198.043 242.25 198.291 245.061C198.577 248.289 199.062 251.49 198.445 254.695C197.743 258.347 196.575 261.855 194.596 265.05C193.499 266.822 192.679 268.66 192.866 270.851C193.051 273.02 193.111 275.203 193.141 277.38C193.185 280.479 193.153 283.578 193.153 286.943C193.241 287.438 193.388 287.93 193.406 288.428ZM179.47 178.688C179.247 179.035 178.937 179.353 178.813 179.731C177.551 183.594 176.398 187.495 175.049 191.326C174.236 193.635 172.961 195.694 170.852 197.145C169.319 198.199 167.89 199.402 166.391 200.505C165.651 201.049 165.807 201.52 166.268 202.181C167.648 204.158 169.107 206.103 170.258 208.211C171.848 211.12 173.209 214.156 174.624 217.158C176.002 220.084 177.442 222.989 178.635 225.99C179.649 228.54 180.195 231.278 181.238 233.813C182.181 236.104 183.193 238.364 183.535 240.818C183.651 241.652 183.922 241.659 184.554 241.657C188.355 241.644 192.025 241.141 195.23 238.879C195.504 238.685 195.736 238.288 195.788 237.954C195.913 237.147 195.892 236.318 195.987 235.504C196.053 234.93 196.428 234.309 196.294 233.809C195.794 231.949 195.13 230.133 194.549 228.294C193.44 224.781 191.984 221.305 191.885 217.599C191.784 213.827 192.123 210.039 192.382 206.266C192.487 204.727 192.789 203.182 193.178 201.686C193.635 199.931 193.526 199.451 191.942 198.595C189.336 197.187 187.089 195.293 185.483 192.849C182.862 188.863 180.848 184.572 180.129 179.612C179.909 179.304 179.69 178.996 179.47 178.688ZM217.279 177.512C217.351 177.368 217.996 176.921 217.037 176.759C216.068 176.596 214.974 176.126 214.309 175.432C213.004 174.071 211.924 172.486 210.827 170.94C210.517 170.502 210.407 170.237 209.971 170.761C209.694 171.094 209.334 171.359 209.058 171.692C206.66 174.588 203.211 175.818 199.983 175.013C196.112 174.048 193.752 169.922 193.7 166.341C193.679 164.914 193.227 163.718 192.087 162.897C190.19 161.531 188.239 160.238 186.289 158.947C185.197 158.224 184.157 158.461 183.875 159.601C183.178 162.423 182.309 165.251 182.066 168.124C181.764 171.679 181.908 175.267 182.756 178.814C184.186 184.79 186.043 190.468 190.919 194.679C194.063 197.394 197.946 198.005 201.69 196.362C205.4 194.733 207.679 191.721 209.897 188.586C211.761 185.951 213.619 183.312 215.612 180.542C216.176 179.536 216.76 178.54 217.279 177.512ZM377.946 354.987C380.524 358.268 383.522 361.006 387.625 362.33C390.159 363.148 391.086 363.004 392.489 360.331C395.35 354.878 398.178 349.407 400.997 343.932C402.123 341.745 403.164 339.514 404.292 337.328C406.496 333.059 408.728 328.804 410.961 324.55C411.369 323.774 410.982 323.071 410.381 322.991C408.297 322.713 406.097 322.118 404.162 323.405C401.61 325.102 399.041 326.81 396.694 328.77C393.133 331.742 389.703 334.878 386.326 338.059C384.793 339.502 383.5 341.203 382.138 342.821C381.062 344.099 379.681 345.175 379.272 346.921C378.893 348.535 378.52 350.151 378.144 352.032C377.702 352.995 377.209 354.048 377.946 354.987ZM290.163 497.574C290.771 497.622 291.941 497.346 291.947 497.183C292.025 494.896 292.458 492.473 290.406 490.687C287.738 488.366 285.154 485.939 282.372 483.764C277.883 480.255 273.264 476.913 268.697 473.505C267.066 472.287 265.443 470.994 263.366 470.676C261.507 470.392 259.612 470.355 257.746 470.106C256.172 469.895 255.102 470.577 254.146 471.71C251.829 474.457 250.143 477.511 249.506 481.078C249.007 483.873 249.906 485.413 252.163 486.078C256.459 487.343 260.725 488.711 265.014 490.005C268.087 490.932 271.188 491.767 274.255 492.714C278.728 494.094 283.181 495.538 287.908 496.955C288.658 497.174 289.4 497.514 290.163 497.574ZM199.93 325.326C196.963 324.151 194.013 322.932 191.039 321.775C190.16 321.434 189.412 321.333 189.122 322.686C188.808 324.156 188.137 325.547 187.652 326.982C186.577 330.168 185.496 333.352 184.478 336.556C184.29 337.147 184.003 337.979 185.173 338.092C186.697 338.239 188.211 338.493 189.737 338.604C192.716 338.821 195.699 339.033 198.684 339.132C203.118 339.278 207.555 339.331 211.992 339.409C213.408 339.434 214.826 339.408 216.243 339.416C216.588 339.418 216.953 339.393 217.274 339.493C221.115 340.694 224.942 341.937 228.787 343.126C232.654 344.322 236.527 345.496 240.659 345.265C242.093 345.185 242.356 344.916 241.829 343.596C241.541 342.876 241.141 342.143 240.611 341.587C238.023 338.876 234.864 336.982 231.484 335.426C228.791 334.185 226.159 332.802 223.13 332.49C221.712 332.345 220.284 332.141 218.906 331.784C216.719 331.218 214.55 330.562 212.41 329.833C209.736 328.923 207.101 327.9 204.183 326.926C202.765 326.394 201.338 325.883 199.93 325.326ZM166.561 208.046C165.317 206.119 164.008 204.233 162.723 202.333C162.544 202.068 162.349 201.815 162.161 201.556C162.037 201.992 161.863 202.42 161.798 202.863C161.586 204.33 161.466 205.812 161.214 207.272C160.716 210.161 160.444 212.999 162.317 215.567C162.435 215.73 162.528 215.925 162.582 216.119C163.27 218.622 163.947 221.128 164.633 223.631C164.807 224.265 164.989 224.898 165.197 225.522C166.093 228.203 167.178 230.836 167.853 233.571C168.546 236.38 169.077 239.203 170.517 241.769C170.931 242.506 171.065 243.397 171.37 244.2C171.461 244.44 171.761 244.827 171.857 244.797C172.161 244.702 172.562 244.5 172.664 244.238C173.853 241.185 174.426 237.851 176.681 235.287C178.597 233.11 178.199 230.885 177.024 228.56C176.565 227.652 176.281 226.657 175.871 225.721C174.984 223.699 174.136 221.655 173.144 219.685C172.278 217.964 171.228 216.335 170.274 214.656C169.604 213.476 168.958 212.282 168.168 210.961C167.636 209.987 167.161 208.976 166.561 208.046ZM238.354 329.974C234.472 327.466 230.536 325.03 226.775 322.351C223.626 320.108 220.707 317.543 217.646 315.172C216.82 314.532 215.872 314.32 215.028 315.284C213.66 316.847 212.267 318.387 210.901 319.951C209.884 321.116 208.907 322.317 207.889 323.48C207.092 324.39 207.176 324.878 208.342 325.226C212.087 326.346 215.859 327.376 219.593 328.532C224.69 330.11 229.781 331.713 234.833 333.431C236.449 333.981 237.873 335.091 239.487 335.648C241.126 336.214 242.879 336.509 244.606 336.75C246.601 337.028 248.621 337.139 250.635 337.264C250.956 337.284 251.296 336.997 251.627 336.852C251.43 336.58 251.282 336.249 251.03 336.043C247.839 333.431 244.028 332.083 240.065 330.646C239.491 330.426 238.858 330.3 238.354 329.974ZM187.812 259.997C188.306 261.869 189.479 262.78 191.284 262.949C192.843 263.096 193.301 262.241 193.681 261.101C194.225 259.47 194.765 257.836 195.275 256.194C196.41 252.546 196.248 248.871 195.569 245.163C195.347 243.954 195.399 242.694 195.343 241.456C195.335 241.276 195.427 241.092 195.472 240.91C195.29 240.963 195.101 241 194.927 241.072C193.832 241.525 192.778 242.152 191.641 242.407C189.509 242.886 187.337 243.203 185.167 243.48C184.33 243.587 183.834 243.675 184.1 244.699C184.351 245.667 184.451 246.673 184.651 247.656C185.082 249.773 185.533 251.886 185.976 254.266C186.596 256.174 187.302 258.06 187.812 259.997ZM210.526 240.012C210.733 240.187 210.963 240.335 211.182 240.495C211.18 240.199 211.262 239.871 211.164 239.61C210.588 238.08 210.051 236.527 209.349 235.054C207.85 231.911 206.473 228.679 204.643 225.733C202.844 222.836 200.422 220.334 198.511 217.498C197.142 215.466 196.173 213.167 195.004 210.998C194.825 210.665 194.528 210.394 194.285 210.095C194.173 210.447 193.958 210.801 193.967 211.15C194.023 213.415 194.052 215.685 194.242 217.94C194.371 219.479 194.631 221.029 195.044 222.514C195.503 224.164 196.336 225.712 196.765 227.367C197.267 229.303 198.186 230.528 200.062 231.563C203.172 233.278 206.381 235.061 208.569 238.325C209.22 238.888 209.869 239.455 210.526 240.012ZM196.682 164.942C195.662 166.429 197.554 171.635 198.583 172.022C205.786 174.733 207.839 170.094 207.934 168.82C208.122 166.292 208.433 163.729 206.044 161.679C199.74 160.426 198.331 162.541 196.682 164.942ZM224.263 167.047C223.295 164.635 221.83 163.062 219.279 163.613C217.977 163.894 216.83 164.925 215.633 165.65C213.061 167.206 212.724 168.057 213.623 170.815C214.523 173.576 216.622 175.157 219.292 175.694C221.503 176.138 223.082 174.767 224.25 172.705C224.545 170.82 225.029 168.956 224.263 167.047ZM214.724 163.929C215.763 163.19 216.888 162.097 218.008 162.057C219.947 161.987 219.632 160.803 219.423 159.871C218.839 157.266 218.075 154.7 217.33 152.134C216.82 150.377 216.389 150.277 215.151 151.514C213.032 153.633 210.885 155.712 208.222 157.175C207.389 157.632 207.275 158.687 207.87 159.517C208.092 159.826 208.393 160.091 208.559 160.425C209.378 162.072 210.12 163.758 210.994 165.373C211.187 165.73 211.04 166.993 212.29 166.063C213.096 165.345 213.849 164.551 214.724 163.929ZM371.135 354.511C372.944 354.174 374.881 353.711 375.16 351.305C375.207 350.901 375.391 350.515 375.483 350.114C376.054 347.628 375.408 346.831 372.918 346.564C370.574 346.312 368.247 345.893 365.918 345.517C364.672 345.316 364.442 345.549 364.304 346.817C364.113 348.574 363.839 350.326 363.511 352.063C363.223 353.585 363.649 354.789 364.987 355.087C367.039 354.91 369.12 354.885 371.135 354.511ZM262.597 467.692C262.85 467.681 263.28 467.179 263.29 466.892C263.352 464.992 263.307 463.089 263.328 461.187C263.34 460.118 262.521 460.083 261.933 460.27C260.653 460.678 259.436 461.286 258.201 461.829C257.309 462.222 256.306 462.54 256.414 463.826C256.49 464.735 256.49 465.665 256.699 466.543C257.047 468.002 258.306 467.309 259.335 467.599C260.423 467.643 261.513 467.741 262.597 467.692ZM191.804 313.148C191.728 312.932 191.413 312.799 191.208 312.629C191.059 312.842 190.799 313.045 190.779 313.27C190.654 314.637 190.547 316.007 190.505 317.378C190.464 318.716 191.412 319.585 192.774 319.461C193.005 319.44 193.414 319.033 193.384 318.871C193.184 317.782 192.887 316.712 192.488 315.502C192.267 314.715 192.076 313.917 191.804 313.148ZM266.689 338.246C266.837 337.954 267.147 337.14 266.245 337.31C264.87 337.568 263.518 337.958 262.166 338.326C261.919 338.394 261.717 338.625 261.494 338.781C261.752 338.903 262.007 339.121 262.27 339.13C263.372 339.17 264.477 339.147 265.714 339.014C266.052 338.765 266.52 338.581 266.689 338.246ZM164.048 198.873C163.836 198.997 163.625 199.12 163.413 199.243C163.579 199.429 163.716 199.686 163.924 199.773C164.048 199.825 164.321 199.647 164.464 199.508C165.282 198.715 166.086 197.908 166.884 197.095C167.044 196.932 167.16 196.727 167.296 196.541C167.028 196.593 166.69 196.561 166.502 196.713C165.704 197.359 164.951 198.06 164.048 198.873Z" fill="#00160A"/>
<path fill-rule="evenodd" clip-rule="evenodd" d="M192.53 183.397C191.285 182.724 190.053 182.172 189.794 180.672C189.291 177.757 190.341 174.323 194.14 174.522C197.566 174.702 199.739 177.547 198.527 180.76C197.634 183.129 195.465 184.304 192.53 183.397Z" fill="#F7EC51"/>
<path fill-rule="evenodd" clip-rule="evenodd" d="M209.421 172.524C209.489 172.077 209.558 171.764 209.626 171.451C209.734 171.724 209.872 171.989 209.944 172.271C210.479 174.362 212.172 179.568 210.155 181.963C209.987 182.162 209.136 182.194 208.606 182.16C207.565 182.094 206.351 180.558 206.544 179.568C206.573 179.419 209.087 181.858 209.626 180.538C210.525 178.337 209.421 173.281 209.421 172.524Z" fill="#00160A"/>
<path fill-rule="evenodd" clip-rule="evenodd" d="M195.242 187.779C195.137 187.726 194.993 187.74 194.867 187.745C194.558 187.758 194.134 187.203 194.314 186.968C194.586 186.615 194.894 186.259 195.262 186.027C195.481 185.888 195.843 186.337 195.816 186.535C195.796 186.684 195.937 186.916 196.073 187.016C198.154 188.545 200.464 189.536 202.993 190.012C203.16 190.044 203.305 190.193 203.46 190.287C203.306 190.395 203.151 190.604 202.996 190.595C200.237 190.434 197.049 188.695 195.242 187.779Z" fill="#00160A"/>
<path fill-rule="evenodd" clip-rule="evenodd" d="M127.604 307.348L125.423 316.659C125.255 317.379 125.932 318.01 126.638 317.79L134.207 315.433C134.844 315.235 135.087 314.462 134.679 313.935L129.29 306.98C128.797 306.344 127.787 306.564 127.604 307.348ZM128.534 308.84L133.286 314.521L126.354 316.877L128.534 308.84Z" fill="#F7EC51"/>
<path fill-rule="evenodd" clip-rule="evenodd" d="M135.965 242.946C135.168 242.875 134.641 243.755 135.081 244.424L140.626 252.853C140.999 253.421 141.83 253.429 142.214 252.867L147.317 245.393C147.729 244.79 147.34 243.967 146.613 243.902L135.965 242.946ZM136.715 243.902L146.248 245.755L140.626 251.64L136.715 243.902Z" fill="#F7EC51"/>
<path fill-rule="evenodd" clip-rule="evenodd" d="M176.629 320.394H168.808C168.16 320.394 167.699 321.025 167.898 321.642L170.525 329.808C170.773 330.579 171.807 330.711 172.242 330.028L177.435 321.863C177.84 321.226 177.383 320.394 176.629 320.394ZM175.991 321.987L172.072 329.515L169.445 321.35L175.991 321.987Z" fill="#F7EC51"/>
<path fill-rule="evenodd" clip-rule="evenodd" d="M147.535 373.374L147.177 380.453C147.14 381.195 147.926 381.694 148.582 381.345L157.675 376.501C158.445 376.09 158.308 374.947 157.462 374.731L148.727 372.496C148.141 372.346 147.565 372.77 147.535 373.374ZM148.226 374.049L156.583 375.21L148.582 379.939L148.226 374.049Z" fill="#F7EC51"/>
<path fill-rule="evenodd" clip-rule="evenodd" d="M131.625 269.057L124.614 273.917C124.021 274.328 124.08 275.223 124.722 275.553L132.927 279.765C133.613 280.117 134.412 279.554 134.311 278.79L133.118 269.718C133.024 269.009 132.213 268.65 131.625 269.057ZM131.907 270.746L133.363 278.914L125.159 274.703L131.907 270.746Z" fill="#F7EC51"/>
<path fill-rule="evenodd" clip-rule="evenodd" d="M170.857 294.015L166.482 300.547C166.105 301.109 166.416 301.874 167.079 302.014L172.193 303.096C172.825 303.23 173.405 302.711 173.343 302.068L172.602 294.455C172.515 293.561 171.356 293.269 170.857 294.015ZM172.048 295.324V302.318L167.65 300.547L172.048 295.324Z" fill="#F7EC51"/>
<path fill-rule="evenodd" clip-rule="evenodd" d="M169.744 257.036C171.017 256.205 172.134 256.402 171.225 258.23C171.225 258.23 164.59 275.053 162.607 275.252C160.727 275.441 159.82 273.01 157.195 266.059L157.083 265.763C157.073 265.736 157.065 265.71 157.057 265.684L157.043 265.628L157.026 265.598L156.99 265.513L156.676 264.664C156.305 263.652 155.372 261.981 154.878 261.401C154.352 260.782 155.525 260.399 156.392 260.399C158.01 260.399 159.989 260.851 163.102 259.953C166.748 258.901 168 258.174 169.744 257.036ZM166.922 265.679L166.835 265.735C165.909 266.305 164.886 266.744 163.768 267.049C162.431 267.414 160.491 267.46 159.236 267.186L159.026 267.137L159.103 267.33C159.812 269.095 160.441 271.137 160.99 272.175L161.182 272.528C161.526 273.147 161.828 273.596 162.072 273.866L162.149 273.945L162.244 273.831C162.653 273.308 164.11 271.339 165.121 269.373L165.227 269.167C165.66 268.317 166.133 267.352 166.645 266.271L166.922 265.679ZM169.653 258.98L169.499 259.067C168.06 259.869 165.679 261.199 163.633 261.79C161.183 262.497 159.106 262.749 157.398 262.523L157.293 262.507L157.353 262.676C157.516 263.133 158.208 265.296 158.453 265.628C159.444 266.544 160.66 266.631 162.149 266.271L162.362 266.216C167.692 265.186 169.653 258.98 169.653 258.98Z" fill="#F7EC51"/>
<path fill-rule="evenodd" clip-rule="evenodd" d="M397.567 330.131C397.822 329.942 398.182 329.997 398.37 330.252C399.696 332.05 401.941 332.139 404.925 330.482C405.202 330.328 405.552 330.428 405.706 330.705C405.86 330.982 405.76 331.332 405.483 331.486C402.049 333.392 399.175 333.279 397.446 330.934C397.257 330.678 397.312 330.319 397.567 330.131Z" fill="#E7EAEE"/>
<path fill-rule="evenodd" clip-rule="evenodd" d="M393.226 334.732C393.46 334.518 393.824 334.536 394.037 334.77C396.048 336.982 398.72 337.109 400.894 335.948C401.174 335.798 401.522 335.904 401.671 336.184C401.82 336.464 401.715 336.812 401.435 336.961C398.839 338.347 395.598 338.194 393.187 335.543C392.974 335.308 392.991 334.945 393.226 334.732Z" fill="#E7EAEE"/>
<path fill-rule="evenodd" clip-rule="evenodd" d="M388.522 339.289C388.753 339.071 389.117 339.082 389.334 339.313C391.272 341.372 395.213 342.379 397.909 340.95C398.189 340.802 398.537 340.908 398.685 341.189C398.834 341.469 398.727 341.817 398.447 341.965C395.254 343.657 390.766 342.511 388.498 340.101C388.28 339.87 388.291 339.506 388.522 339.289Z" fill="#E7EAEE"/>
<path fill-rule="evenodd" clip-rule="evenodd" d="M392.174 357.301C396.205 355.35 392.037 348.121 388.135 351.047C385.633 352.924 388.377 359.138 392.174 357.301Z" fill="#E7EAEE"/>
</svg>
