<svg width="354" height="354" viewBox="0 0 354 354" fill="none" xmlns="http://www.w3.org/2000/svg">
<g filter="url(#filter0_d)">
<path d="M4 173C4 77.4547 81.4547 0 177 0C272.545 0 350 77.4547 350 173C350 268.545 272.545 346 177 346C81.4547 346 4 268.545 4 173Z" fill="#676FC2"/>
<path fill-rule="evenodd" clip-rule="evenodd" d="M256.659 213.535C251.627 215.503 245.806 218.456 245.266 223.832C252.101 218.573 260.545 215.435 269.155 214.953C263.207 222.448 255.695 228.696 247.243 233.181C239.652 237.209 230.042 241.505 229.391 250.074C237.543 240.366 250.077 234.489 262.753 234.431C254.643 246.309 241.639 254.734 227.484 257.281C227.97 260.931 243.665 268.749 248.236 270.253C251.492 284.239 252.902 302.377 256.157 316.363C256.958 319.805 257.664 323.76 255.556 326.597C253.465 329.41 249.517 329.895 246.02 330.143C232.239 331.123 213.382 332.103 199.6 333.082C197.95 325.607 196.3 318.131 194.65 310.656C171.403 312.814 71.7429 335.652 53.4538 323.671C-17.1483 277.421 72.8816 261.665 74.8164 205.355C75.2601 192.444 36.4405 169.875 37.0569 156.682C37.4593 148.067 38.7929 139.651 43.0553 132.254C47.3176 124.857 54.0716 119.159 61.4124 114.8C51.3059 112.202 43.6506 102.128 43.8555 91.6947C44.0603 81.2616 52.105 71.4954 62.3057 69.2962C57.4963 63.565 49.9233 60.9381 44.3917 55.9003C37.9477 50.0317 34.7096 40.5651 37.0569 32.1713C39.4041 23.7776 47.6686 17.1735 56.3764 17.5457C63.5291 17.8513 69.8236 22.3753 74.8164 27.5062C82.5597 35.4637 88.3184 45.3378 91.4319 55.9955C93.5072 63.0992 101.113 66.7131 107.536 70.3894C113.959 74.0656 120.629 80.4693 118.819 87.6453C116.427 77.8257 151.985 89.5219 184.234 92.3851C188.516 92.7653 193.124 93.3187 196.29 96.2273C200.838 100.407 207.667 101.932 213.561 100.083C215.437 104.732 216.816 109.954 215.222 114.706C213.628 119.459 207.981 123.086 203.468 120.906C204.646 126.968 205.824 133.03 207.002 139.091C218.543 139.23 230.083 139.466 241.619 139.798C247.734 139.974 254.125 140.253 259.439 143.282C264.754 146.311 271.866 142.02 277.118 130.993C273.719 148.985 277.746 156.174 284.689 158.129C284.704 157.993 285.244 158.058 285.259 157.922C287.327 140.142 299.391 124.356 316.182 118.11C314.697 121.532 304.074 128.29 296.696 136.92C289.49 145.35 286.041 156.636 285.684 158.662C297.126 155.662 300.94 164.186 320.353 156.682C311.482 167.346 294.389 169.972 282.726 162.462C277.224 168.598 277.532 175.393 273.634 182.654C280.255 174.426 289.047 181.721 282.072 187.054C285.774 187.41 289.777 187.898 292.462 190.471C295.147 193.043 295.214 198.459 291.75 199.813C280.053 204.387 268.356 208.961 256.659 213.535Z" fill="#E86077"/>
<path fill-rule="evenodd" clip-rule="evenodd" d="M237.671 172.986C238.095 172.181 238.555 171.337 239.334 170.867C240.113 170.398 241.309 170.495 241.728 171.302C242.175 172.161 241.51 173.196 240.73 173.77C239.95 174.343 238.991 174.747 238.485 175.572C241.224 177.377 243.962 179.182 246.701 180.986C248.847 182.4 251.274 184.419 250.835 186.95C250.577 188.434 249.319 189.588 247.919 190.142C246.518 190.695 244.977 190.753 243.472 190.797C233.352 191.088 223.223 191.037 213.107 190.643C212.405 190.615 211.622 190.55 211.155 190.026C210.792 189.62 210.718 189.041 210.659 188.5C210.077 183.115 209.495 177.731 208.912 172.347C208.891 172.148 208.87 171.94 208.942 171.753C209.241 170.967 210.417 171.451 211.075 171.976C215.731 175.693 223.176 175.256 227.366 171.02C228.379 169.997 230.103 170.129 231.403 170.746C232.704 171.363 233.792 172.367 235.097 172.975C234.958 172.221 235.623 171.425 236.391 171.428C237.158 171.431 237.817 172.232 237.671 172.986Z" fill="#EFC9F9"/>
<path fill-rule="evenodd" clip-rule="evenodd" d="M74.7122 113.559C74.7122 113.559 73.5818 100.019 76.4271 95.6667C79.2724 91.3141 90.1106 90.0037 90.1106 90.0037C90.1106 90.0037 119.816 89.6155 135.866 90.229C151.916 90.8425 184.016 93.5933 184.016 93.5933C184.016 93.5933 188.187 94.503 190.062 95.6667C191.936 96.8304 194.552 100.133 194.552 100.133C194.552 100.133 200.243 100.962 203.074 101.075C205.905 101.188 208.499 100.688 208.499 100.688C208.499 100.688 212.106 111.211 209.556 116.226C207.005 121.241 198.441 120.463 198.441 120.463L201.473 139.233C201.473 139.233 197.868 140.936 195.899 143.072C193.929 145.208 193.138 148.27 193.138 148.27L198.992 205.355C198.992 205.355 200.715 208.323 204.414 209.45C208.113 210.577 216.448 210.672 216.448 210.672C216.448 210.672 216.151 216.429 216.448 218.906C216.745 221.383 217.01 222.74 217.01 222.74L223.286 267.664C223.286 267.664 217.186 268.773 211.151 270.237C205.116 271.702 193.138 274.978 193.138 274.978C193.138 274.978 188.915 276.903 188.368 280.011C187.822 283.119 190.062 292.46 190.062 292.46L122.819 297.586C122.819 297.586 116.275 297.709 114.024 296.291C111.773 294.873 111.157 290.238 111.157 290.238L102.061 208.434C102.061 208.434 87.5272 208.79 83.2824 206.366C79.0375 203.942 78.5242 194.995 78.5242 194.995C78.5242 194.995 79.2294 189.924 78.5242 186.404C78.2888 185.23 75.2149 172.5 74.1822 160.388C73.5978 153.534 81.6628 148.27 81.6628 148.27L74.7122 113.559Z" fill="#EFC9F9"/>
<path fill-rule="evenodd" clip-rule="evenodd" d="M122.159 94.7274C121.636 95.4644 122.074 96.5641 122.83 97.0599C123.585 97.5558 124.538 97.6116 125.44 97.6523C135.25 98.0937 145.06 98.5352 154.869 98.9766C155.825 99.0197 156.884 99.0291 157.608 98.4038C158.332 97.7785 158.236 96.2872 157.291 96.137C146.383 94.4026 135.314 93.6824 124.273 93.9885C123.498 94.01 122.608 94.095 122.159 94.7274" fill="#FF90B8"/>
<path fill-rule="evenodd" clip-rule="evenodd" d="M165.804 165.038L163.255 153.075C163.255 153.075 163.136 155.542 161.786 156.545C160.436 157.548 157.768 157.154 157.768 157.154C157.768 157.154 157.345 148.8 159.224 146.256C161.102 143.713 162.952 146.115 166.52 145.301C170.085 144.488 169.347 141.81 173.489 143.003C177.631 144.195 180.692 153.06 180.692 153.06C180.692 153.06 177.444 154.149 176.062 153.87C174.68 153.591 175.017 151.914 175.017 151.914C175.017 151.914 174.038 151.497 174.287 154.437C174.408 155.864 175.489 158.012 176.062 160.82C176.275 161.866 176.062 164.217 176.062 164.217C176.062 164.217 172.376 164.593 169.191 165.275C166.006 165.957 165.804 165.038 165.804 165.038Z" fill="#FF90B8"/>
<path fill-rule="evenodd" clip-rule="evenodd" d="M75.3014 135.281C74.0746 134.62 73.0769 133.613 72.099 132.62C69.5765 130.06 67.0225 127.458 65.2723 124.318C65.1057 124.019 64.9418 123.676 65.0379 123.348C65.134 123.019 65.6355 122.833 65.823 123.119C68.8653 127.763 72.7071 131.883 77.1285 135.241C76.7309 135.775 75.888 135.597 75.3014 135.281Z" fill="#00160A"/>
<path fill-rule="evenodd" clip-rule="evenodd" d="M78.9764 76.4987C79.7012 75.7521 80.0877 74.7474 80.4215 73.7618C81.4622 70.6883 82.1713 67.5027 82.5327 64.278C82.5978 63.6971 82.7044 63.0283 83.2084 62.7323C83.7752 65.4973 83.0732 68.3468 82.3752 71.0816C81.7615 73.4859 81.082 76.0104 79.3416 77.7791C79.1655 77.958 78.9406 78.1404 78.693 78.099C78.3592 78.0432 78.2254 77.5995 78.3446 77.2827C78.4637 76.9659 78.7407 76.7416 78.9764 76.4987L78.9764 76.4987Z" fill="#00160A"/>
<path fill-rule="evenodd" clip-rule="evenodd" d="M253.914 100.616C254.259 100.523 254.611 100.795 254.761 101.119C254.911 101.443 254.923 101.811 254.99 102.162C255.251 103.532 256.487 104.657 257.876 104.789C258.049 105.191 257.666 105.594 257.363 105.911C256.674 106.632 256.239 107.591 256.15 108.585C256.093 109.229 255.957 110.127 255.31 110.118C254.79 110.111 254.561 109.482 254.374 108.997C253.917 107.812 252.884 106.864 251.665 106.509C251.408 106.434 251.301 106.107 251.371 105.85C251.442 105.592 251.637 105.391 251.823 105.2C252.625 104.378 253.438 103.404 253.429 102.256C253.425 101.635 253.315 100.776 253.914 100.616Z" fill="#EFC9F9"/>
<path fill-rule="evenodd" clip-rule="evenodd" d="M278.207 208.477C277.131 209.583 276.75 211.314 277.262 212.769C276.695 213.023 276.271 212.241 275.99 211.687C275.569 210.855 274.773 210.222 273.868 209.999C275.179 209.172 275.995 207.616 275.93 206.067C276.457 205.723 277.047 206.439 277.199 207.05C277.35 207.661 277.578 208.455 278.207 208.477Z" fill="#FF90B8"/>
<path fill-rule="evenodd" clip-rule="evenodd" d="M269.023 210.551C269.647 211.541 270.535 212.364 271.569 212.911C271.941 213.107 271.604 213.655 271.297 213.942C270.523 214.665 270.034 215.684 269.952 216.739C269.276 216.061 268.599 215.383 267.923 214.706C267.653 214.435 267.368 214.015 267.6 213.712C268.31 212.787 268.801 211.695 269.023 210.551Z" fill="#FF90B8"/>
<path fill-rule="evenodd" clip-rule="evenodd" d="M223.837 91.3172C224.452 87.3967 225.94 83.5438 228.555 80.5581C231.169 77.5723 234.985 75.5342 238.954 75.5374C242.922 75.5406 246.93 77.7881 248.579 81.3978C249.433 83.2654 249.642 85.368 249.584 87.4205C249.474 91.3242 248.425 95.1982 246.551 98.6246C244.862 101.714 242.433 104.494 239.279 106.061C236.126 107.628 232.196 107.839 229.13 106.106C226.703 104.734 225.004 102.271 224.195 99.6032C223.386 96.9349 223.404 94.0717 223.837 91.3172M248.092 88.3505C248.163 85.9197 247.762 83.4096 246.484 81.3408C245.707 80.083 244.619 79.0193 243.343 78.2713C239.23 75.8594 233.633 77.1551 230.217 80.4812C226.801 83.8074 225.32 88.7232 225.167 93.4886C225.086 96.0306 225.359 98.6371 226.44 100.939C227.521 103.241 229.498 105.21 231.962 105.843C235.185 106.671 238.586 105.112 241.113 102.948C245.33 99.3355 247.928 93.9004 248.092 88.3505Z" fill="#EFC9F9"/>
<path fill-rule="evenodd" clip-rule="evenodd" d="M264.446 88.5949C263.79 89.4529 263.104 90.5798 263.607 91.5354C263.788 91.8772 263.321 92.2751 262.95 92.1672C262.579 92.0593 262.368 91.6673 262.27 91.2938C262.171 90.9202 262.139 90.5194 261.94 90.1877C261.742 89.856 261.292 89.6254 260.964 89.8299C260.498 89.7745 260.45 89.0713 260.721 88.6875C260.992 88.3037 261.438 88.0399 261.604 87.6005C261.736 87.2526 261.666 86.8622 261.728 86.4954C261.791 86.1285 262.103 85.7369 262.463 85.8306C262.451 86.4753 262.526 87.1442 262.853 87.7C263.18 88.2557 263.806 88.6715 264.446 88.5949Z" fill="#EFC9F9"/>
<path fill-rule="evenodd" clip-rule="evenodd" d="M205.743 87.3247C206.257 86.7282 206.901 86.2176 207.657 86.0004C208.413 85.7831 209.291 85.8976 209.881 86.4176C210.524 86.9834 210.725 87.9286 210.589 88.7738C210.452 89.6189 210.026 90.3868 209.577 91.1161C208.995 92.0624 208.363 92.9779 207.685 93.8575C207.473 94.1323 207.24 94.4156 206.916 94.538C206.487 94.6997 206.009 94.5423 205.586 94.3656C204.1 93.7446 202.72 92.8734 201.519 91.7997C200.42 90.8165 199.407 89.3757 199.852 87.9699C200.136 87.0743 201.002 86.4265 201.931 86.2882C202.861 86.1499 203.824 86.4773 204.563 87.0575C204.916 87.3351 205.45 87.6655 205.743 87.3247M201.05 87.845C200.348 88.8103 201.11 90.1626 201.994 90.9642C203.097 91.9642 204.407 92.7031 205.705 93.4333C205.871 93.5271 206.058 93.6242 206.245 93.5839C206.411 93.5479 206.535 93.4113 206.645 93.281C207.524 92.2394 208.311 91.1206 208.995 89.9416C209.521 89.0347 209.907 87.7022 209.06 87.0848C208.389 86.5963 207.412 86.9899 206.844 87.594C206.275 88.198 205.918 88.9869 205.297 89.5366C204.811 88.7721 204.296 87.9778 203.509 87.5292C202.723 87.0805 201.582 87.1126 201.05 87.845H201.05Z" fill="#EFC9F9"/>
<path fill-rule="evenodd" clip-rule="evenodd" d="M195.694 60.9435C197.302 59.6893 199.091 58.6662 200.987 57.9152C202.15 57.4548 203.477 57.1004 204.626 57.5934C206.467 58.3835 206.826 61.0275 205.857 62.7814C204.888 64.5352 203.051 65.5984 201.302 66.5754C197.871 68.4915 194.441 70.4076 191.01 72.3236C191.686 70.9753 190.924 69.3927 190.3 68.0198C188.894 64.9279 188.158 61.5334 188.158 58.137C188.157 57.064 188.238 55.9588 188.708 54.9946C189.179 54.0305 190.118 53.2308 191.191 53.2056C192.907 53.1652 194.049 54.9527 194.628 56.569C195.135 57.9845 195.493 59.4534 195.694 60.9435ZM202.964 58.4853C200.19 59.049 197.605 60.5086 195.689 62.5931C195.5 62.7984 195.134 62.7079 194.961 62.4887C194.789 62.2695 194.756 61.9755 194.723 61.6986C194.507 59.8649 194.027 58.0625 193.304 56.3638C192.901 55.4168 192.225 54.371 191.196 54.3543C190.433 54.342 189.769 54.9528 189.488 55.6619C189.207 56.371 189.23 57.1604 189.284 57.9214C189.585 62.1655 190.702 66.3504 192.555 70.1802C195.59 68.4796 198.625 66.7791 201.659 65.0785C202.606 64.5479 203.57 64.0041 204.306 63.2066C205.042 62.4091 205.527 61.3009 205.313 60.2368C205.099 59.1727 204.028 58.2692 202.964 58.4853Z" fill="#EFC9F9"/>
<path fill-rule="evenodd" clip-rule="evenodd" d="M174.46 271.156C183.317 270.147 192.231 269.639 201.146 269.635C202.781 269.634 204.204 268.364 204.868 266.87C205.533 265.375 205.586 263.69 205.587 262.055C205.59 255.979 205.018 249.919 204.448 243.87C204.216 241.417 203.985 238.964 203.753 236.511C203.613 235.022 203.464 233.501 202.837 232.143C201.749 229.788 199.341 228.256 196.831 227.596C194.322 226.936 191.685 227.027 189.092 227.122C180.483 227.437 171.875 227.752 163.266 228.067C168.229 226.247 173.633 226.162 178.918 226.097C182.97 226.048 187.022 225.999 191.074 225.949C195.216 225.899 199.948 226.106 202.59 229.296C204.297 231.357 204.674 234.179 204.959 236.839C205.857 245.216 206.515 253.619 206.932 262.034C207.07 264.822 206.958 268.099 204.688 269.724C203.418 270.633 201.77 270.769 200.213 270.875C190.726 271.517 181.239 272.16 171.752 272.803C169.525 272.953 167.177 273.082 165.173 272.098C164.477 271.756 163.762 270.982 164.136 270.303C167.22 271.982 170.971 271.554 174.46 271.156Z" fill="#00160A"/>
<path fill-rule="evenodd" clip-rule="evenodd" d="M136.94 136.778C137.118 137.044 137.158 137.375 137.194 137.692C137.277 138.432 137.36 139.171 137.443 139.91C137.542 140.787 137.562 141.849 136.835 142.349C136.447 142.616 135.947 142.638 135.477 142.65C125.58 142.918 115.684 143.185 105.788 143.452C105.152 143.47 104.415 143.442 104.024 142.939C103.78 142.623 103.742 142.198 103.719 141.799C103.647 140.545 103.627 139.289 103.659 138.033C103.664 137.842 103.675 137.637 103.793 137.487C103.936 137.307 104.186 137.263 104.413 137.232C114.638 135.847 125.001 135.481 135.299 136.142C135.907 136.181 136.601 136.272 136.94 136.778M136.534 141.588C135.529 141.045 136.541 139.453 136.176 138.371C135.862 137.441 134.669 137.221 133.689 137.165C124.358 136.634 114.978 136.966 105.707 138.154C105.366 138.198 104.987 138.264 104.78 138.538C104.575 138.81 104.612 139.187 104.659 139.524C104.731 140.045 104.803 140.567 104.875 141.088C104.932 141.499 105.019 141.96 105.364 142.19C105.615 142.357 105.937 142.355 106.238 142.348C116.336 142.094 126.435 141.841 136.534 141.588Z" fill="#00160A"/>
<path fill-rule="evenodd" clip-rule="evenodd" d="M155.556 154.298C155.603 153.2 155.651 152.101 155.698 151.003C155.789 148.861 155.902 146.639 156.897 144.741C157.893 142.842 160.042 141.367 162.128 141.86C163.433 142.169 164.636 143.195 165.949 142.919C167.091 142.679 167.792 141.55 168.758 140.893C171.059 139.327 174.267 140.781 176.17 142.813C178.222 145.002 179.555 147.853 179.92 150.831C179.951 151.084 179.967 151.368 179.804 151.564C179.669 151.726 179.449 151.782 179.243 151.829C178.451 152.01 177.659 152.192 176.866 152.373C176.192 152.528 175.492 152.683 174.814 152.543C174.136 152.402 173.485 151.88 173.431 151.19C173.228 155.046 176.116 158.729 175.311 162.505C175.012 162.342 174.713 162.179 174.414 162.015C175.12 158.228 171.745 154.562 172.449 150.775C172.543 150.273 172.744 149.74 173.192 149.497C173.64 149.253 174.349 149.53 174.331 150.039C174.303 150.856 175.184 151.465 176.001 151.458C176.817 151.451 177.56 151.014 178.258 150.589C178.506 150.438 178.438 150.064 178.335 149.792C177.563 147.766 176.547 145.833 175.318 144.048C174.487 142.841 173.486 141.648 172.105 141.158C170.724 140.668 168.9 141.168 168.392 142.542C167.797 144.151 165.548 144.259 163.897 143.795C162.246 143.331 160.393 142.607 158.92 143.485C157.688 144.22 157.275 145.784 157.045 147.2C156.649 149.628 156.466 152.091 156.499 154.551C156.566 154.927 157.045 155.048 157.426 155.038C159.434 154.986 161.299 153.402 161.675 151.428C162.217 152.051 162.41 152.894 162.585 153.7C163.191 156.492 163.797 159.283 164.404 162.075C164.59 162.934 164.372 164.255 163.507 164.098C163.115 161.054 162.534 158.034 161.769 155.061C160.323 155.39 158.876 155.719 157.429 156.048C156.986 156.148 156.489 156.242 156.101 156.004C155.565 155.677 155.529 154.926 155.556 154.298Z" fill="#00160A"/>
<path fill-rule="evenodd" clip-rule="evenodd" d="M197.874 230.114C198.612 230.914 197.465 232.391 198.142 233.243C198.492 233.686 198.242 234.388 197.777 234.709C197.313 235.029 196.717 235.073 196.153 235.105C186.462 235.668 176.771 236.232 167.08 236.795C166.421 236.833 165.634 236.811 165.274 236.258C165.117 236.016 165.079 235.719 165.045 235.432C164.956 234.688 164.868 233.943 164.779 233.198C164.752 232.965 164.727 232.714 164.837 232.506C165.018 232.163 165.468 232.088 165.855 232.054C176.04 231.155 186.237 230.395 196.443 229.774C196.95 229.744 197.53 229.741 197.874 230.114ZM196.762 231.372C196.73 231.188 196.689 230.987 196.542 230.872C196.396 230.758 196.191 230.766 196.006 230.78C186.969 231.438 177.932 232.097 168.896 232.756C168.165 232.809 167.408 232.87 166.77 233.23C166.132 233.59 165.651 234.339 165.842 235.046C165.902 235.265 166.028 235.473 166.222 235.591C166.46 235.735 166.757 235.724 167.035 235.709C176.575 235.192 186.116 234.674 195.657 234.157C196.791 234.095 196.954 232.492 196.762 231.372Z" fill="#00160A"/>
<path fill-rule="evenodd" clip-rule="evenodd" d="M205.521 221.436C207.236 225.95 207.783 230.809 208.316 235.609C209.554 246.758 210.792 257.908 212.03 269.058C211.109 269.134 210.684 267.951 210.57 267.034C208.694 252.032 208.09 236.836 204.918 222.054C205.119 221.848 205.32 221.642 205.521 221.436Z" fill="#00160A"/>
<path fill-rule="evenodd" clip-rule="evenodd" d="M150.189 143.769C149.922 143.655 149.927 143.239 150.132 143.033C150.336 142.827 150.646 142.777 150.934 142.741C153.089 142.467 155.262 142.334 157.434 142.342C157.319 143.269 156.122 143.54 155.189 143.583C153.621 143.655 152.054 143.728 150.486 143.8C150.386 143.805 150.281 143.809 150.189 143.769L150.189 143.769Z" fill="#00160A"/>
<path fill-rule="evenodd" clip-rule="evenodd" d="M162.346 257.157C162.167 253.838 161.988 250.519 161.809 247.201C161.327 238.269 160.831 229.245 158.344 220.652C158.027 219.555 157.664 218.442 156.961 217.542C155.2 215.289 151.941 215.03 149.082 215.03C138.059 215.031 127.036 216.079 116.211 218.156C115.111 218.367 113.967 218.61 113.09 219.305C111.695 220.411 111.327 222.355 111.198 224.13C110.961 227.371 111.195 230.645 111.89 233.82C111.493 233.753 111.095 233.687 110.697 233.621C109.238 230.582 108.574 227.167 108.787 223.804C108.879 222.343 109.148 220.856 109.9 219.601C111.772 216.479 115.893 215.73 119.512 215.342C128.695 214.359 137.912 213.697 147.141 213.357C150.855 213.22 155.053 213.324 157.602 216.03C158.885 217.39 159.534 219.219 160.044 221.018C161.815 227.268 162.304 233.798 162.784 240.276C163.252 246.605 163.721 252.935 164.19 259.264C164.3 260.752 164.409 262.262 164.108 263.723C163.127 268.484 158.057 271.38 153.231 271.956C148.404 272.532 143.545 271.429 138.685 271.348C132.15 271.239 125.575 272.977 119.129 271.891C117.273 271.578 115.299 270.92 114.278 269.338C113.57 268.241 113.443 266.88 113.334 265.579C112.57 256.399 111.805 247.219 111.041 238.038C110.99 237.424 111.447 236.507 111.919 236.904C112.762 245.747 113.605 254.59 114.448 263.432C114.562 264.629 114.686 265.861 115.242 266.927C116.05 268.474 117.68 269.458 119.369 269.896C121.059 270.334 122.83 270.299 124.576 270.276C131.96 270.18 139.349 270.363 146.72 270.827C149.185 270.982 151.676 271.167 154.111 270.754C156.546 270.34 158.962 269.255 160.473 267.302C162.626 264.52 162.536 260.669 162.346 257.157Z" fill="#00160A"/>
<path fill-rule="evenodd" clip-rule="evenodd" d="M149.814 140.18C150.502 139.644 149.924 138.545 150.059 137.684C150.251 136.466 151.767 136.048 152.992 135.906C160.86 134.997 168.784 134.567 176.704 134.619C177.363 134.624 178.142 134.697 178.474 135.266C178.873 135.95 178.502 137.143 179.256 137.383C179.61 137.495 180.064 137.287 180.332 137.544C180.776 137.969 179.95 138.543 179.338 138.598C170.069 139.43 160.78 140.039 151.481 140.424C150.912 140.447 150.309 140.462 149.814 140.18M177.502 136.342C177.285 135.797 176.561 135.718 175.975 135.726C168.507 135.84 161.044 136.209 153.601 136.833C152.729 136.906 151.699 137.088 151.335 137.884C151.161 138.337 151.494 138.858 151.934 139.064C152.373 139.269 152.882 139.243 153.366 139.212C160.8 138.74 168.235 138.269 175.669 137.797C176.127 137.768 176.604 137.733 176.998 137.5C177.393 137.266 177.671 136.768 177.502 136.342Z" fill="#00160A"/>
<path fill-rule="evenodd" clip-rule="evenodd" d="M187.522 245.435C188.669 246.346 188.179 248.342 189.176 249.414C189.64 249.913 190.334 250.108 190.988 250.299C191.408 250.422 191.928 250.73 191.794 251.147C191.657 251.574 191.035 251.505 190.618 251.342C189.256 250.808 187.719 249.92 187.644 248.459C187.589 247.392 187.272 246.34 186.729 245.42C186.882 245.161 187.287 245.248 187.522 245.435V245.435Z" fill="#00160A"/>
<path fill-rule="evenodd" clip-rule="evenodd" d="M192.945 260.548C192.571 255.739 192.198 250.929 191.824 246.12C191.77 245.413 191.707 244.68 191.357 244.064C191.007 243.447 190.282 242.983 189.597 243.166C186.499 243.997 183.282 244.383 180.075 244.307C177.271 244.24 174.402 243.831 171.705 244.598C171.755 245.934 171.805 247.27 171.855 248.606C171.87 248.996 171.892 249.41 172.114 249.731C172.736 250.631 174.28 249.945 174.631 248.908C174.982 247.872 174.665 246.738 174.725 245.646C174.736 245.452 174.775 245.232 174.939 245.13C175.289 244.912 175.626 245.432 175.715 245.834C175.973 246.986 176.229 248.193 175.926 249.334C175.622 250.475 174.563 251.509 173.392 251.358C172.179 251.202 171.682 252.861 171.653 254.084C171.594 256.525 171.536 258.966 171.477 261.408C171.458 262.176 171.735 263.238 172.499 263.151C174.47 262.928 176.442 262.704 178.413 262.48C178.89 262.426 179.402 262.379 179.821 262.612C180.24 262.845 180.462 263.48 180.119 263.814C177.803 264.017 175.487 264.22 173.172 264.423C172.495 264.482 171.793 264.539 171.155 264.307C170.517 264.075 169.962 263.468 170.02 262.791C170.589 256.15 170.717 249.471 170.401 242.813C170.334 241.397 172.059 240.678 173.453 240.416C177.877 239.587 182.388 239.227 186.888 239.345C188.396 239.385 190.04 239.534 191.134 240.574C192.248 241.632 192.467 243.299 192.62 244.828C193.196 250.557 193.771 256.286 194.347 262.015C194.378 262.324 194.385 262.691 194.138 262.879C193.991 262.991 193.793 263.003 193.608 263.011C191.687 263.091 189.767 263.171 187.847 263.251C186.83 263.293 185.735 263.315 184.888 262.75C184.307 262.362 183.923 261.746 183.585 261.135C182.776 259.668 182.129 258.112 181.66 256.503C180.926 258.342 180.461 260.288 180.285 262.26C179.357 262.361 179.184 260.968 179.4 260.06C179.845 258.186 180.29 256.312 180.736 254.439C180.803 254.153 180.911 253.823 181.191 253.734C181.603 253.605 181.919 254.098 182.069 254.502C182.696 256.188 183.323 257.873 183.951 259.558C184.49 261.009 186.047 261.881 187.584 262.059C189.122 262.238 190.662 261.851 192.162 261.467C192.458 261.391 192.795 261.282 192.91 260.998C192.967 260.857 192.956 260.699 192.945 260.548ZM172.055 242.939C173.445 242.957 174.836 242.975 176.226 242.993C177.271 243.007 178.316 243.02 179.361 243C183.132 242.929 186.894 242.424 190.551 241.496C189.735 240.659 188.427 240.612 187.258 240.633C183.076 240.708 178.897 240.951 174.734 241.362C173.621 241.472 172.236 241.835 172.055 242.939L172.055 242.939Z" fill="#00160A"/>
<path fill-rule="evenodd" clip-rule="evenodd" d="M165.83 239.338C165.751 238.903 166.315 238.666 166.751 238.598C171.796 237.816 176.909 237.47 182.013 237.566C182.086 237.567 182.162 237.569 182.229 237.598C182.469 237.698 182.458 238.075 182.267 238.251C182.077 238.428 181.797 238.458 181.539 238.477C176.678 238.842 171.746 238.654 166.985 239.694C166.542 239.79 165.912 239.783 165.83 239.338L165.83 239.338Z" fill="#00160A"/>
<path fill-rule="evenodd" clip-rule="evenodd" d="M278.652 228.892C278.93 228.235 279.238 227.541 279.829 227.142C280.328 226.805 280.953 226.731 281.552 226.666C283.328 226.473 285.104 226.28 286.88 226.087C287.759 225.992 288.893 225.621 288.859 224.738C288.751 221.887 288.972 218.603 291.237 216.868C293.309 215.28 296.412 215.716 298.538 217.23C300.665 218.744 302.012 221.103 303.173 223.441C303.688 224.476 305.097 224.664 306.235 224.465C307.374 224.265 308.528 223.817 309.652 224.09C311.381 224.51 312.255 226.399 312.85 228.077C315.833 236.496 317.857 245.273 321.568 253.398C322.955 256.437 322.516 260.229 320.471 262.87C320.218 260.773 320.57 258.607 321.472 256.697C321.897 255.797 320.482 255.205 319.487 255.208C309.344 255.233 299.158 255.262 289.127 256.767C288.821 256.813 288.495 256.869 288.267 257.079C288.045 257.282 287.959 257.59 287.882 257.881C287.571 259.062 287.26 260.244 286.949 261.425C286.754 262.165 286.876 263.314 287.638 263.237C297.565 262.232 307.545 261.752 317.523 261.801C318.572 261.807 320.005 262.223 319.869 263.263C309.24 263.389 298.571 263.517 288.057 265.082C286.383 265.331 285.227 263.258 285.417 261.576C285.607 259.894 286.571 258.385 286.843 256.715C287.078 255.275 286.784 253.806 286.469 252.381C285.967 250.117 285.407 247.866 284.789 245.631C284.185 243.449 283.526 241.284 282.868 239.118C281.872 235.843 280.875 232.568 279.879 229.292C278.509 231.299 277.898 233.811 278.195 236.222C278.402 237.9 279.024 239.495 279.491 241.121C280.157 243.445 280.507 245.846 280.855 248.239C281.541 252.952 282.227 257.665 282.913 262.379C283.013 263.072 282.814 264.094 282.121 263.991C279.038 254.455 279.885 243.912 276.247 234.574C277.048 232.68 277.85 230.786 278.652 228.892ZM301.611 230.623C302.616 230.064 303.136 228.76 302.791 227.663C302.447 226.566 301.275 225.793 300.131 225.909C297.326 226.193 294.522 226.477 291.717 226.761C291.458 226.788 291.168 226.831 291.013 227.039C290.89 227.204 290.888 227.426 290.9 227.631C290.974 228.913 291.419 230.171 292.166 231.214C292.747 232.025 293.55 232.996 293.097 233.884C292.53 234.994 290.668 234.372 290.206 233.215C289.744 232.057 290.073 230.75 289.987 229.507C289.901 228.264 289.007 226.832 287.778 227.039C285.763 227.379 283.747 227.718 281.731 228.057C281.442 228.106 281.064 228.285 281.149 228.566C283.603 236.69 286.058 244.815 288.512 252.94C288.818 253.952 289.508 255.206 290.538 254.965C299.992 252.757 309.961 254.845 319.561 253.394C316.685 244.377 313.709 235.392 310.635 226.44C310.544 226.176 310.442 225.896 310.216 225.731C309.966 225.548 309.631 225.554 309.322 225.567C307.882 225.628 306.442 225.689 305.002 225.75C304.432 225.774 303.656 226.045 303.78 226.602C304.172 228.346 304.563 230.091 304.954 231.835C305.022 232.135 305.088 232.457 304.976 232.743C304.671 233.523 303.523 233.326 302.757 232.989C302.255 232.767 301.726 232.525 301.415 232.072C301.105 231.619 301.131 230.889 301.611 230.623ZM297.9 217.966C296.795 217.156 295.343 216.572 294.069 217.073C293.624 217.248 293.239 217.542 292.86 217.833C292.185 218.349 291.489 218.89 291.091 219.641C290.72 220.34 290.644 221.153 290.574 221.941C290.514 222.63 290.453 223.319 290.393 224.007C290.355 224.435 290.34 224.925 290.65 225.222C290.947 225.506 291.413 225.486 291.823 225.447C294.756 225.168 297.689 224.889 300.622 224.61C301.04 224.57 301.551 224.457 301.661 224.051C301.705 223.891 301.67 223.721 301.631 223.56C301.09 221.337 299.744 219.319 297.9 217.966ZM296.801 225.253C296.506 225.337 296.834 225.89 297.049 225.671C297.324 225.559 297.019 225.043 296.788 225.229L296.801 225.253Z" fill="#EFC9F9"/>
<path fill-rule="evenodd" clip-rule="evenodd" d="M203.802 159.313C203.751 159.141 203.853 158.962 203.973 158.829C204.564 158.178 205.554 158.13 206.433 158.128C211.762 158.115 217.092 158.103 222.422 158.09C222.797 158.09 223.199 158.097 223.505 158.314C223.812 158.53 223.931 159.041 223.637 159.274C223.481 159.398 223.265 159.406 223.065 159.408C216.873 159.477 210.681 159.546 204.49 159.614C204.22 159.617 203.879 159.571 203.802 159.313Z" fill="#00160A"/>
<path fill-rule="evenodd" clip-rule="evenodd" d="M205.777 164.815C205.456 164.631 205.501 164.113 205.771 163.859C206.041 163.606 206.434 163.546 206.802 163.502C209.008 163.236 211.227 163.089 213.445 162.943C214.666 162.863 215.888 162.782 217.11 162.702C218.698 162.597 220.286 162.493 221.875 162.388C222.379 162.355 222.942 162.34 223.322 162.674C223.702 163.008 223.61 163.81 223.105 163.841C217.499 164.188 211.893 164.536 206.288 164.883C206.114 164.894 205.928 164.902 205.777 164.815L205.777 164.815Z" fill="#00160A"/>
<path fill-rule="evenodd" clip-rule="evenodd" d="M235.826 172.063C236.25 171.258 236.71 170.414 237.489 169.945C238.268 169.476 239.463 169.573 239.883 170.38C240.33 171.239 239.665 172.274 238.885 172.847C238.105 173.42 237.146 173.824 236.639 174.649C239.378 176.454 242.117 178.259 244.856 180.064C247.001 181.477 249.429 183.496 248.99 186.028C248.732 187.512 247.474 188.665 246.073 189.219C244.672 189.773 243.132 189.831 241.627 189.874C231.507 190.165 221.378 190.114 211.261 189.72C210.56 189.693 209.777 189.627 209.309 189.103C208.947 188.697 208.872 188.118 208.814 187.577C208.231 182.193 207.649 176.808 207.067 171.424C207.045 171.225 207.025 171.017 207.096 170.83C207.396 170.044 208.572 170.529 209.229 171.053C213.886 174.77 221.331 174.334 225.521 170.098C226.534 169.074 228.257 169.206 229.558 169.824C230.859 170.441 231.947 171.445 233.252 172.053C233.113 171.298 233.778 170.502 234.545 170.505C235.313 170.508 235.971 171.31 235.826 172.063ZM236.399 175.532C236.067 174.31 234.261 174.054 233.264 174.836C232.268 175.618 231.946 176.98 231.859 178.243C231.827 178.715 231.052 178.762 230.786 178.371C230.521 177.98 230.628 177.454 230.776 177.005C231.165 175.821 231.764 174.706 232.537 173.728C232.919 173.243 232.358 172.588 231.853 172.233C230.072 170.981 227.549 169.745 225.914 171.184C221.436 175.129 214.292 175.654 209.284 172.408C209.344 176.449 209.642 180.487 210.175 184.494C210.229 184.898 210.298 185.329 210.577 185.626C210.946 186.019 211.55 186.046 212.089 186.047C220.788 186.058 229.488 186.069 238.187 186.08C239.034 186.081 240.184 185.779 240.118 184.935C239.965 182.971 240.834 180.955 242.368 179.718C241.162 178.842 239.955 177.965 238.749 177.089C238.381 176.822 237.995 176.547 237.547 176.47C236.194 176.238 235.289 177.79 234.81 179.077C234.077 177.765 234.932 175.857 236.399 175.532ZM213.663 188.943C222.722 189.014 231.781 188.999 240.84 188.898C243.412 188.869 246.415 188.608 247.809 186.447C235.3 186.996 222.773 187.132 210.255 186.854C210.099 188.357 212.152 188.931 213.663 188.943ZM244.665 180.868C244.396 180.697 244.117 180.523 243.803 180.469C242.854 180.306 242.106 181.253 241.694 182.123C241.455 182.626 241.248 183.144 241.074 183.672C240.941 184.075 240.827 184.503 240.91 184.919C240.993 185.335 241.334 185.728 241.758 185.733C243.299 185.75 244.839 185.734 246.379 185.684C246.742 185.672 247.137 185.646 247.409 185.405C247.729 185.121 247.768 184.632 247.688 184.212C247.398 182.691 245.973 181.697 244.665 180.868ZM239.224 171.034C239.207 170.565 238.581 170.326 238.147 170.508C237.714 170.689 237.448 171.119 237.21 171.524C236.923 172.013 236.635 172.502 236.348 172.991C236.197 173.248 236.116 173.684 236.406 173.749C237.171 173.113 237.936 172.477 238.7 171.841C238.956 171.629 239.236 171.367 239.224 171.034ZM234.267 171.799C234.137 172.431 234.462 173.13 235.029 173.439C235.225 172.788 235.11 172.049 234.725 171.489C234.701 171.33 234.486 171.238 234.355 171.331C234.254 171.459 234.218 171.635 234.261 171.792L234.267 171.799Z" fill="#00160A"/>
<path fill-rule="evenodd" clip-rule="evenodd" d="M203.12 153.144C202.891 152.031 202.661 150.918 202.431 149.805C202.341 149.373 202.259 148.892 202.486 148.513C202.796 147.997 203.503 147.928 204.106 147.917C218.892 147.66 233.684 147.716 248.469 148.086C249.477 148.111 250.305 148.982 250.612 149.944C250.919 150.905 250.818 151.942 250.714 152.946C250.658 153.488 250.568 154.093 250.136 154.425C249.782 154.697 249.298 154.704 248.852 154.699C234.002 154.537 219.152 154.374 204.303 154.212C204.058 154.21 203.8 154.203 203.593 154.073C203.29 153.882 203.193 153.494 203.12 153.144ZM205.163 148.894C204.07 148.886 203.295 150.184 203.568 151.243C203.841 152.301 204.864 153.029 205.926 153.287C206.988 153.544 208.1 153.42 209.189 153.318C222.599 152.065 236.16 154.46 249.56 153.108C249.63 152.293 249.697 151.45 249.435 150.675C249.172 149.9 248.488 149.206 247.67 149.2C233.501 149.098 219.332 148.996 205.163 148.894Z" fill="#00160A"/>
<path fill-rule="evenodd" clip-rule="evenodd" d="M113.958 185.383C113.463 186.321 112.78 187.274 111.757 187.553C109.808 188.085 108.197 185.921 107.665 183.972C106.835 180.93 107.045 177.613 108.252 174.7C108.898 173.141 108.36 171.299 107.347 169.949C105.436 167.405 101.873 166.29 98.811 167.156C95.749 168.022 93.3327 170.745 92.6922 173.862C92.5919 174.35 92.6628 175.036 93.1561 175.105C95.617 175.449 96.7468 178.338 97.1214 180.794C97.4075 182.67 97.5318 184.635 96.8956 186.422C96.2593 188.21 94.7021 189.78 92.8102 189.924C91.1125 188.78 89.8342 187.028 89.2641 185.062C88.2037 181.406 89.5812 177.531 91.0034 173.999C91.8714 171.844 92.8032 169.638 94.452 168.001C97.9764 164.502 104.558 164.918 107.614 168.832C108.79 170.337 109.465 172.208 110.768 173.605C111.75 174.658 113.049 175.395 113.945 176.522C115.891 178.97 115.417 182.617 113.958 185.383ZM90.3424 178.624C89.45 181.083 89.6985 183.931 91.0035 186.199C91.2179 186.571 91.4729 186.942 91.8476 187.152C92.2222 187.363 92.7444 187.366 93.0406 187.055C93.9281 186.122 94.039 184.711 94.0361 183.423C94.0326 181.9 93.9387 180.378 93.7551 178.866C93.6799 178.247 93.5516 177.563 93.0512 177.191C92.5507 176.819 91.6113 177.13 91.6899 177.749C91.9186 179.548 92.1472 181.348 92.3759 183.147C92.4279 183.556 92.4738 183.999 92.2686 184.357C92.0635 184.715 91.497 184.882 91.2373 184.561C90.5643 183.188 90.3613 181.59 90.6698 180.092C90.7807 179.553 90.8573 178.816 90.3424 178.624M110.943 185.76C111.17 185.582 111.276 185.294 111.361 185.018C112.028 182.852 112.035 180.487 111.381 178.317C111.133 177.491 110.459 176.526 109.642 176.803C109.171 176.962 108.932 177.479 108.781 177.954C108.099 180.111 108.19 182.505 109.034 184.604C109.195 185.007 109.395 185.413 109.738 185.679C110.08 185.945 110.601 186.026 110.943 185.76ZM94.9257 177.974C95.5203 180.987 95.3938 184.14 94.5598 187.096C94.483 187.368 94.7916 187.581 95.0501 187.695C96.3012 184.661 96.4596 181.189 95.49 178.053C95.3293 177.939 95.1119 177.908 94.9257 177.974ZM112.283 177.16C112.098 177.455 111.913 177.75 111.728 178.045C112.337 177.942 112.616 178.773 112.649 179.39C112.724 180.816 112.8 182.242 112.875 183.668C113.442 183.456 113.545 182.711 113.556 182.105C113.579 180.74 113.603 179.376 113.627 178.011C113.423 177.987 113.218 177.963 113.014 177.939C112.993 177.553 112.667 177.205 112.283 177.16Z" fill="#00160A"/>
<path fill-rule="evenodd" clip-rule="evenodd" d="M179.177 179.748C175.112 179.554 171.029 179.73 166.995 180.274C166.638 180.322 166.239 180.363 165.952 180.145C165.665 179.927 165.696 179.349 166.054 179.31C170.088 178.867 174.139 178.582 178.196 178.455C178.637 178.442 179.131 178.45 179.445 178.759C179.759 179.069 179.618 179.769 179.177 179.748Z" fill="#00160A"/>
<path fill-rule="evenodd" clip-rule="evenodd" d="M84.7423 163.515C85.8964 163.407 87.0505 163.298 88.2046 163.19C88.786 163.135 89.3674 163.081 89.9488 163.026C93.6467 162.679 97.3448 162.331 101.046 162.022C101.192 162.01 101.343 161.999 101.478 162.055C101.879 162.221 101.817 162.869 101.468 163.126C101.119 163.384 100.647 163.369 100.213 163.354C94.7623 163.173 89.3298 164.811 83.9039 164.257C83.5513 164.221 83.0902 164.039 83.1523 163.69C83.6803 163.615 84.2114 163.565 84.7423 163.515Z" fill="#00160A"/>
<path fill-rule="evenodd" clip-rule="evenodd" d="M209.048 283.305C208.866 281.717 208.736 279.99 207.669 278.801C206.85 277.889 207.273 276.193 208.425 275.773C209.577 275.353 210.993 276.379 210.953 277.604C210.939 278.025 210.786 278.426 210.667 278.83C209.853 281.587 210.609 284.554 211.604 287.251C212.612 289.982 214.155 292.889 216.924 293.787C220.128 294.825 223.673 292.527 225.093 289.473C226.514 286.419 226.297 282.873 225.801 279.542C225.752 279.208 225.662 278.822 225.355 278.681C224.109 278.105 223.92 276.084 225.038 275.287C226.156 274.491 228.005 275.33 228.142 276.695C228.188 277.159 228.07 277.62 227.982 278.077C227.369 281.25 228.179 284.575 227.508 287.736C227.088 289.715 226.081 291.565 224.647 292.992C223.127 294.506 221.074 295.549 218.929 295.586C216.041 295.635 213.34 293.843 211.708 291.461C210.076 289.078 209.376 286.175 209.048 283.305Z" fill="#00160A"/>
<path fill-rule="evenodd" clip-rule="evenodd" d="M124.83 152.971C124.91 154.058 124.987 155.179 124.648 156.215C124.309 157.251 123.448 158.196 122.362 158.289C116.761 158.77 111.16 159.252 105.549 159.584C97.8985 160.037 90.2342 160.211 82.5718 160.386C82.2985 160.392 82.0059 160.393 81.7777 160.242C81.4354 160.016 81.3713 159.549 81.3397 159.14C81.2568 158.069 81.174 156.998 81.0911 155.927C81.0659 155.601 81.0468 155.249 81.2224 154.973C81.4795 154.57 82.03 154.5 82.5077 154.472C96.6005 153.637 110.713 153.136 124.83 152.971ZM122.472 156.728C123.372 156.668 123.554 155.251 122.894 154.636C122.234 154.021 121.232 154.007 120.33 154.03C108.731 154.318 97.1288 154.606 85.5538 155.394C84.7202 155.45 83.853 155.52 83.1324 155.943C82.4118 156.365 81.8916 157.255 82.1669 158.043C82.558 159.164 84.0699 159.287 85.2542 159.208C97.6601 158.382 110.066 157.555 122.472 156.728Z" fill="#00160A"/>
<path fill-rule="evenodd" clip-rule="evenodd" d="M110.43 180.038C110.441 180.332 110.452 180.627 110.463 180.922C110.486 181.535 110.509 182.152 110.421 182.759C109.652 182.678 109.413 181.688 109.368 180.917C109.347 180.549 109.34 180.139 109.586 179.866C109.832 179.592 110.416 179.67 110.43 180.038L110.43 180.038Z" fill="#00160A"/>
<path fill-rule="evenodd" clip-rule="evenodd" d="M165.805 182.549C166.559 181.852 167.707 181.874 168.733 181.903C171.98 181.995 175.237 181.744 178.432 181.156C178.809 181.086 179.011 181.672 178.777 181.975C178.542 182.277 178.118 182.341 177.737 182.379C174.136 182.745 170.52 182.962 166.902 183.03C166.471 183.038 165.924 182.963 165.805 182.549Z" fill="#00160A"/>
<path fill-rule="evenodd" clip-rule="evenodd" d="M287.032 194.723C286.676 195.927 285.493 196.672 284.365 197.224C278.718 199.986 272.08 200.662 265.992 199.095C263.948 198.569 261.618 197.352 261.531 195.242C261.467 193.692 262.704 192.392 264.015 191.561C266.026 190.286 268.37 189.642 270.707 189.188C275.216 188.312 280.104 188.131 284.186 190.238C285.896 191.121 287.577 192.877 287.032 194.723M262.925 195.008C262.928 196.711 264.829 197.709 266.477 198.141C272.2 199.642 278.46 198.995 283.754 196.354C284.604 195.93 285.5 195.371 285.77 194.461C286.133 193.238 285.185 192.007 284.134 191.284C280.971 189.111 276.786 189.408 272.97 189.817C269.898 190.145 266.625 190.575 264.284 192.59C263.561 193.212 262.923 194.053 262.925 195.008L262.925 195.008Z" fill="#00160A"/>
<path fill-rule="evenodd" clip-rule="evenodd" d="M120.889 94.9305C120.697 93.8353 121.452 92.7469 122.425 92.209C123.399 91.6711 124.546 91.5673 125.656 91.502C135.553 90.9197 145.435 92.5092 155.336 93.0317C156.61 93.099 157.954 93.1694 159.026 93.8617C160.098 94.554 160.727 96.1077 159.986 97.1462C159.627 97.6484 159.034 97.9274 158.445 98.1133C156.748 98.6495 154.927 98.5784 153.148 98.5019C143.892 98.104 134.636 97.7061 125.38 97.3082C123.543 97.2292 121.208 96.7421 120.889 94.9305M122.16 93.3434C121.636 94.0804 122.074 95.1801 122.83 95.6759C123.586 96.1718 124.538 96.2276 125.44 96.2683C135.25 96.7097 145.06 97.1512 154.869 97.5926C155.825 97.6357 156.884 97.6451 157.608 97.0198C158.332 96.3945 158.236 94.9032 157.292 94.753C146.383 93.0186 135.314 92.2984 124.273 92.6045C123.498 92.626 122.608 92.711 122.16 93.3434" fill="#00160A"/>
<path fill-rule="evenodd" clip-rule="evenodd" d="M229.424 85.4256C230.929 82.2884 233.371 79.0545 236.84 78.787C239.152 78.6088 241.604 79.0131 243.433 80.4371C246.751 83.0197 246.982 88.0277 245.796 92.0614C244.399 96.8159 241.28 101.219 236.807 103.352C235.74 103.86 234.58 104.241 233.399 104.194C230.26 104.071 227.975 100.988 227.299 97.9205C226.373 93.7167 227.561 89.3065 229.424 85.4256M233.327 103.046C235.647 103.362 237.833 101.884 239.469 100.21C242.536 97.0718 244.596 92.9632 245.274 88.6278C245.47 87.3784 245.551 86.082 245.211 84.8639C244.543 82.4681 242.271 80.7367 239.835 80.2386C237.491 79.7595 234.915 80.3311 233.109 81.899C232.241 82.6525 231.566 83.6042 230.978 84.5916C229.057 87.8125 227.966 91.5605 228.099 95.308C228.16 97.001 228.481 98.7219 229.338 100.183C230.195 101.644 231.648 102.817 233.327 103.046Z" fill="#EFC9F9"/>
<path fill-rule="evenodd" clip-rule="evenodd" d="M153.345 218.574C153.654 218.558 153.985 218.547 154.246 218.712C154.569 218.916 154.687 219.322 154.78 219.692C154.983 220.503 155.188 221.346 155.024 222.166C154.86 222.986 154.213 223.773 153.378 223.809C151.248 223.902 149.118 223.996 146.988 224.089C146.153 224.125 145.174 224.244 144.759 224.97C144.478 225.462 144.561 226.073 144.654 226.632C144.915 228.216 145.653 230.22 147.258 230.162C148.325 230.123 149.277 230.933 149.737 231.898C150.196 232.862 150.265 233.96 150.326 235.026C150.383 236.03 150.127 237.402 149.122 237.427C148.311 237.447 148.088 238.543 148.113 239.354C148.292 244.991 148.471 250.629 148.65 256.267C148.679 257.175 147.515 257.557 146.611 257.648C139.033 258.413 131.377 258.393 123.803 257.588C123.532 257.559 123.185 257.453 123.179 257.18C123.039 250.81 122.899 244.44 122.759 238.07C122.75 237.698 122.568 237.185 122.21 237.283C121.081 237.591 119.947 236.544 119.713 235.397C119.479 234.251 119.88 233.081 120.275 231.979C120.458 231.47 120.663 230.93 121.099 230.611C122.032 229.93 123.756 230.415 124.174 229.338C124.243 229.16 124.257 228.965 124.25 228.775C124.192 227.111 122.642 225.798 121.011 225.469C119.379 225.14 117.697 225.573 116.108 226.069C115.744 224.694 115.65 223.249 115.835 221.84C115.878 221.507 115.946 221.157 116.17 220.907C116.488 220.55 117.019 220.501 117.497 220.475C129.446 219.842 141.396 219.208 153.345 218.574ZM121.486 231.48C121.256 231.747 121.205 232.119 121.164 232.469C121.056 233.38 120.948 234.292 120.84 235.203C120.817 235.395 120.796 235.597 120.873 235.774C121.039 236.153 121.539 236.218 121.952 236.229C124.146 236.283 126.34 236.338 128.533 236.392C128.903 236.401 129.291 236.406 129.62 236.236C130.148 235.962 130.365 235.218 130.067 234.703C130.336 234.676 130.604 234.648 130.872 234.621C130.754 235.416 131.564 236.081 132.359 236.198C133.154 236.315 133.953 236.072 134.754 236.009C136.434 235.876 138.111 236.535 139.784 236.337C139.96 236.316 140.148 236.28 140.271 236.152C140.432 235.985 140.429 235.725 140.416 235.493C140.353 234.383 140.289 233.272 140.226 232.161C140.206 231.811 140.176 231.435 139.951 231.166C139.63 230.783 139.055 230.771 138.555 230.79C136.14 230.883 133.725 230.977 131.31 231.07C131.142 231.077 130.955 231.091 130.838 231.213C130.707 231.349 130.716 231.563 130.734 231.752C130.815 232.616 130.896 233.48 130.977 234.345C130.657 234.376 130.343 234.469 130.058 234.619C129.986 233.938 129.915 233.257 129.844 232.576C129.779 231.955 129.535 231.159 128.911 231.151C126.918 231.125 124.925 231.098 122.931 231.071C122.413 231.064 121.824 231.088 121.486 231.48ZM132.97 238.181C132.936 237.722 132.738 237.115 132.28 237.165C129.438 237.47 126.561 237.452 123.723 237.112C123.793 243.297 123.908 249.481 124.069 255.664C124.089 256.46 125.094 256.779 125.886 256.86C128.238 257.101 130.607 257.183 132.97 257.106C133.164 257.1 133.374 257.086 133.521 256.961C133.715 256.796 133.728 256.506 133.725 256.251C133.658 250.222 133.406 244.195 132.97 238.181ZM147.183 237.84C147.106 237.707 146.928 237.679 146.775 237.666C144.33 237.459 141.872 237.401 139.42 237.492C139.198 237.5 138.96 237.515 138.784 237.651C138.516 237.858 138.5 238.248 138.508 238.586C138.643 244.759 138.778 250.932 138.913 257.105C141.613 257.365 144.361 257.11 146.967 256.358C147.129 256.311 147.301 256.255 147.406 256.123C147.518 255.98 147.526 255.784 147.528 255.602C147.58 251.63 147.477 247.659 147.374 243.688C147.326 241.818 147.278 239.947 147.23 238.077C147.227 237.995 147.224 237.91 147.183 237.84ZM116.866 222.192C116.397 222.929 116.901 223.969 117.671 224.381C118.442 224.793 119.365 224.753 120.237 224.703C125.514 224.397 130.79 224.091 136.066 223.785C141.098 223.494 146.13 223.202 151.154 222.793C151.89 222.733 152.663 222.658 153.271 222.239C153.879 221.82 154.232 220.935 153.824 220.32C153.415 219.702 152.536 219.674 151.796 219.712C140.832 220.278 129.869 220.843 118.905 221.409C118.148 221.448 117.273 221.552 116.866 222.192M137.955 256.961C137.585 250.935 137.511 244.891 137.735 238.858C137.748 238.511 137.76 238.151 137.621 237.833C137.217 236.904 135.919 236.907 134.918 237.062C134.46 237.133 133.876 237.351 133.91 237.813C134.339 243.584 134.769 249.364 134.672 255.15C134.659 255.916 135.098 256.673 135.769 257.043C136.44 257.413 137.314 257.38 137.955 256.961ZM149.278 234.715C149.148 233.919 149.012 233.105 148.624 232.398C148.235 231.691 147.54 231.098 146.734 231.058C145.203 230.982 143.672 230.906 142.141 230.829C141.743 230.81 141.192 230.93 141.211 231.328C141.269 232.54 141.328 233.751 141.386 234.963C141.412 235.492 141.51 236.13 142 236.331C142.158 236.396 142.333 236.4 142.504 236.404C144.5 236.45 146.496 236.496 148.492 236.541C148.873 236.55 149.193 236.215 149.297 235.848C149.401 235.482 149.34 235.091 149.278 234.715ZM139.614 228.745C139.414 227.904 139.206 227.043 138.727 226.322C138.249 225.602 137.438 225.039 136.575 225.102C135.246 225.2 133.917 225.298 132.588 225.396C131.76 225.456 130.822 225.576 130.337 226.249C129.75 227.064 130.152 228.201 129.994 229.192C129.938 229.541 130.21 229.874 130.536 230.01C130.862 230.145 131.228 230.129 131.58 230.111C133.959 229.988 136.339 229.866 138.718 229.744C139.067 229.726 139.486 229.662 139.626 229.341C139.706 229.155 139.661 228.942 139.614 228.745ZM143.783 227.221C143.33 226.601 143.342 225.682 143.809 225.073C142.975 224.556 141.807 224.651 141.069 225.298C140.331 225.945 140.082 227.09 140.485 227.985C140.628 228.301 140.546 228.674 140.646 229.006C140.789 229.476 141.281 229.771 141.769 229.832C142.257 229.892 142.746 229.764 143.221 229.637C143.844 229.471 144.602 229.138 144.596 228.493C144.592 227.978 144.087 227.637 143.783 227.221ZM128.915 229.429C129.191 228.525 128.819 227.494 128.11 226.87C127.401 226.246 126.407 226.002 125.466 226.087C125.087 226.121 124.693 226.215 124.419 226.478C124.146 226.741 124.048 227.215 124.294 227.504C124.477 227.717 124.788 227.779 124.979 227.985C125.27 228.299 125.172 228.8 125.305 229.207C125.606 230.126 126.854 230.213 127.817 230.125C128.147 230.095 128.511 230.048 128.728 229.798C128.819 229.693 128.874 229.562 128.915 229.429ZM129.071 226.388C129.294 226.172 129.335 225.793 129.162 225.534C128.777 225.42 128.347 225.649 128.145 225.995C128.296 226.34 128.718 226.538 129.079 226.435M140.043 225.429C140.099 225.278 140.066 225.097 139.961 224.976C139.596 224.861 139.171 224.964 138.9 225.234C139.178 225.551 139.686 225.636 140.053 225.428L140.043 225.429Z" fill="#00160A"/>
<path fill-rule="evenodd" clip-rule="evenodd" d="M287.137 199.813C275.44 204.387 263.742 208.961 252.045 213.535C247.014 215.503 241.192 218.456 240.653 223.832C247.488 218.573 255.931 215.435 264.542 214.953C258.593 222.448 251.082 228.696 242.63 233.181C235.039 237.209 225.429 241.505 224.778 250.074C232.93 240.366 245.464 234.489 258.14 234.431C250.03 246.309 237.026 254.734 222.871 257.281C223.357 260.931 223.842 264.581 224.328 268.231C229.138 268.061 233.977 268.749 238.548 270.253C241.804 284.239 245.059 298.225 248.315 312.211C249.116 315.653 249.821 319.608 247.714 322.445C245.623 325.258 241.674 325.743 238.178 325.991C224.396 326.971 210.614 327.951 196.832 328.93C195.182 321.455 193.532 313.979 191.882 306.504C168.635 308.662 145.389 310.821 122.142 312.979C117.246 313.434 112.069 313.841 107.639 311.709C91.571 303.973 72.0881 318.946 55.1173 313.468C70.028 313.187 84.8927 310.586 99.013 305.788C104.134 304.048 110.265 299.281 107.59 294.58C94.4949 303.717 77.6932 307.365 61.9885 304.48C62.9106 289.229 62.3176 273.886 60.2211 258.752C71.3955 257.153 82.408 254.425 93.0362 250.622C95.9926 249.564 99.034 248.347 101.139 246.017C103.245 243.687 104.096 239.924 102.246 237.387C86.0806 246 67.4158 249.856 49.1605 248.351C50.1131 269.007 51.0657 289.663 52.0182 310.319C49.3199 289.678 47.8889 268.871 47.7359 248.055C57.133 247.222 66.5301 246.389 75.9271 245.555C74.4162 238.848 72.8957 231.987 73.6718 225.155C74.448 218.323 77.9641 211.405 84.1446 208.392C79.4688 198.42 72.4024 189.578 63.7058 182.818C53.5109 174.895 40.4035 168.921 35.7479 156.877C32.6697 148.914 34.1796 139.651 38.4419 132.254C42.7042 124.857 49.4583 119.159 56.7991 114.8C46.6925 112.202 39.0373 102.128 39.2421 91.6946C39.4469 81.2616 47.4917 71.4953 57.6924 69.2962C52.8829 63.565 45.3099 60.9381 39.7783 55.9003C33.3344 50.0317 30.0963 40.5651 32.4435 32.1713C34.7908 23.7776 43.0552 17.1735 51.7631 17.5457C58.9158 17.8513 65.2103 22.3753 70.2031 27.5062C77.9463 35.4637 83.7051 45.3378 86.8186 55.9955C88.8938 63.0992 96.4993 66.7131 102.922 70.3894C109.345 74.0656 116.015 80.4693 114.206 87.6452C111.813 77.8257 103.78 69.5947 94.0209 66.965C88.9359 65.5947 87.0828 59.5437 85.4471 54.5378C82.2642 44.7966 76.8307 35.7984 69.6918 28.4459C64.3268 22.9205 57.3125 18.0989 49.6221 18.514C41.7054 18.9413 34.7265 25.3812 32.9166 33.1001C31.1066 40.819 34.1412 49.2769 39.9178 54.7073C45.8017 60.2385 54.2191 62.9478 58.9627 69.4833C48.6745 71.5741 40.5407 81.475 40.4867 91.9734C40.4327 102.472 48.4641 112.456 58.7302 114.652C51.4954 118.887 44.7258 124.267 40.2622 131.363C35.7986 138.459 33.8852 147.465 36.556 155.411C42.7333 173.791 68.481 178.178 77.5673 195.307C80.0282 187.224 76.4208 178.725 74.5668 170.482C72.7127 162.238 73.7607 151.653 81.4463 148.142C79.2001 137.316 76.954 126.49 74.7078 115.665C73.0341 107.598 72.1943 97.3771 79.134 92.9365C74.2444 91.42 69.9048 88.1899 67.0488 83.9412C70.133 88.6621 76.0732 91.3408 81.6533 90.5269C74.6018 75.241 66.7831 60.3089 58.2366 45.8058C67.4456 59.6915 75.5959 74.2792 82.5933 89.4006C114.957 88.5249 147.372 89.5219 179.621 92.3851C183.903 92.7653 188.511 93.3187 191.676 96.2273C196.225 100.407 203.054 101.932 208.948 100.083C210.823 104.732 212.203 109.954 210.609 114.706C209.015 119.459 203.368 123.086 198.854 120.906C200.032 126.968 201.211 133.03 202.389 139.091C213.93 139.23 225.469 139.466 237.006 139.798C243.121 139.974 249.512 140.253 254.826 143.282C260.14 146.311 263.89 153.022 261.523 158.662C263.033 154.001 264.543 149.339 266.053 144.678C271.374 153.125 273.988 163.25 273.42 173.217C275.263 170.412 277.106 167.607 278.95 164.802C272.4 154.494 271.567 140.794 276.818 129.767C281.968 138.296 284.869 148.17 285.151 158.129C287.071 140.18 299.788 123.817 316.707 117.524C313.772 124.287 310.837 131.051 307.901 137.815C305.388 143.606 302.196 150.029 296.157 151.869C292.173 153.083 286.405 153.009 285.683 157.11C297.124 154.11 309.302 153.961 320.814 156.682C311.943 167.346 294.85 169.972 283.188 162.462C277.686 168.598 272.919 175.393 269.021 182.654C275.642 174.426 285.946 169.28 296.502 168.93C290.83 175.633 284.434 181.721 277.459 187.054C281.161 187.41 285.163 187.898 287.848 190.47C290.533 193.043 290.6 198.459 287.137 199.813ZM132.733 132.265C135.801 132.23 139.237 132.339 141.378 134.536C143.012 136.212 143.45 138.684 143.806 140.997C145.435 151.576 146.96 162.172 148.381 172.781C148.737 175.442 146.506 177.897 143.958 178.741C141.409 179.585 138.638 179.214 135.98 178.835C138.196 176.922 141.937 178.293 144.322 176.596C146.462 175.074 146.449 171.948 146.193 169.336C145.233 159.539 143.925 149.777 142.273 140.073C141.981 138.357 141.624 136.533 140.408 135.287C138.79 133.629 136.205 133.518 133.888 133.515C124.377 133.504 114.865 133.492 105.354 133.48C103.715 133.478 101.99 133.497 100.567 134.311C96.4715 136.652 97.9813 142.834 100.017 147.089C105.784 145.92 111.677 145.372 117.561 145.457C122.774 145.533 129.274 147.226 130.153 152.364C132.084 163.653 134.015 174.942 135.947 186.231C136.959 192.15 137.517 199.342 132.787 203.041C130.423 204.89 127.286 205.33 124.309 205.707C116.99 206.632 109.67 207.557 102.35 208.483C105.399 235.176 108.447 261.87 111.496 288.563C111.836 291.54 112.459 294.963 115.077 296.421C116.625 297.284 118.504 297.213 120.274 297.117C143.597 295.845 166.897 294.161 190.16 292.065C189.23 289.945 189.211 287.442 190.11 285.309C192.466 299.103 194.823 312.897 197.179 326.691C201.304 323.848 200.67 317.675 199.575 312.786C196.802 300.407 194.029 288.028 191.256 275.649C190.133 277.708 189.011 279.768 187.888 281.827C187.337 279.256 188.88 276.596 191.02 275.067C193.159 273.538 195.797 272.912 198.368 272.36C206.274 270.665 214.265 269.371 222.301 268.483C219.966 252.009 217.63 235.535 215.295 219.061C200.937 223.005 185.733 221.763 170.898 220.492C166.504 220.115 160.92 218.636 160.501 214.246C159.447 203.21 158.394 192.174 157.341 181.138C157.203 179.699 156.37 177.761 154.997 178.214C151.625 179.328 149.619 174.523 149.343 170.982C148.477 159.876 147.611 148.77 146.745 137.664C146.632 136.208 146.602 134.526 147.688 133.549C148.449 132.865 149.544 132.74 150.563 132.647C157.83 131.983 165.097 131.318 172.364 130.654C176.514 130.274 181.227 130.078 184.247 132.95C186.378 134.977 187.093 138.05 187.543 140.956C188.372 146.313 188.647 151.755 188.361 157.168C187.785 151.877 187.209 146.586 186.633 141.295C186.374 138.914 186.058 136.39 184.554 134.526C181.987 131.346 177.211 131.399 173.138 131.734C165.861 132.333 158.584 132.932 151.307 133.531C150.327 133.611 149.265 133.727 148.553 134.405C147.626 135.287 147.652 136.746 147.745 138.022C148.524 148.755 149.304 159.489 150.084 170.222C150.231 172.248 150.431 174.413 151.712 175.99C152.993 177.566 155.771 178.061 156.968 176.42C155.329 172.816 157.596 168.403 160.953 166.302C164.309 164.202 168.429 163.832 172.376 163.517C179.183 162.974 185.99 162.431 192.797 161.888C192.331 147.799 190.811 133.745 188.256 119.881C185.902 119.223 183.758 117.831 182.198 115.949C181.03 118.956 177.553 120.867 174.389 120.241C171.224 119.614 168.738 116.522 168.804 113.297C168.429 117.009 165.196 120.228 161.483 120.587C157.77 120.946 153.98 118.406 152.9 114.835C151.122 116.818 148.815 118.527 146.162 118.768C143.51 119.01 140.576 117.335 140.144 114.706C136.661 119.226 128.565 118.767 125.614 113.883C122.579 118.893 113.938 118.769 111.046 113.676C109.748 118.385 102.501 118.762 99.0221 115.333C95.5433 111.903 94.8661 106.621 94.382 101.76C88.6398 107.293 87.6038 116.181 88.6937 124.08C89.7836 131.98 92.6237 139.589 93.3126 147.533C94.8858 147.929 96.6113 147.679 98.0078 146.853C96.4994 142.295 95.5074 136.171 99.6021 133.664C101.245 132.658 103.277 132.606 105.203 132.584C114.38 132.478 123.556 132.372 132.733 132.265ZM223.639 208.978C235.677 208.381 248.095 209.95 259.534 206.156C261.304 205.569 263.118 204.795 264.259 203.319C261.336 201.977 258.233 199.661 258.305 196.446C258.352 194.334 259.815 192.509 261.463 191.188C263.194 189.802 265.208 188.773 267.345 188.183C267.519 187.654 266.589 187.539 266.128 187.852C265.667 188.164 264.968 188.551 264.661 188.086C264.579 187.962 264.562 187.806 264.548 187.657C263.399 175.973 261.698 164.343 259.451 152.819C258.775 149.354 257.771 145.495 254.718 143.724C253.069 142.768 251.093 142.608 249.191 142.476C234.876 141.486 220.536 140.879 206.189 140.657C202.798 140.605 199.005 140.731 196.628 143.149C194.825 144.984 194.309 147.708 194.118 150.274C193.526 158.217 195.227 166.124 196.334 174.012C197.659 183.461 198.137 193.006 199.011 202.508C199.127 203.772 199.268 205.09 199.952 206.16C201.125 207.994 203.505 208.569 205.661 208.871C208.846 209.317 212.066 209.506 215.281 209.435C218.071 209.374 220.853 209.117 223.639 208.978ZM124.848 147.686C120.773 145.895 116.106 146.374 111.684 146.887C104.996 147.664 98.3073 148.441 91.6189 149.217C88.4042 149.59 85.1863 149.964 82.0061 150.564C81.2394 150.708 80.4701 150.867 79.7467 151.16C76.9121 152.305 75.2221 155.362 74.8289 158.394C74.4357 161.426 75.1096 164.483 75.7556 167.471C77.7635 176.759 79.5442 186.133 80.0273 195.623C80.1229 197.502 80.1709 199.405 80.6873 201.214C81.2036 203.023 82.258 204.763 83.9065 205.669C85.1746 206.366 86.6643 206.511 88.1083 206.606C101.343 207.476 114.571 205.341 127.663 203.214C129.526 202.911 131.485 202.566 132.937 201.361C135.18 199.499 135.515 196.224 135.499 193.31C135.469 187.927 134.817 182.548 133.561 177.315C132.091 171.193 129.784 165.171 129.723 158.876C129.696 156.1 130.06 153.108 128.612 150.739C127.756 149.339 126.35 148.346 124.848 147.686ZM61.8696 264.253C63.6487 277.036 64.2465 289.984 63.6527 302.877C63.6214 303.556 64.4472 303.902 65.1154 304.03C73.674 305.666 82.4879 303.57 90.7928 300.933C95.5137 299.434 100.238 297.725 104.321 294.921C106.189 293.638 108.079 291.705 107.73 289.466C105.486 275.083 104.252 260.542 104.04 245.987C96.483 251.891 86.8938 254.397 77.6 256.761C73.1951 257.882 68.7306 259.01 64.1855 258.972C63.0869 258.962 62.1746 259.928 61.8675 260.983C61.5605 262.038 61.7181 263.164 61.8696 264.253ZM235.564 270.715C221.409 269.336 206.97 270.955 193.472 275.433C194.282 281.599 195.39 287.725 196.789 293.784C197.349 296.21 197.956 298.625 198.563 301.04C199.745 305.743 200.927 310.447 202.109 315.15C202.274 315.804 202.48 316.52 203.044 316.89C203.548 317.221 204.199 317.183 204.8 317.133C218.777 315.967 232.746 314.704 246.705 313.345C243.653 299.741 240.602 286.138 237.55 272.535C237.433 272.012 237.292 271.449 236.876 271.112C236.516 270.819 236.026 270.76 235.564 270.715ZM214.699 211C211.619 211.157 208.492 211.31 205.485 210.626C202.478 209.943 199.551 208.304 198.007 205.634C197.12 206.655 195.358 206.731 194.386 205.792C193.414 204.852 193.432 203.088 194.422 202.168C190.51 202.203 186.597 202.239 182.684 202.274C184.472 203.327 184.325 206.433 182.477 207.376C180.629 208.32 178.07 206.726 178.027 204.651C178.008 203.72 178.579 202.674 179.507 202.591C179.122 201.931 178.123 202.322 177.363 202.25C176.219 202.141 175.593 200.894 175.191 199.816C173.562 195.446 172.08 191.022 170.598 186.6C171.636 188.298 173.973 189.062 175.813 188.305C176.464 188.037 176.483 187.102 176.206 186.456C175.723 185.327 174.621 184.457 173.397 184.361C172.173 184.265 170.9 185.013 170.486 186.169C169.873 185.71 170.134 184.649 170.777 184.234C171.421 183.819 172.245 183.855 173.01 183.901C180.227 184.337 187.47 184.33 194.686 183.881C195.014 183.86 195.376 183.824 195.6 183.582C195.853 183.31 195.829 182.889 195.789 182.519C195.513 179.981 195.237 177.443 194.961 174.905C194.931 174.623 194.887 174.315 194.677 174.126C194.445 173.917 194.096 173.926 193.785 173.949C184.74 174.593 175.718 175.567 166.744 176.867C165.788 177.005 164.9 176.204 164.598 175.287C164.297 174.369 164.436 173.373 164.578 172.418C164.628 172.083 164.692 171.721 164.94 171.49C165.169 171.278 165.5 171.228 165.809 171.189C175.146 169.997 184.544 169.282 193.954 169.047C193.726 169.977 192.513 170.177 191.556 170.194C182.823 170.349 174.1 171.049 165.453 172.289C164.763 173.469 165.709 175.059 166.984 175.556C168.258 176.052 169.686 175.787 171.03 175.534C178.438 174.14 185.953 173.318 193.487 173.079C194.563 173.045 194.692 171.497 194.466 170.445C193.941 168.001 193.416 165.557 192.891 163.114C187.673 164.102 182.343 164.496 177.037 164.287C173.898 164.162 170.775 164.711 167.68 165.258C165.051 165.722 162.248 166.273 160.348 168.149C158.126 170.342 157.728 173.771 157.863 176.889C158.084 182.006 159.383 187.01 160.024 192.091C160.807 198.299 160.605 204.592 161.206 210.82C161.368 212.498 161.599 214.207 162.352 215.715C163.104 217.224 164.471 218.519 166.139 218.768C179.839 220.81 193.808 221.042 207.569 219.456C208.84 219.309 210.123 219.144 211.323 218.7C213.217 218 214.841 216.595 215.807 214.822C216.194 214.11 216.484 213.296 216.343 212.498C216.201 211.7 215.508 210.958 214.699 211ZM105.169 245.999C106.603 261.774 108.036 277.548 109.47 293.322C109.728 296.158 109.976 299.087 109.09 301.792C108.204 304.498 105.872 306.943 103.027 307.036C104.697 309.48 107.581 310.877 110.496 311.389C113.411 311.9 116.4 311.629 119.348 311.357C143.633 309.113 167.918 306.869 192.203 304.626C191.682 301.591 191.161 298.556 190.64 295.521C190.523 294.84 190.188 293.977 189.499 294.028C172.801 295.272 156.104 296.517 139.407 297.761C132.55 298.272 125.66 298.783 118.807 298.222C115.339 297.939 111.057 296.561 110.715 293.098C107.977 265.397 104.808 237.738 101.209 210.135C101.153 209.71 101.085 209.256 100.794 208.941C100.407 208.521 99.7654 208.489 99.1939 208.486C95.7795 208.469 92.3651 208.451 88.9507 208.434C89.9479 214.091 91.2424 219.695 92.8269 225.216C93.1197 226.236 93.6068 227.428 94.6523 227.611C98.4066 228.271 101.37 231.359 102.914 234.844C104.459 238.328 104.824 242.203 105.169 245.999ZM92.0505 147.81C89.1199 132.946 86.6403 117.993 84.6163 102.979C84.5019 102.13 84.3911 101.249 84.641 100.43C85.1561 98.7403 87.0038 97.855 88.7221 97.4474C92.0816 96.6505 95.5898 96.9164 99.0331 97.1703C130.515 99.4916 162.099 100.42 193.662 99.9532C192.407 97.4071 189.883 95.6704 187.197 94.7495C184.512 93.8285 181.642 93.6241 178.81 93.4284C151.026 91.5083 123.2 89.7089 95.3511 90.0442C91.9439 90.0853 88.497 90.1637 85.2071 91.0509C81.9172 91.9381 78.7518 93.725 76.8538 96.5549C73.863 101.014 74.5864 106.905 75.5121 112.194C77.68 124.579 80.3174 136.883 83.4169 149.069C86.2948 148.649 89.1726 148.23 92.0505 147.81ZM159.836 118.759C161.34 118.775 162.904 118.69 164.235 117.989C166.58 116.755 167.621 113.912 167.776 111.267C167.93 108.622 167.408 105.97 167.577 103.326C167.615 102.724 167.952 101.925 168.536 102.076C168.96 105.12 169.383 108.164 169.807 111.208C170.04 112.889 170.283 114.601 171.02 116.129C171.756 117.658 173.08 119.002 174.746 119.322C175.703 119.506 176.702 119.341 177.614 118.998C179.798 118.177 181.629 116.087 181.546 113.755C181.431 110.536 181.316 107.317 181.202 104.098C181.156 102.824 180.683 101.127 179.41 101.194C170.925 101.638 162.415 101.599 153.935 101.076C153.316 101.038 153.153 101.914 153.219 102.53C153.558 105.723 153.898 108.917 154.237 112.11C154.493 114.52 155.04 117.354 157.252 118.346C158.054 118.706 158.957 118.75 159.836 118.759ZM203.354 319.125C202.948 319.41 202.679 319.848 202.432 320.278C201.145 322.518 200.111 324.904 199.355 327.374C214.208 326.336 229.049 325.131 243.874 323.757C244.431 323.705 245.036 323.633 245.435 323.241C245.695 322.987 245.828 322.634 245.953 322.293C246.508 320.786 247.063 319.278 247.618 317.771C247.888 317.037 248.128 316.124 247.6 315.548C247.162 315.069 246.416 315.084 245.768 315.136C232.214 316.222 218.666 317.391 205.125 318.644C204.509 318.701 203.861 318.769 203.354 319.125ZM229.536 227.617C229.135 222.931 228.317 217.672 224.492 214.934C223 219.043 221.494 223.215 221.152 227.573C220.811 231.932 221.774 236.577 224.698 239.828C225.109 240.285 225.566 240.728 225.783 241.302C226.001 241.877 225.891 242.635 225.357 242.94C221.383 239.482 219.738 233.936 219.831 228.669C219.924 223.402 221.539 218.296 223.138 213.277C223.489 212.174 222.484 211.014 221.356 210.757C220.227 210.5 219.062 210.877 217.966 211.25C217.753 211.322 217.659 211.565 217.592 211.78C216.834 214.195 216.069 216.755 216.656 219.216C219.185 229.821 218.858 240.952 221.432 251.546C221.527 251.938 221.63 252.337 221.858 252.669C223.565 249.331 225.272 245.994 226.979 242.656C227.781 241.088 228.587 239.509 229.088 237.82C230.062 234.536 229.829 231.03 229.536 227.617ZM289.92 150.637C290.249 150.909 290.692 150.994 291.117 151.042C295.944 151.582 300.499 148.296 303.172 144.241C305.845 140.185 307.108 135.394 308.86 130.864C310.505 126.613 312.608 122.539 315.122 118.736C310.089 123.459 303.892 126.767 298.638 131.243C293.384 135.72 288.912 141.999 289.283 148.891C289.317 149.528 289.427 150.23 289.92 150.637ZM96.5968 104.961C97.283 107.969 96.9993 111.311 98.6658 113.908C100.281 116.425 103.689 117.624 106.525 116.674C109.361 115.724 111.358 112.714 111.131 109.731C111.08 109.054 110.927 108.388 110.774 107.726C110.177 105.131 109.579 102.536 108.982 99.9408C108.922 99.6826 108.856 99.411 108.673 99.2196C108.41 98.945 107.99 98.9131 107.61 98.8985C103.96 98.7588 100.31 98.619 96.6598 98.4793C96.3086 98.4659 95.9232 98.4632 95.6503 98.6845C95.3048 98.9646 95.285 99.4791 95.3299 99.9216C95.5051 101.647 96.2111 103.27 96.5968 104.961ZM195.406 107.767C195.493 111.921 198.2 115.534 201.054 118.554C201.333 118.849 201.619 119.145 201.967 119.353C202.531 119.69 203.216 119.77 203.87 119.713C206.075 119.524 207.961 117.856 208.892 115.848C209.823 113.84 209.928 111.543 209.728 109.339C209.527 107.134 209.039 104.964 208.842 102.759C208.803 102.317 208.641 101.74 208.197 101.741C204.294 101.756 200.392 101.771 196.489 101.786C195.99 101.788 195.461 101.798 195.04 102.066C194.618 102.333 194.383 102.957 194.695 103.346C195.651 104.534 195.374 106.242 195.406 107.767ZM254.75 236.282C244.058 236.094 234.257 242.433 226.778 250.076C225.518 251.364 224.287 252.716 223.448 254.311C223.299 254.594 223.182 254.987 223.426 255.193C223.555 255.303 223.74 255.309 223.91 255.309C230.13 255.287 236.113 252.659 241.166 249.033C246.22 245.406 250.478 240.804 254.75 236.282ZM122.452 115.919C123.98 115.04 124.963 113.29 124.918 111.528C124.896 110.634 124.632 109.767 124.419 108.899C123.873 106.665 123.661 104.349 123.791 102.053C123.819 101.564 123.861 101.062 123.714 100.595C123.567 100.127 123.177 99.6977 122.688 99.671C118.648 99.4503 114.607 99.2297 110.567 99.0091C110.422 99.0011 110.263 98.9969 110.146 99.083C109.964 99.2164 109.974 99.4869 110.008 99.71C110.505 102.998 112.096 106.095 112.198 109.418C112.236 110.641 112.072 111.895 112.415 113.069C112.853 114.574 114.106 115.761 115.559 116.346C117.013 116.931 118.644 116.965 120.186 116.686C120.975 116.544 121.758 116.319 122.452 115.919ZM284.12 160.931C287.046 161.757 289.633 163.483 292.472 164.572C298.765 166.985 306.256 165.978 311.687 161.986C314.019 160.273 316.351 158.559 318.683 156.845C315.84 157.518 312.9 157.776 309.983 157.608C305.11 157.327 300.298 155.867 295.43 156.233C291.289 156.544 287.262 158.217 284.12 160.931ZM200.562 138.414C199.987 135.228 199.411 132.042 198.836 128.856C198.065 124.586 197.295 120.316 196.524 116.046C196.469 115.743 196.403 115.418 196.178 115.207C195.954 114.997 195.516 114.996 195.394 115.279C194.624 117.056 193.048 118.464 191.196 119.03C190.072 119.373 189.976 120.906 190.106 122.074C191.028 130.312 192.119 138.532 193.378 146.725C193.744 143.374 196.616 140.464 199.962 140.053C200.613 139.973 200.678 139.059 200.562 138.414ZM139.087 112.5C138.729 109.066 138.278 105.641 137.735 102.231C137.622 101.527 137.323 100.651 136.612 100.62C132.934 100.458 129.257 100.297 125.579 100.136C125.448 100.13 125.31 100.126 125.194 100.187C124.897 100.344 124.946 100.777 125.033 101.102C125.881 104.251 126.331 107.506 126.369 110.767C126.379 111.569 126.369 112.403 126.705 113.131C127.199 114.204 128.324 114.819 129.394 115.32C131.258 116.193 133.295 116.961 135.329 116.644C137.362 116.327 139.3 114.547 139.087 112.5ZM140.677 112.519C141.048 114.316 141.728 116.407 143.488 116.924C144.974 117.36 146.581 117.48 148.071 117.06C149.561 116.64 150.921 115.639 151.587 114.241C152.062 113.247 152.169 112.121 152.231 111.02C152.4 108.006 152.284 104.975 151.884 101.982C151.862 101.822 151.838 101.657 151.757 101.517C151.543 101.146 151.037 101.094 150.608 101.084C146.863 101.003 143.119 100.921 139.374 100.84C139.068 100.833 138.641 101.151 138.9 101.314C139.319 105.074 139.912 108.815 140.677 112.519ZM266.503 149.71C263.578 156.323 262.716 163.832 264.068 170.936C264.608 173.774 265.669 176.786 268.126 178.306C268.849 178.753 270.054 178.885 270.321 178.078C273.429 168.703 271.979 157.93 266.503 149.71ZM76.8984 232.744C78.1394 233.596 79.5382 234.217 81.0023 234.566C82.8523 235.006 84.7736 235.012 86.6749 235.057C91.1176 235.164 95.5547 235.505 99.9618 236.077C100.577 236.156 101.085 235.491 101.069 234.871C101.052 234.251 100.675 233.704 100.285 233.223C97.934 230.327 94.5016 228.331 90.8224 227.721C88.216 227.289 85.5511 227.531 82.9102 227.455C80.2693 227.379 77.5128 226.932 75.4069 225.337C75.2954 226.854 75.2865 228.378 75.3803 229.897C75.4183 230.511 75.4803 231.148 75.7935 231.678C76.056 232.123 76.473 232.452 76.8984 232.744ZM183.786 114.911C184.2 115.663 184.866 116.242 185.548 116.765C186.286 117.331 187.084 117.861 187.992 118.069C190.226 118.58 192.51 116.925 193.452 114.835C194.393 112.746 194.298 110.351 194.08 108.069C193.915 106.344 193.691 104.625 193.407 102.915C193.36 102.63 193.305 102.332 193.126 102.106C192.811 101.708 192.236 101.662 191.729 101.648C189.006 101.576 186.282 101.504 183.559 101.431C182.956 101.415 182.099 101.704 182.278 102.28C183.08 104.858 183.429 107.577 183.306 110.275C183.234 111.849 183.025 113.531 183.786 114.911M280.171 162.79C283.063 158.124 283.929 152.249 282.506 146.947C281.248 142.259 278.323 138.106 277.396 133.342C275.235 139.899 273.059 146.958 275.014 153.58C276.016 156.973 278.039 159.966 280.171 162.79ZM232.267 236.205C240.868 233.99 248.806 229.267 254.857 222.767C256.667 220.822 258.521 218.917 260.415 217.054C255.774 217.69 251.243 219.125 247.083 221.277C240.735 224.56 235.166 229.673 232.267 236.205ZM284.664 179.121C287.827 176.148 290.99 173.176 294.153 170.203C283.456 171.567 273.467 177.747 267.472 186.711C269.017 187.901 271.234 187.201 273.036 186.455C275.543 185.419 278.071 184.371 280.303 182.829C281.874 181.743 283.272 180.429 284.664 179.121ZM76.6252 244.089C76.6518 244.364 76.6843 244.655 76.8507 244.875C77.2148 245.357 77.9571 245.238 78.5369 245.069C85.1746 243.129 91.7191 240.871 98.1403 238.304C98.6033 238.119 99.1433 237.826 99.1525 237.328C94.2264 236.986 89.3004 236.644 84.3743 236.303C83.1694 236.219 81.9598 236.135 80.7787 235.883C79.0019 235.504 77.3077 234.742 75.8446 233.665C75.9518 237.148 76.2886 240.62 76.6252 244.089ZM232.237 210.759C231.839 211.047 231.679 211.553 231.542 212.024C231.073 213.64 230.602 215.354 231.037 216.979C231.259 217.808 231.704 218.556 232.145 219.291C233.362 221.326 234.58 223.362 235.797 225.397C235.911 225.586 236.033 225.785 236.229 225.888C236.811 226.193 237.384 225.476 237.654 224.877C239.407 220.99 241.199 216.88 240.801 212.635C240.74 211.983 240.563 211.242 239.98 210.943C239.712 210.805 239.401 210.788 239.1 210.773C237.295 210.683 235.49 210.593 233.685 210.504C233.185 210.479 232.642 210.466 232.237 210.759ZM259.826 196.37C259.78 199.106 262.167 201.393 264.784 202.19C267.402 202.986 270.211 202.643 272.931 202.351C277.715 201.837 282.774 201.414 286.706 198.642C287.578 198.027 288.403 197.268 288.793 196.275C289.401 194.724 288.789 192.894 287.647 191.682C286.504 190.471 284.919 189.778 283.333 189.27C277.665 187.456 271.373 187.665 265.838 189.852C262.918 191.005 259.879 193.231 259.826 196.37ZM76.1748 224.315C76.69 224.795 77.7343 224.918 77.9352 224.243C78.6236 221.928 80.171 219.944 81.994 218.361C83.8169 216.778 85.9187 215.555 88.0064 214.342C88.5695 214.015 88.5341 213.204 88.4252 212.562C88.2144 211.318 88.0036 210.074 87.7928 208.831C87.7394 208.515 87.634 208.14 87.3256 208.055C87.0733 207.986 86.8239 208.157 86.6178 208.318C85.12 209.488 83.6223 210.657 82.1246 211.827C79.1236 214.17 75.9074 216.859 75.2566 220.61C75.0299 221.918 75.2048 223.41 76.1748 224.315ZM87.8581 215.942C84.4944 218.043 80.9339 220.369 79.4053 224.028C79.3101 224.256 79.2223 224.495 79.2298 224.742C79.2446 225.229 79.6368 225.639 80.0866 225.826C80.5364 226.013 81.0373 226.021 81.5244 226.027C84.4039 226.061 87.2834 226.095 90.1629 226.129C90.3029 226.131 90.4549 226.128 90.5654 226.042C90.7401 225.906 90.7223 225.641 90.6877 225.423C90.2283 222.52 89.769 219.617 89.3097 216.714C89.2443 216.301 89.111 215.807 88.7081 215.695C88.415 215.613 88.1162 215.781 87.8581 215.942ZM230.92 210.938C228.8 210.391 226.513 210.51 224.461 211.275C224.859 212.578 225.563 213.788 226.501 214.777C229.662 218.109 230.596 222.948 230.955 227.527C231.147 229.973 231.214 232.428 231.157 234.881C232.546 232.739 233.934 230.597 235.323 228.455C235.461 228.242 235.603 228.017 235.618 227.763C235.633 227.51 235.518 227.269 235.402 227.043C234.031 224.397 232.018 222.116 230.747 219.421C229.476 216.726 229.086 213.286 230.92 210.938ZM88.8768 98.8192C87.7074 99.0047 86.374 99.3018 85.8186 100.347C85.4346 101.07 85.5479 101.945 85.6713 102.754C86.1795 106.087 86.6877 109.42 87.1959 112.752C89.7968 108.076 92.2321 103.309 94.6668 98.5439C94.2162 98.0344 93.4176 98.0989 92.7458 98.2054C91.4561 98.41 90.1665 98.6146 88.8768 98.8192ZM248.959 211.981C249.319 212.459 250.259 211.93 250.038 211.374C253.512 212.371 257.298 211.661 260.579 210.146C263.86 208.631 266.725 206.36 269.544 204.099C268.36 203.934 267.176 203.768 265.992 203.603C265.751 203.569 265.437 203.574 265.345 203.8C264.707 205.36 263.335 206.529 261.819 207.267C260.304 208.006 258.636 208.363 256.987 208.714C255.843 208.958 254.698 209.202 253.554 209.446C251.782 209.823 249.783 210.367 248.959 211.981ZM186.119 187.813C186.341 187.757 186.58 187.69 186.722 187.51C186.943 187.231 186.833 186.829 186.775 186.477C186.717 186.126 186.806 185.658 187.157 185.597C187.477 185.661 187.624 186.04 187.632 186.366C187.64 186.692 187.568 187.032 187.686 187.337C187.948 188.014 188.883 188.04 189.603 187.949C190.029 187.894 190.456 187.84 190.882 187.786C191.015 187.769 191.158 187.747 191.257 187.657C191.573 187.368 191.134 186.896 191.036 186.48C190.961 186.158 191.111 185.811 191.013 185.495C190.845 184.958 190.13 184.876 189.568 184.894C185.266 185.037 180.964 185.18 176.661 185.323C176.735 186.137 176.958 186.937 177.315 187.672C177.392 187.831 177.483 187.994 177.636 188.082C177.791 188.171 177.981 188.165 178.159 188.157C179.229 188.107 180.298 188.057 181.368 188.008C181.459 188.004 181.554 187.998 181.63 187.948C181.825 187.819 181.758 187.521 181.668 187.305C181.514 186.933 181.359 186.561 181.205 186.189C181.071 185.865 181.656 185.674 181.903 185.922C182.149 186.171 182.159 186.562 182.275 186.892C182.516 187.578 183.245 187.997 183.967 188.085C184.689 188.173 185.414 187.993 186.119 187.813ZM248.599 210.588C248.833 210.338 248.316 210.077 247.976 210.119C246.039 210.356 244.101 210.594 242.164 210.832C241.905 210.863 241.563 211.005 241.625 211.259C242.261 213.866 242.023 216.678 240.956 219.14C240.753 219.609 240.619 220.325 241.105 220.482C243.125 216.856 245.656 213.515 248.599 210.588ZM182.592 189.779C182.531 189.569 182.463 189.348 182.302 189.199C182.12 189.029 181.857 188.986 181.61 188.959C180.341 188.82 179.047 188.907 177.808 189.215C178.196 190.472 178.583 191.73 178.971 192.987C179.044 193.226 179.143 193.493 179.375 193.586C179.493 193.634 179.625 193.626 179.753 193.617C181.006 193.529 182.259 193.441 183.512 193.353C183.24 192.153 182.933 190.961 182.592 189.779ZM174.433 194.176C174.572 194.252 174.742 194.229 174.899 194.203C176.033 194.019 177.168 193.834 178.303 193.649C177.893 192.337 177.484 191.025 177.074 189.713C177.014 189.52 176.939 189.309 176.762 189.213C176.622 189.137 176.451 189.154 176.293 189.172C175.281 189.29 174.27 189.407 173.258 189.525C173.068 189.547 172.843 189.594 172.772 189.773C172.724 189.893 172.77 190.029 172.815 190.151C173.26 191.354 173.706 192.556 174.152 193.759C174.211 193.92 174.282 194.094 174.433 194.176ZM187.18 188.935C186.94 188.726 186.585 188.741 186.268 188.767C185.269 188.849 184.27 188.931 183.271 189.013C183.569 190.294 183.945 191.556 184.396 192.791C184.455 192.953 184.522 193.124 184.659 193.227C184.831 193.357 185.067 193.35 185.281 193.337C185.963 193.296 186.645 193.255 187.328 193.214C187.642 193.195 188.024 193.128 188.129 192.831C188.18 192.689 188.147 192.532 188.114 192.384C187.906 191.46 187.699 190.536 187.491 189.612C187.436 189.365 187.371 189.101 187.18 188.935ZM181.219 198.134C181.12 198.149 181.015 198.168 180.943 198.237C180.803 198.372 180.867 198.605 180.941 198.785C181.203 199.428 181.466 200.07 181.728 200.712C181.826 200.951 181.935 201.204 182.153 201.342C182.354 201.469 182.606 201.472 182.844 201.471C183.751 201.465 184.658 201.46 185.564 201.454C185.697 201.454 185.841 201.449 185.943 201.364C186.129 201.211 186.06 200.917 185.974 200.692C185.625 199.772 185.277 198.853 184.928 197.933C184.816 197.638 184.405 197.634 184.094 197.683C183.135 197.833 182.177 197.983 181.219 198.134ZM188.847 188.753C188.657 188.754 188.442 188.764 188.314 188.905C188.159 189.075 188.208 189.341 188.267 189.563C188.524 190.538 188.782 191.512 189.04 192.487C189.085 192.658 189.138 192.841 189.275 192.953C189.458 193.102 189.722 193.074 189.955 193.039C190.815 192.907 191.674 192.776 192.534 192.645C192.441 191.647 192.283 190.656 192.06 189.679C191.99 189.374 191.893 189.041 191.629 188.873C191.431 188.748 191.182 188.744 190.948 188.745C190.248 188.748 189.547 188.75 188.847 188.753ZM190.597 201.34C190.318 200.328 190.04 199.317 189.761 198.305C189.655 197.919 189.504 197.481 189.131 197.335C188.946 197.264 188.741 197.28 188.545 197.297C187.628 197.376 186.71 197.456 185.793 197.536C186.035 198.442 186.321 199.336 186.651 200.214C186.817 200.656 187.068 201.157 187.534 201.232C188.545 201.396 189.577 201.432 190.597 201.34ZM192.193 201.27C193.024 201.337 193.937 201.384 194.609 200.89C194.318 199.756 194.026 198.623 193.735 197.49C193.669 197.235 193.582 196.951 193.348 196.83C193.176 196.74 192.97 196.765 192.779 196.792C191.955 196.906 191.131 197.021 190.307 197.135C190.503 198.335 190.835 199.512 191.296 200.637C191.367 200.809 191.446 200.989 191.594 201.102C191.761 201.231 191.983 201.253 192.193 201.27ZM266.278 185.14C266.913 183.836 267.548 182.533 268.183 181.23C268.249 181.093 268.318 180.945 268.294 180.794C268.27 180.648 268.163 180.531 268.061 180.423C267.157 179.467 266.254 178.512 265.35 177.556C264.974 178.069 265.017 178.766 265.077 179.399C265.274 181.477 265.471 183.554 265.667 185.632C265.944 185.694 266.154 185.394 266.278 185.14ZM193.107 188.602C192.988 188.594 192.853 188.592 192.77 188.677C192.677 188.773 192.698 188.928 192.725 189.058C192.903 189.921 193.082 190.784 193.261 191.646C193.327 191.966 193.406 192.308 193.647 192.528C194.428 193.24 195.932 192.015 196.658 192.783C196.785 191.558 196.693 190.311 196.388 189.118C196.366 189.034 196.341 188.945 196.277 188.887C196.202 188.82 196.095 188.81 195.995 188.803C195.032 188.736 194.069 188.669 193.107 188.602ZM175.146 195.001C175.042 195.015 174.933 195.031 174.848 195.091C174.658 195.226 174.665 195.505 174.692 195.737C174.765 196.354 174.845 196.992 175.168 197.523C175.49 198.054 176.128 198.447 176.728 198.286C177.588 198.056 178.448 197.825 179.307 197.595C179.27 196.773 179.104 195.957 178.816 195.187C178.745 194.994 178.654 194.792 178.477 194.687C178.294 194.579 178.065 194.605 177.854 194.633C176.951 194.756 176.048 194.878 175.146 195.001ZM195.199 187.79C195.458 187.751 195.734 187.704 195.926 187.526C196.499 186.997 195.844 185.922 196.308 185.296C196.49 185.051 196.046 184.832 195.742 184.845C194.383 184.903 193.025 184.96 191.667 185.017C191.72 185.579 191.817 186.137 191.959 186.683C192.117 187.292 192.71 187.709 193.325 187.844C193.939 187.979 194.577 187.885 195.199 187.79ZM184.222 195.106C184.047 194.265 182.923 194.069 182.079 194.226C181.235 194.384 180.293 194.688 179.576 194.217C179.622 195.104 179.829 195.982 180.184 196.796C180.259 196.967 180.35 197.145 180.512 197.237C180.695 197.34 180.922 197.308 181.129 197.272C181.961 197.128 182.793 196.985 183.624 196.841C184.036 196.77 184.58 196.443 184.363 196.086C184.19 195.801 184.29 195.432 184.222 195.106ZM179.085 198.555C178.405 198.67 177.726 198.785 177.046 198.9C176.678 198.962 176.225 199.11 176.186 199.481C176.087 200.419 177.021 201.175 177.946 201.362C178.87 201.549 179.83 201.366 180.769 201.459C180.73 200.661 180.563 199.87 180.276 199.125C180.208 198.948 180.127 198.765 179.977 198.649C179.733 198.461 179.389 198.503 179.085 198.555ZM196.992 196.735C196.09 196.639 195.173 196.687 194.286 196.876C194.776 198.043 195.124 199.27 195.32 200.521C195.41 201.094 196.229 201.105 196.791 200.962C197.001 200.908 197.23 200.842 197.35 200.661C197.453 200.506 197.448 200.305 197.439 200.119C197.391 199.089 197.343 198.059 197.295 197.029C197.292 196.964 197.287 196.896 197.25 196.842C197.195 196.763 197.087 196.745 196.992 196.735ZM182.268 205.962C183.118 205.113 182.682 203.4 181.53 203.061C180.378 202.722 179.083 203.926 179.338 205.099C179.602 206.313 181.389 206.839 182.268 205.962ZM188.951 196.014C189.491 195.308 188.682 194.265 187.806 194.112C186.93 193.958 186.042 194.294 185.153 194.281C184.825 194.276 184.811 194.769 184.918 195.079C185.056 195.48 185.193 195.881 185.331 196.282C185.387 196.446 185.49 196.643 185.663 196.632C186.297 196.592 186.931 196.552 187.565 196.513C188.071 196.481 188.642 196.416 188.951 196.014ZM197.716 202.829C197.65 202.652 197.553 202.479 197.401 202.368C197.263 202.268 197.092 202.226 196.924 202.205C195.593 202.045 194.301 203.372 194.498 204.698C195.064 205.372 196.131 205.558 196.892 205.116C197.653 204.674 198.02 203.655 197.716 202.829ZM189.5 194.813C189.471 195.396 189.984 195.894 190.546 196.051C191.109 196.208 191.707 196.107 192.282 196.004C192.576 195.952 192.906 195.876 193.06 195.62C193.388 195.074 192.736 194.072 193.338 193.862C192.934 193.807 192.53 193.751 192.126 193.696C191.593 193.622 191.041 193.55 190.523 193.698C190.005 193.846 189.527 194.275 189.5 194.813ZM194.33 195.559C194.942 196.091 195.967 196.018 196.536 195.439C197.104 194.861 197.178 193.881 196.75 193.193C195.678 193.391 194.607 193.59 193.535 193.789C193.67 194.434 193.832 195.127 194.33 195.559ZM277.118 185.319C276.283 185.628 275.449 185.937 274.615 186.246C274.2 186.399 273.78 186.556 273.421 186.814C274.786 187.346 276.507 186.65 277.118 185.319ZM199.572 119.104C199.55 118.735 199.16 118.434 198.798 118.506C198.821 118.881 199.195 119.196 199.569 119.156L199.572 119.104Z" fill="#00160A"/>
</g>
<defs>
<filter id="filter0_d" x="0" y="0" width="354" height="354" filterUnits="userSpaceOnUse" color-interpolation-filters="sRGB">
<feFlood flood-opacity="0" result="BackgroundImageFix"/>
<feColorMatrix in="SourceAlpha" type="matrix" values="0 0 0 0 0 0 0 0 0 0 0 0 0 0 0 0 0 0 127 0"/>
<feOffset dy="4"/>
<feGaussianBlur stdDeviation="2"/>
<feColorMatrix type="matrix" values="0 0 0 0 0 0 0 0 0 0 0 0 0 0 0 0 0 0 0.25 0"/>
<feBlend mode="normal" in2="BackgroundImageFix" result="effect1_dropShadow"/>
<feBlend mode="normal" in="SourceGraphic" in2="effect1_dropShadow" result="shape"/>
</filter>
</defs>
</svg>
